
<svg xmlns="http://www.w3.org/2000/svg" version="1.1" xmlns:xlink="http://www.w3.org/1999/xlink" preserveAspectRatio="none" x="0px" y="0px" width="217px" height="165px" viewBox="0 0 217 165">
<defs>
<g id="Layer2_0_FILL">
<path fill="#000000" stroke="none" d="
M 183.95 68.25
Q 183.8 68.35 183.3 69 182.7 69.9 181.8 70.55 181.35 70.6 180.95 70.65 179.6 71.75 177.95 72.1 177.9 71.9 177.6 69.8 177.4 68.4 176.85 67.65 176.2 66.75 174.85 66.3 173.15 65.75 171.35 66.05 169.5 66.4 168.1 67.5 166.9 68.5 166.5 69.7 166.2 70.5 166.1 72.2 166.1 74.1 166.2 77.85 166.25 81.15 165.7 83.4 165.65 83.8 165.65 84.05 165.35 84.7 165.05 85.55
L 163.2 86.15
Q 160.8 87 159.8 87.2 157.15 87.9 152.3 88.1 148.2 88.3 142.45 88.2 141.55 88.2 140.75 88.25
L 140.7 88.2
Q 140.45 88.1 140.3 88.25 136.55 88.25 134.85 88.5 133 88.75 132.6 88.75 131.85 88.75 130.45 88.45 129 88.15 128.35 88.15 127.9 88.15 127.7 88.25 127.4 88.4 127.4 88.65 123.45 88.25 121.45 87.8 116.85 86.9 113.7 84.9 113.55 84.8 113.4 84.7 113.35 84.6 113.3 84.5 113.15 84.3 112.65 84 112.35 83.8 111.95 83.25 111.5 82.65 111.25 82.45 111.1 82.3 109.9 81.65
L 106.6 80.2
Q 105.05 80.1 104.3 79.85
L 103.4 79.55
Q 103.2 79.5 101.65 79.5 101.25 79.45 100.85 79.4 100.3 79.3 99.55 79.15 98.05 78.8 97.45 78.75 96.5 78.75 96.05 78.65 95.75 78.6 94.7 78.2 94.4 78.05 94.1 77.95
L 93.85 77.85
Q 90.15 76.35 87.9 75.85
L 87.2 75.85
Q 86.9 75.95 86.85 76.2 84.35 75.8 82.9 75.55 74.75 74.1 67.4 70.9 65.3 70 64.5 69.85 63.3 69.7 62.7 69.6 61.65 69.4 61.05 69 60.2 68.5 59.3 67
L 57.25 63.45
Q 55.45 60.1 54.95 58.45 54.6 57 54.4 56.25 54 55 53.5 54.25 53 53.55 52.85 53.2
L 52.6 52.7
Q 52.4 52.55 52.2 52.65 51.9 52.4 51.6 52.3 52.05 51.8 52.85 50.35
L 53.65 49
Q 55.8 45.3 56.25 43.25 56.45 41.85 56.25 41.2 56.1 40.65 55.4 39.75 54.55 38.7 53.7 38.2 52.55 37.6 51.5 37.85 51.2 37.95 50.35 38.35 49.75 38.65 48.45 39.2 48.25 39.3 46.8 40.35
L 42.65 42.9
Q 42.3 42.3 41.75 41.85
L 41.05 41.2
Q 40.85 41.05 40.5 40.45 40.1 39.9 39.7 39.55
L 37.65 37.35
Q 37.25 36.85 36.85 36.7 36.4 36.5 35.6 36.6 34.6 36.75 34.3 36.7 33.95 36.65 33.45 36.45 32.85 36.15 32.6 36.1 31.9 35.95 30.9 36.15
L 28.9 36.45
Q 27.45 36.65 26.9 37.15 26.65 37.4 26.25 38.1 25.95 38.55 25.2 39.35 24.65 40.15 24.15 41.8 24 41.75 23.85 41.7 22.85 41.5 22.35 41.5 21.6 41.55 20.2 41.95 16.7 43.05 15.3 44.3 14.7 44.85 14.55 45.35 14.5 45.8 14.75 46.35 14.85 46.65 15.2 47.3
L 15.6 48.25
Q 16.05 49.05 17.1 50.1
L 24.15 57.7
Q 24.5 58.2 24.55 58.4 24.6 58.75 24.35 59.2 23.75 60.35 21.9 61.75 19.85 63.3 19.2 64.15 18.8 64.65 18.2 65.85 17.45 67.45 17.35 67.85 17.25 68.05 17 69.4 16.85 70.45 16.95 71.15 17.1 72.25 17.9 73.15 18.7 74 19.8 74.35 20.35 74.55 21.5 74.8
L 22.4 75.15
Q 23.7 75.6 25.15 75.25 25.8 75.15 26.05 75 26.9 74.55 27.3 73.1 27.5 72.35 27.65 71.95 27.85 71.3 28.1 70.9 28.9 69.65 30.85 69.1 31.2 68.95 31.4 68.85 31.4 68.95 31.5 69.05 31.7 69.2 32.2 69.2 32.5 69.2 33 69.4
L 44.35 72.85
Q 45.45 73.1 46.05 73.55
L 46.7 74.25
Q 47.05 74.65 47.9 76.05 48.6 77.2 49.2 77.75 50.55 78.95 50.6 79.05 50.75 79.25 51 79.65
L 51.55 80
Q 52.8 80.65 54.85 82.6 55.4 83.05 56.6 83.85 57.1 84.2 57.6 84.6
L 57.6 84.65
Q 57.75 84.95 58.05 84.95 59.45 86.15 60.65 87.6 60.9 87.85 62.15 89.5
L 63.85 91.9
Q 64.2 92.45 64.45 93.2
L 66.5 97.65
Q 67.4 99.75 67.75 100.85 68.2 102.45 68.5 105.8
L 68.65 109.2
Q 68.7 110.25 69.15 112.3
L 69.25 114.15
Q 69.35 116.05 69.2 117.65
L 69 118.85 69 118.9
Q 68.99375 119.7931640625 68.65 120.95 67.8 124.55 66.7 126.5
L 65.65 128.3 65.6 128.4
Q 60.5869140625 130.0123046875 57.45 131.35 52.6 133.45 49.2 136.05 45.25 139.1 42.9 143.15 40.35 147.6 40.4 152.15 40.4 154.3 41.25 157.8 42.365625 162.326953125 44.05 166.15 41.1904296875 166.29296875 38.05 166.5 37.6 166.5 37.45 166.75 37.35 167 37.65 167.2 37.9 167.35 38.2 167.35 39.8 167.4 42.05 167.3 42.9494140625 167.2640625 44.5 167.15 46.6474609375 171.609765625 49.6 175.05 50.15 175.6 50.45 175.45 50.75 175.3 50.65 174.9 50.55 174.55 50.3 174.25 47.6388671875 171.253125 45.6 167.05 45.7328125 167.0591796875 45.85 167.05 51.75 166.65 61.15 166.8 73.6 167 76.45 166.95 76.6017578125 166.9466796875 76.75 166.95 76.9375 167.16875 77 167.2 77.45 167.5 77.7 167.15 77.7703125 167.062109375 77.75 166.9 82.25 166.815625 90.1 166.6 90.426171875 167.5337890625 90.85 168.35 91.05 168.75 91.25 168.9 91.6 169.15 91.85 168.9 92.1 168.65 91.8 168 91.4541015625 167.3478515625 91.15 166.6
L 108.55 166.9
Q 120.2 167.1 126 167.75 130.85 168.4 132.9 168.25 134.55 168.2 137.85 167.8 138.45 167.75 141.15 167.75 141.7970703125 167.75 142.35 167.7
L 142.6 167.95
Q 143.1 168.45 143.35 168.15 143.4798828125 167.9767578125 143.35 167.65 143.92734375 167.59453125 144.4 167.5 144.8 167.5 145 167.3 145.35 167 145.05 166.7 144.85 166.5 144.55 166.6 143.5912109375 166.6212890625 142.65 166.65 141.8771484375 165.697265625 140.35 164.3 136.1 160.45 131.65 154.85 128.9 151.4 124 144.5 122.55 142.45 122.15 141.15 121.4 138.5 123.3 134.35 124.55 131.45 126.55 128.45 126.6853515625 128.2759765625 126.75 128.1
L 126.9 128.15 127.05 127.55
Q 127.1115234375 126.9345703125 127.45 126 127.3853515625 125.3330078125 127.3 124.65 126.8 121.3 126.75 120.6 126.75 119 126.65 118.2 126.55 117.3 126.15 115.5 125.95 114.35 125.85 112.35 125.75 109.85 125.7 109.15 125.45 105.35 123.7 103.25 123.55 103.05 123.45 102.95
L 123.65 102.85
Q 124.65 102.4 126.15 102.7 127.05 102.85 128.75 103.25 129.8 103.4 131.85 103.45 133.4 103.6 136.45 104.5 139.55 105.15 145.35 104.65 149.15 104.35 150.55 103.95 151.6 103.7 153.75 103.05 155.45 102.65 158.35 102.35 161.9 102.05 163 101.85 163.55 101.75 166.5 101.15 168.65 100.65 170.05 100.55 172.45 100.35 175.8 100.9 177.6 101.2 178.3 101.55 179.15 101.95 180.85 103.45 182.35 104.85 183.65 105.7 185.7 107 190.5 108.45 192.5 109 193.4 108.75 194 108.6 195.2 107.85 196.4 107 196.85 106.3 197.7 104.75 196.4 101.9 193.75 96.6 189.05 93.35 189.55 93.35 190.55 93.85 193.75 95.25 197.2 95.25 199.8 95.25 201.35 94.45 203.5 93.45 204.2 91.4 204.55 90.25 204.35 88.2 204.25 85.8 203.5 84.6 202.9 83.7 201.45 82.8 198.8 81.15 193.75 79.05 194.7 77.4 195.55 74.85 195.85 73.8 195.75 73.2 195.65 72.05 194.05 70.85 193.7 70.55 193.35 70.35 193.4 70.2 193.35 70 193.3 69.8 193 69.5 192.65 69.15 191.4 68.5 188.5 67.15 186.95 67.3 186.35 67.35 184.85 67.8 184.1 68.1 183.95 68.25
M 190.65 69.3
Q 190.35 69.3 190 69.35 191.85 70.3 193.55 71.7 194.5 72.5 194.7 73.25 194.9 73.9 194.5 74.95 193.95 76.55 193.05 78.2 192.55 78.95 192.75 79.4 192.95 79.75 193.4 79.95 194.15 80.35 197.2 81.75 199.55 82.8 200.9 83.65 202.05 84.35 202.6 85.1 203.2 86 203.4 88.25 203.5 90.35 203.05 91.45 202.3 93.05 200.55 93.7 199.25 94.25 197.15 94.25 194.35 94.15 191.8 93.2 189.6 92.3 188.65 92.4 187.6 92.5 187.65 93.2 187.65 93.6 188.25 94 192.55 97.1 195.2 101.6 196.7 104.3 195.85 105.9 195.55 106.5 194.75 107 193.75 107.7 192.75 107.75 191.95 107.8 190.55 107.4 187.95 106.65 186.6 106.15 184.5 105.3 183.1 104.15 182.75 103.85 181 102.25 179.75 101.1 178.75 100.6 177.6 100.1 175.15 99.8 172.15 99.45 170.3 99.55 168.65 99.6 166.1 100.15 162.7 100.85 161.85 100.95 161.15 101.05 157.55 101.4 154.85 101.7 153.2 102.15 151.15 102.8 150.1 103.05 149.15 103.25 147.25 103.45 146 103.6 144.95 103.7 144.9 103.65 144.85 103.6
L 144.4 103.3
Q 143.6 102.75 143.15 101.6 142.9 100.85 142.7 99.45 142 93.85 141.1 89.2 143.2 89.2 146.35 89.25 150.5 89.25 153.45 89.05 154 89.05 155.1 88.95 157.5 88.75 158.6 88.55 160.3 88.25 162.85 87.35
L 164.95 86.7
Q 165.55 86.45 165.75 86.3
L 166.2 85.55 166.6 84.6
Q 166.65 84.5 166.7 84.3 166.7 84.25 166.75 84.2
L 166.85 83.65
Q 166.85 83.6 166.85 83.55 167.45 78.8 167.15 73.6 166.95 71.3 167.35 70.25 167.8 69.1 168.8 68.25 169.9 67.4 171.3 67.1 172.75 66.75 174.1 67.1 175.4 67.45 176 68.25 176.45 68.9 176.65 70.05 176.95 71.35 176.75 71.95 176.5 72.95 176.75 73.15 176.95 73.35 177.4 73.25 178.85 73.05 180.1 72.45 180.2 72.45 180.3 72.45 180.55 72.45 180.95 72.25 183.15 71.2 184.6 69.05 186.3 68.4 186.95 68.3 188.25 68.2 190.65 69.3
M 97.45 79.8
Q 97.65 79.8 100 80.3 101.5 80.6 102.5 80.45 102.6 80.7 102.85 80.8
L 103.35 80.85
Q 103.9 80.85 104.7 81.1 105.1 81.25 106 81.55
L 107.6 81.9
Q 108.6 82.1 109.15 82.45 109.3 82.55 110.7 83.8 111.05 84.15 112.25 85.05 109.15 86.75 105.85 87.75 103.4 88.6 101.3 88.6 99.85 88.6 99.5 88.8
L 99 89
Q 98.95 89 98.3 88.75 98 88.65 97.45 88.65 97.4953125 88.6046875 97.55 88.5 97.490625 88.6046875 97.4 88.65 97.05 88.85 96.6 88.5 96.05 88.15 94.65 87.55 93.4 87 92.75 86.55 91.5 85.65 89.8 83.05
L 89 81.65
Q 88.55 80.75 87.9 78.55
L 87.55 76.85
Q 90.45 77.45 93.7 78.85 94.75 79.4 95.5 79.55 96.15 79.7 97.45 79.8
M 47.8 40.85
Q 49.2 39.95 50 39.6
L 51.15 39.15
Q 51.65 38.85 52 38.8 52.45 38.75 53 39 53.7 39.35 54.5 40.25 54.95 40.8 55.15 41.25 55.45 42 55.2 43.15 54.95 44.25 53.8 46.6
L 51.75 50.25
Q 51.3 51.05 50.85 51.5 50.15 52.2 50.3 52.6 50.45 53.05 51.4 53.35 51.6 53.5 51.9 53.8 52 53.9 52.1 53.9 52.25 54.15 52.45 54.45 53 55.15 53.35 56.35 53.55 57 53.85 58.35 54.3 59.85 55.25 61.65 56.85 64.9 58.45 67.5 59.25 68.9 59.85 69.4 60.8 70.2 62.7 70.6
L 64.65 70.9
Q 64.95 70.95 66.15 71.45 66.1 71.55 66.05 71.65
L 65.6 72.85
Q 65.25 73.8 64.9 74.45 64.55 75.15 63.6 76.3 62.6 77.5 62.25 78.1
L 61.75 79.05
Q 61.6 79.25 60.7 80.45 59.15 82.35 58 83.65 56.15 82.4 55.25 81.65 52.85 79.65 52.4 79.35
L 51.7 78.8 51.05 78 50.15 77.25
Q 49.5 76.65 48.35 74.9 47.35 73.25 46.45 72.65 45.8 72.2 44.2 71.7
L 32.85 68.25
Q 32.15 68.05 31.8 68.15 31.75 68.15 31.75 68.2 31.7 68.1 31.65 68.05 31.35 67.75 30.8 68 28.45 68.8 27.55 69.85 27.1 70.45 26.75 71.45 26.55 72 26.2 73.15 26.05 73.7 25.8 73.9 25.55 74.15 24.9 74.25 24.3 74.4 23.7 74.4 23.3 74.35 22.75 74.15 22.15 73.9 21.85 73.8
L 19.75 73.2
Q 18.9 72.9 18.45 72.2 18.15 71.85 17.95 71.15 17.85 70.55 17.95 69.9 18.2 68.45 18.3 68.2 18.4 67.75 19 66.6 19.7 65.2 20.2 64.6 20.7 63.95 21.65 63.2 22.75 62.4 23.25 61.95 24.15 61.25 24.65 60.6 25.6 59.55 25.6 58.65 25.55 57.8 24.4 56.45
L 17.55 49.05
Q 16.85 48.35 16.55 47.75 16.2 46.85 15.95 46.45 15.55 45.8 15.6 45.65 15.6 45.45 15.95 45.1 17.2 44 20.3 43 21.7 42.6 21.95 42.6 23.35 42.45 25.65 43.3 26.55 43.6 27 43.85 27.55 44.2 28.25 44.95 29.15 45.8 29.5 46.1 30.1 46.55 30.4 46.3 30.7 46 30.45 45.55
L 29.9 45.05
Q 28.4 43.5 27.5 42.95
L 26.35 42.45
Q 25.8 42.25 25.2 42.05 25.7 40.4 26.1 39.9
L 26.9 39
Q 27.2 38.6 27.3 38.35 27.55 38 27.8 37.85 28.05 37.65 29.4 37.4 29.95 37.35 31 37.15 31.95 37 32.6 37.2 33 37.35 33.75 37.65 34.4 37.85 35.35 37.65 36.15 37.55 36.35 37.6 36.6 37.7 37 38.1
L 39.7 41.05
Q 39.85 41.3 40.15 41.85 40.35 42.1 40.85 42.45 41.35 42.8 41.55 43.05
L 41.9 43.7
Q 42.1 44.1 42.45 44.15 42.75 44.2 43.15 43.9
L 47.8 40.85
M 102.1 104.9
L 102 105.1 101.65 105.6
Q 100.7 106.95 99.9 107.45
L 99.55 107.65
Q 101.25 107.6 102.7 107.75 103.55 107.95 103.75 108.1 104.15 108.4 104.6 109.35 105.1 110.45 105.15 111.05 105.2 112.15 104.55 113.3 103.05 115.95 99.05 117.6 97.55 118.25 96.15 118.4 94.35 118.35 93.4 118.45 91.65 118.75 91.55 118.75
L 90.35 118.85
Q 89.55 118.85 89.2 118.75 88.5 118.6 87.85 118.25 86.15 117.45 85.2 116.05 84.05 114.45 84.4 112.75 84.75 110.95 86.7 109.8 87.9 109.05 90.25 108.5 90.3 108.5 90.35 108.5 90.3 108.45 90.25 108.4
L 90.1 108.3 89.15 107.8
Q 88.55 107.6 88.35 107.4
L 88.2 107.3 87.3 106.85
Q 86.7 106.55 86.5 106.25 86.25 106.1 86 105.8 85.65 105.6 85.5 105.35 85.4 105.1 85.6 104.85 85.7 104.7 85.85 104.7 86.1 104.65 86.6 104.95
L 87.6 105.85
Q 88 106.1 88.75 106.45
L 88.95 106.6 90.35 107.3 90.3 107.2
Q 89.95 104.3 89.95 103.5
L 90.1 101.3
Q 90.1 100.85 90.35 100.7 90.55 100.6 90.75 100.7 90.95 100.8 91.05 101 91.15 101.25 91.05 101.85 90.85 103.4 91.3 107.15
L 91.5 108.25 91.9 109.1
Q 93.15 111.35 95.55 112.3 96.65 111.6 97 110.85 97.2 110.4 97.3 109.35
L 97.35 108.15 96.75 104.25
Q 96.55 102.85 96.25 102.2 95.9 101.5 95.9 101.35 95.85 101.1 96 100.9 96.15 100.65 96.4 100.7 96.7 100.7 97 101.3
L 97.35 102.25
Q 97.6 103 97.7 103.85
L 97.95 105.25
Q 98.15 106.35 98.25 107.25
L 99.75 106.3 100.3 105.65
Q 101.05 104.7 101.8 103.45 102.05 103.1 102.1 103.05 102.35 102.9 102.6 103.05 102.85 103.2 102.85 103.5 102.85 103.75 102.7 103.95
L 102.3 104.65 102.1 104.9
M 45.5 141.05
Q 49.05 136.65 55.3 133.5 59.2 131.55 66.95 129.1 67.058203125 129.0666015625 67.15 129 71.2404296875 128.896484375 73.95 128.5 75.7 128.2 76.45 128.15 77.15 128.05 78.65 128.05 83.15 127.95 85.35 128.3 86.9 128.55 90.05 129.2 91.9 129.45 94.85 129.25
L 102.5 128.95
Q 103.4 128.85 105.4 128.5 107.2 128.15 108.25 128.05 109.8 127.95 112.2 128.15 115.3 128.4 116.1 128.4 117.1 128.4 118.8 128.25 120.75 128.1 121.5 128.1
L 125.55 128.1
Q 125.561328125 128.1244140625 125.55 128.15 123.8 130.85 122.45 133.75 120.4 138.2 121.05 141 121.45 142.75 123.55 145.65
L 127.7 151.3
Q 131.1 155.8 131.8 156.65 134.35 159.75 140.85 166.25
L 141.3 166.7
Q 138.6724609375 166.7931640625 136.35 166.95 132.65 167.3 131.4 167.25 130.2 167.25 126.25 166.8 120.3 166.1 108.35 165.9
L 91.2 165.65
Q 91.0267578125 165.65 90.8 165.65 89.98515625 162.9783203125 89.85 159.4 89.75 158.15 89.75 155.6 89.75 154.1 89.55 153.4 89 152.2 88.85 151.55 88.65 150.8 88.65 149.25 88.65 147.4 88.8 146.5 89.46015625 144.4755859375 89.55 143.3 90.733984375 143.581640625 92.1 143.65 92.7 143.65 92.85 143.3 92.95 142.9 92.55 142.7 92.3 142.6 91.8 142.6 89.95 142.5 88.45 141.95 87.1 141.4 86.65 141.25 85.75 141 84.1 140.95 82.25 140.85 81.5 140.7 80.65 140.45 80.2 140.4 79.85 140.3 79.25 140.3 78.55 140.3 78.25 140.25
L 77.5 140.2
Q 76.95 140.3 77.05 140.7 77.05 141 77.4 141.15
L 77.95 141.25
Q 78.9798828125 141.285546875 80.65 141.55 80.376171875 141.6580078125 79.8 141.85 79.15 142.05 78.75 142.3 78.4 142.55 77.5 143.55 75.9 145.6 75.5 146.6
L 75 148.35
Q 74.75 149.1 74.2 150.65 73.9 151.75 73.8 153.45 73.8 154.4 73.7 156.3 73.65 157.15 73.45 158.9 73.4 160.4 73.7 161.45 73.95 162.1 74.5 163 74.8 163.55 75.45 164.55 75.568359375 164.7078125 76.15 165.9 70.098046875 165.983203125 66.15 165.9
L 60.25 165.75
Q 54.052734375 165.64140625 45.15 166.1 43.565234375 162.542578125 42.4 158.2 41.45 154.7 41.4 152.55 41.2 146.45 45.5 141.05
M 77.1 145.8
L 78.15 144.45
Q 78.75 143.55 79.15 143.25 79.65 142.85 80.4 142.7
L 81.8 142.25
Q 82.3 142.05 82.35 141.85
L 82.35 141.8
Q 83.18359375 141.9115234375 84.6 142 86.05 142.15 87 142.45
L 88.55 143
Q 88.5966796875 143.0166015625 88.65 143 87.6486328125 146.2845703125 87.6 149.3 87.6 151.05 87.9 151.9 88.1 152.55 88.65 153.9 88.75 154.35 88.75 155.3 88.8 159.9 89.05 162 89.2888671875 163.9908203125 89.75 165.65 86.346484375 165.6890625 78.7 165.85 78.025 165.862890625 77.35 165.85
L 75.7 163.1
Q 74.85 161.75 74.7 161.15 74.35 160.05 74.45 158.45 74.7 156.6 74.75 155.65
L 74.8 153.2
Q 74.9 151.75 75.95 148.35 76.6 146.45 77.1 145.8
M 103.2 109
L 102.55 108.8
Q 100.7 108.5 98.7 108.75 98.5 108.8 98.3 108.8 98.3 109.75 98.15 110.45 97.95 111.35 97.6 111.85 97.2 112.5 96.15 113.15 95.8 113.4 95.6 113.4 95.45 113.45 94.85 113.2 92.05 111.7 90.95 109.55 90.9 109.5 90.9 109.4 90.75 109.45 90.6 109.5 88 110.15 87.1 110.75 85.2 112.1 85.35 113.85 85.4 114.9 86.3 115.85 87 116.6 88.1 117.2
L 89.25 117.75
Q 90.05 117.95 91.25 117.75 91.9 117.65 93.2 117.45 94.15 117.35 96.05 117.4 97.2 117.3 98.85 116.55 102.4 115 103.6 112.9 104.1 112.05 104.1 111.3 104.1 110.7 103.7 109.8 103.5 109.25 103.2 109 Z"/>

<path fill="#FFFFFF" stroke="none" d="
M 55.3 133.5
Q 49.05 136.65 45.5 141.05 41.2 146.45 41.4 152.55 41.45 154.7 42.4 158.2 43.565234375 162.542578125 45.15 166.1 54.052734375 165.64140625 60.25 165.75
L 66.15 165.9
Q 70.098046875 165.983203125 76.15 165.9 75.568359375 164.7078125 75.45 164.55 74.8 163.55 74.5 163 73.95 162.1 73.7 161.45 73.4 160.4 73.45 158.9 73.65 157.15 73.7 156.3 73.8 154.4 73.8 153.45 73.9 151.75 74.2 150.65 74.75 149.1 75 148.35
L 75.5 146.6
Q 75.9 145.6 77.5 143.55 78.4 142.55 78.75 142.3 79.15 142.05 79.8 141.85 80.376171875 141.6580078125 80.65 141.55 78.9798828125 141.285546875 77.95 141.25
L 77.4 141.15
Q 77.05 141 77.05 140.7 76.95 140.3 77.5 140.2
L 78.25 140.25
Q 78.55 140.3 79.25 140.3 79.85 140.3 80.2 140.4 80.65 140.45 81.5 140.7 82.25 140.85 84.1 140.95 85.75 141 86.65 141.25 87.1 141.4 88.45 141.95 89.95 142.5 91.8 142.6 92.3 142.6 92.55 142.7 92.95 142.9 92.85 143.3 92.7 143.65 92.1 143.65 90.733984375 143.581640625 89.55 143.3 89.46015625 144.4755859375 88.8 146.5 88.65 147.4 88.65 149.25 88.65 150.8 88.85 151.55 89 152.2 89.55 153.4 89.75 154.1 89.75 155.6 89.75 158.15 89.85 159.4 89.98515625 162.9783203125 90.8 165.65 91.0267578125 165.65 91.2 165.65
L 108.35 165.9
Q 120.3 166.1 126.25 166.8 130.2 167.25 131.4 167.25 132.65 167.3 136.35 166.95 138.6724609375 166.7931640625 141.3 166.7
L 140.85 166.25
Q 134.35 159.75 131.8 156.65 131.1 155.8 127.7 151.3
L 123.55 145.65
Q 121.45 142.75 121.05 141 120.4 138.2 122.45 133.75 123.8 130.85 125.55 128.15 125.561328125 128.1244140625 125.55 128.1
L 121.5 128.1
Q 120.75 128.1 118.8 128.25 117.1 128.4 116.1 128.4 115.3 128.4 112.2 128.15 109.8 127.95 108.25 128.05 107.2 128.15 105.4 128.5 103.4 128.85 102.5 128.95
L 94.85 129.25
Q 91.9 129.45 90.05 129.2 86.9 128.55 85.35 128.3 83.15 127.95 78.65 128.05 77.15 128.05 76.45 128.15 75.7 128.2 73.95 128.5 71.2404296875 128.896484375 67.15 129 67.058203125 129.0666015625 66.95 129.1 59.2 131.55 55.3 133.5
M 102 105.1
L 102.1 104.9 102.3 104.65 102.7 103.95
Q 102.85 103.75 102.85 103.5 102.85 103.2 102.6 103.05 102.35 102.9 102.1 103.05 102.05 103.1 101.8 103.45 101.05 104.7 100.3 105.65
L 99.75 106.3 98.25 107.25
Q 98.15 106.35 97.95 105.25
L 97.7 103.85
Q 97.6 103 97.35 102.25
L 97 101.3
Q 96.7 100.7 96.4 100.7 96.15 100.65 96 100.9 95.85 101.1 95.9 101.35 95.9 101.5 96.25 102.2 96.55 102.85 96.75 104.25
L 97.35 108.15 97.3 109.35
Q 97.2 110.4 97 110.85 96.65 111.6 95.55 112.3 93.15 111.35 91.9 109.1
L 91.5 108.25 91.3 107.15
Q 90.85 103.4 91.05 101.85 91.15 101.25 91.05 101 90.95 100.8 90.75 100.7 90.55 100.6 90.35 100.7 90.1 100.85 90.1 101.3
L 89.95 103.5
Q 89.95 104.3 90.3 107.2
L 90.35 107.3 88.95 106.6 88.75 106.45
Q 88 106.1 87.6 105.85
L 86.6 104.95
Q 86.1 104.65 85.85 104.7 85.7 104.7 85.6 104.85 85.4 105.1 85.5 105.35 85.65 105.6 86 105.8 86.25 106.1 86.5 106.25 86.7 106.55 87.3 106.85
L 88.2 107.3 88.35 107.4
Q 88.55 107.6 89.15 107.8
L 90.1 108.3 90.25 108.4
Q 90.3 108.45 90.35 108.5 90.3 108.5 90.25 108.5 87.9 109.05 86.7 109.8 84.75 110.95 84.4 112.75 84.05 114.45 85.2 116.05 86.15 117.45 87.85 118.25 88.5 118.6 89.2 118.75 89.55 118.85 90.35 118.85
L 91.55 118.75
Q 91.65 118.75 93.4 118.45 94.35 118.35 96.15 118.4 97.55 118.25 99.05 117.6 103.05 115.95 104.55 113.3 105.2 112.15 105.15 111.05 105.1 110.45 104.6 109.35 104.15 108.4 103.75 108.1 103.55 107.95 102.7 107.75 101.25 107.6 99.55 107.65
L 99.9 107.45
Q 100.7 106.95 101.65 105.6
L 102 105.1
M 102.55 108.8
L 103.2 109
Q 103.5 109.25 103.7 109.8 104.1 110.7 104.1 111.3 104.1 112.05 103.6 112.9 102.4 115 98.85 116.55 97.2 117.3 96.05 117.4 94.15 117.35 93.2 117.45 91.9 117.65 91.25 117.75 90.05 117.95 89.25 117.75
L 88.1 117.2
Q 87 116.6 86.3 115.85 85.4 114.9 85.35 113.85 85.2 112.1 87.1 110.75 88 110.15 90.6 109.5 90.75 109.45 90.9 109.4 90.9 109.5 90.95 109.55 92.05 111.7 94.85 113.2 95.45 113.45 95.6 113.4 95.8 113.4 96.15 113.15 97.2 112.5 97.6 111.85 97.95 111.35 98.15 110.45 98.3 109.75 98.3 108.8 98.5 108.8 98.7 108.75 100.7 108.5 102.55 108.8
M 50 39.6
Q 49.2 39.95 47.8 40.85
L 43.15 43.9
Q 42.75 44.2 42.45 44.15 42.1 44.1 41.9 43.7
L 41.55 43.05
Q 41.35 42.8 40.85 42.45 40.35 42.1 40.15 41.85 39.85 41.3 39.7 41.05
L 37 38.1
Q 36.6 37.7 36.35 37.6 36.15 37.55 35.35 37.65 34.4 37.85 33.75 37.65 33 37.35 32.6 37.2 31.95 37 31 37.15 29.95 37.35 29.4 37.4 28.05 37.65 27.8 37.85 27.55 38 27.3 38.35 27.2 38.6 26.9 39
L 26.1 39.9
Q 25.7 40.4 25.2 42.05 25.8 42.25 26.35 42.45
L 27.5 42.95
Q 28.4 43.5 29.9 45.05
L 30.45 45.55
Q 30.7 46 30.4 46.3 30.1 46.55 29.5 46.1 29.15 45.8 28.25 44.95 27.55 44.2 27 43.85 26.55 43.6 25.65 43.3 23.35 42.45 21.95 42.6 21.7 42.6 20.3 43 17.2 44 15.95 45.1 15.6 45.45 15.6 45.65 15.55 45.8 15.95 46.45 16.2 46.85 16.55 47.75 16.85 48.35 17.55 49.05
L 24.4 56.45
Q 25.55 57.8 25.6 58.65 25.6 59.55 24.65 60.6 24.15 61.25 23.25 61.95 22.75 62.4 21.65 63.2 20.7 63.95 20.2 64.6 19.7 65.2 19 66.6 18.4 67.75 18.3 68.2 18.2 68.45 17.95 69.9 17.85 70.55 17.95 71.15 18.15 71.85 18.45 72.2 18.9 72.9 19.75 73.2
L 21.85 73.8
Q 22.15 73.9 22.75 74.15 23.3 74.35 23.7 74.4 24.3 74.4 24.9 74.25 25.55 74.15 25.8 73.9 26.05 73.7 26.2 73.15 26.55 72 26.75 71.45 27.1 70.45 27.55 69.85 28.45 68.8 30.8 68 31.35 67.75 31.65 68.05 31.7 68.1 31.75 68.2 31.75 68.15 31.8 68.15 32.15 68.05 32.85 68.25
L 44.2 71.7
Q 45.8 72.2 46.45 72.65 47.35 73.25 48.35 74.9 49.5 76.65 50.15 77.25
L 51.05 78 51.7 78.8 52.4 79.35
Q 52.85 79.65 55.25 81.65 56.15 82.4 58 83.65 59.15 82.35 60.7 80.45 61.6 79.25 61.75 79.05
L 62.25 78.1
Q 62.6 77.5 63.6 76.3 64.55 75.15 64.9 74.45 65.25 73.8 65.6 72.85
L 66.05 71.65
Q 66.1 71.55 66.15 71.45 64.95 70.95 64.65 70.9
L 62.7 70.6
Q 60.8 70.2 59.85 69.4 59.25 68.9 58.45 67.5 56.85 64.9 55.25 61.65 54.3 59.85 53.85 58.35 53.55 57 53.35 56.35 53 55.15 52.45 54.45 52.25 54.15 52.1 53.9 52 53.9 51.9 53.8 51.6 53.5 51.4 53.35 50.45 53.05 50.3 52.6 50.15 52.2 50.85 51.5 51.3 51.05 51.75 50.25
L 53.8 46.6
Q 54.95 44.25 55.2 43.15 55.45 42 55.15 41.25 54.95 40.8 54.5 40.25 53.7 39.35 53 39 52.45 38.75 52 38.8 51.65 38.85 51.15 39.15
L 50 39.6
M 100 80.3
Q 97.65 79.8 97.45 79.8 96.15 79.7 95.5 79.55 94.75 79.4 93.7 78.85 90.45 77.45 87.55 76.85
L 87.9 78.55
Q 88.55 80.75 89 81.65
L 89.8 83.05
Q 91.5 85.65 92.75 86.55 93.4 87 94.65 87.55 96.05 88.15 96.6 88.5 97.05 88.85 97.4 88.65 97.490625 88.6046875 97.55 88.5 97.4953125 88.6046875 97.45 88.65 98 88.65 98.3 88.75 98.95 89 99 89
L 99.5 88.8
Q 99.85 88.6 101.3 88.6 103.4 88.6 105.85 87.75 109.15 86.75 112.25 85.05 111.05 84.15 110.7 83.8 109.3 82.55 109.15 82.45 108.6 82.1 107.6 81.9
L 106 81.55
Q 105.1 81.25 104.7 81.1 103.9 80.85 103.35 80.85
L 102.85 80.8
Q 102.6 80.7 102.5 80.45 101.5 80.6 100 80.3
M 190 69.35
Q 190.35 69.3 190.65 69.3 188.25 68.2 186.95 68.3 186.3 68.4 184.6 69.05 183.15 71.2 180.95 72.25 180.55 72.45 180.3 72.45 180.2 72.45 180.1 72.45 178.85 73.05 177.4 73.25 176.95 73.35 176.75 73.15 176.5 72.95 176.75 71.95 176.95 71.35 176.65 70.05 176.45 68.9 176 68.25 175.4 67.45 174.1 67.1 172.75 66.75 171.3 67.1 169.9 67.4 168.8 68.25 167.8 69.1 167.35 70.25 166.95 71.3 167.15 73.6 167.45 78.8 166.85 83.55 166.85 83.6 166.85 83.65
L 166.75 84.2
Q 166.7 84.25 166.7 84.3 166.65 84.5 166.6 84.6
L 166.2 85.55 165.75 86.3
Q 165.55 86.45 164.95 86.7
L 162.85 87.35
Q 160.3 88.25 158.6 88.55 157.5 88.75 155.1 88.95 154 89.05 153.45 89.05 150.5 89.25 146.35 89.25 143.2 89.2 141.1 89.2 142 93.85 142.7 99.45 142.9 100.85 143.15 101.6 143.6 102.75 144.4 103.3
L 144.85 103.6
Q 144.9 103.65 144.95 103.7 146 103.6 147.25 103.45 149.15 103.25 150.1 103.05 151.15 102.8 153.2 102.15 154.85 101.7 157.55 101.4 161.15 101.05 161.85 100.95 162.7 100.85 166.1 100.15 168.65 99.6 170.3 99.55 172.15 99.45 175.15 99.8 177.6 100.1 178.75 100.6 179.75 101.1 181 102.25 182.75 103.85 183.1 104.15 184.5 105.3 186.6 106.15 187.95 106.65 190.55 107.4 191.95 107.8 192.75 107.75 193.75 107.7 194.75 107 195.55 106.5 195.85 105.9 196.7 104.3 195.2 101.6 192.55 97.1 188.25 94 187.65 93.6 187.65 93.2 187.6 92.5 188.65 92.4 189.6 92.3 191.8 93.2 194.35 94.15 197.15 94.25 199.25 94.25 200.55 93.7 202.3 93.05 203.05 91.45 203.5 90.35 203.4 88.25 203.2 86 202.6 85.1 202.05 84.35 200.9 83.65 199.55 82.8 197.2 81.75 194.15 80.35 193.4 79.95 192.95 79.75 192.75 79.4 192.55 78.95 193.05 78.2 193.95 76.55 194.5 74.95 194.9 73.9 194.7 73.25 194.5 72.5 193.55 71.7 191.85 70.3 190 69.35 Z"/>
</g>

<g id="face_5_Layer1_0_MEMBER_0_FILL">
<path fill="#000000" stroke="none" d="
M 192.1 56
L 175.65 53.95 155.1 55
Q 140.55 54.15 127.4 58.25 114.8 61.95 98.15 71.95 85.4 79.6 74.05 94.2 68.55 101.5 65.5 107.2 61.45 113.7 57.4 125.85 49.1 150.35 48.55 180.15 48.55 181.25 38.55 191.15 28.5 201.15 28.5 202.15
L 36.25 201.35 45.7 199
Q 44 230.95 29.35 251.5 22.35 261.55 16.85 265.25 29 265.35 37.7 261 42.05 258.95 44.05 256.75 41.5 264.5 28.25 274.8
L 17.25 283.3
Q 28.45 284.75 39 281.9 48.85 279.3 56.75 273.3 65.75 325.7 85.05 339.75 86.05 340.45 85.9 336.75
L 85.4 331.3 91.15 337.8
Q 97.7 344.5 106.5 348.25
L 114 355.65 122.9 366.25
Q 136.2 382 145.3 388.75 154.7 395.75 163.15 395.75 171 395.6 183.1 386.5
L 198.15 373.3 208.5 362.75 221.6 348.5
Q 229.9 344.75 236.1 336.75 240.15 329.9 240.3 330.65 240.7 332.25 239.85 336.5 238.8 341.6 238.8 343.8 246.85 338.45 252.5 329.8
L 256.6 322.3 257.85 327.25
Q 258.65 330.75 259.5 332.15 264.9 323.25 270.35 311.5 281.55 287.8 283.2 270.75 284.95 251.4 282.7 238.65 279.5 225.3 278.5 215.15 284.3 223.65 293.5 229.65 301.9 235.15 301.7 232.65
L 287.1 194.9
Q 281.85 179.45 280.35 161.7 276.6 136.55 274.35 128 271 114.95 262.85 100.35 257.3 90.1 250 82.6 240.4 72.85 226.85 66.6 211.45 59.5 192.1 56 Z"/>
</g>

<g id="face_5_Layer1_0_MEMBER_1_FILL">
<path fill="#FFFFFF" stroke="none" d="
M 170.3 161.85
Q 180.05 150.95 175.6 153.65 146.85 170.85 112.55 180.2 95 185.1 83.65 186.4 81.95 207.3 81.9 214.85 81.75 221.5 82.9 233.85 83.6 242.2 86.05 251
L 89.8 263.25
Q 92.75 273.7 93.5 293.5 94.25 314.4 96 322.4 99.2 337.45 113.05 350.9 120.05 357.6 131.85 367.15
L 144.5 380.75
Q 154.35 389.8 163.6 389.8 170.05 389.8 178.6 383.4
L 190.6 372.9
Q 205.45 362.15 213.5 355.3 227.8 343.1 231.6 328 233.5 320.35 234.15 296.8 234.65 276.4 240.35 260.9 244.8 248.95 246.3 240.2
L 246.85 233.7
Q 248.35 220.5 248.85 191
L 249.15 163.65
Q 249.15 141.3 241.15 145.4 209.35 162.1 180.5 170.9 155.7 178.4 158.15 175
L 170.3 161.85 Z"/>
</g>

<g id="face_5_Layer1_0_MEMBER_2_FILL">
<path fill="#FFFFFF" stroke="none" d="
M 75.05 221.7
Q 72.95 222.45 72.3 224 69.15 230.5 80.3 249.35
L 75.05 221.7 Z"/>
</g>

<g id="face_5_Layer1_0_MEMBER_3_FILL">
<path fill="#FFFFFF" stroke="none" d="
M 69.5 209.85
Q 65.4 207.4 65 220.5
L 66.65 230.7
Q 68.95 242.15 71 246.85 73.1 251.75 78.15 257.4
L 83 262.15 80.8 252
Q 76.45 245.1 73.8 238.7 69.3 228.15 71.4 223.65 72.35 221.55 74.9 220.7
L 73.5 214.7
Q 71.5 210.85 69.5 209.85 Z"/>
</g>

<g id="face_5_Layer1_0_MEMBER_4_FILL">
<path fill="#FFFFFF" stroke="none" d="
M 257 224
Q 256.2 222.4 254.15 221.7
L 249 249.35
Q 259.85 230.25 257 224 Z"/>
</g>

<g id="face_5_Layer1_0_MEMBER_5_FILL">
<path fill="#FFFFFF" stroke="none" d="
M 254.35 220.7
Q 257.85 221.85 258.35 225.4 259.2 230.45 254.85 240.15 251.6 247.5 248.35 252.2
L 246.3 262.15 251 257.4
Q 256.1 251.85 258.25 246.85 261.6 239.05 264.25 220.5 263.85 207.4 259.75 209.85
L 255.8 214.7 254.35 220.7 Z"/>
</g>

<g id="face_5_Layer1_0_MEMBER_6_FILL">
<path fill="#000000" stroke="none" d="
M 155.85 314.4
Q 146.05 309.9 141.1 309.15 139.05 309 121.15 321.65 102.65 334.75 96.15 336 99.65 347.45 101.4 350.5 104.5 356.1 113.3 364.3 121.2 371.85 136.8 374.15
L 189.3 375.8
Q 203.05 375 212 368.75 223.35 360.55 227.1 351 229 345.9 228.85 338.4 224.95 338.55 210.35 325.4 195.3 311.8 189.8 310.9 184.75 311.35 176.35 314.9 168.25 318.4 167.1 318.4 164.95 318.4 155.85 314.4 Z"/>
</g>

<g id="face_5_Layer1_0_MEMBER_7_FILL">
<path fill="#FFFFFF" stroke="none" d="
M 122.65 362.4
Q 130.1 366.55 143.8 367.5 148.75 367.9 165.3 367.65
L 184.15 368.5
Q 195.45 368.5 201.15 366.3 220.15 359.05 222.65 345.15 206.55 343.65 199.15 348.65 195.8 348.9 187.1 348.4
L 167.3 347.8 134.35 347.65
Q 130.65 345.05 125.9 344.3
L 104.65 342.9
Q 107.85 350.35 111.5 354.3 115.35 358.4 122.65 362.4 Z"/>
</g>

<g id="face_5_Layer1_0_MEMBER_8_FILL">
<path fill="#FFFFFF" stroke="none" d="
M 141.15 316.65
Q 137.4 318.2 126.05 325.65
L 106.55 337.3 117.5 337.9
Q 130.5 337.9 140.6 334.75
L 153.8 330.8
Q 160.8 329.1 166.85 329.25 174.25 329.35 179.6 331.25
L 188.6 335.25
Q 195.35 338.5 202 339.4
L 218.8 339.9
Q 213.55 336.45 204.8 328.3 196.1 320.4 193.1 318.25 189.05 315.6 183 318.3
L 174 323.4
Q 169 326.15 161.6 322.9 153.95 319.15 151 317.9 144.5 315.25 141.15 316.65 Z"/>
</g>

<g id="face_5_Layer1_0_MEMBER_9_FILL">
<path fill="#FFFFFF" stroke="none" d="
M 142.1 341.25
Q 139.1 341.75 144.8 341.65
L 165.65 341.65 185 342.75
Q 191.2 343.2 189.6 342.75 186.5 342.05 179 338.8 172.85 336.25 166.3 336.25 159.25 336.25 152.65 338.25
L 142.1 341.25 Z"/>
</g>

<g id="face_5_Layer1_0_MEMBER_10_FILL">
<path fill="#FFFFFF" stroke="none" d="
M 158.1 303.4
L 161.65 333.3 171.1 333.5 172.5 305.9 158.1 303.4 Z"/>
</g>

<g id="face_5_Layer1_0_MEMBER_11_FILL">
<path fill="#000000" stroke="none" d="
M 157.1 234.35
L 150.6 234.15 153.3 247.5
Q 156.1 263.5 156.15 276.15
L 156.1 295.15 152 296.8
Q 148 299.7 149.1 305.15 149.8 309.2 153.8 317.3 158.25 326.45 158.65 328.15
L 160.15 333.5 160.5 337.75 173.6 338
Q 174.2 321.55 176.65 317.25 179.6 312.1 179.5 305.15 179.35 297 174.15 295.5
L 177.85 244.7 178 233.4 172.6 234.65 172.85 251.9 170.3 316.4
Q 169.85 331.5 170.1 333.3
L 163.6 333
Q 161 309.8 161 306.8 160.7 264.95 159.1 254.2
L 157.1 234.35 Z"/>
</g>

<g id="face_5_Layer1_0_MEMBER_12_FILL">
<path fill="#FFFFFF" stroke="none" d="
M 157.5 314.9
L 156.3 300
Q 151.65 300 154 308.3 155 311.6 157.5 314.9 Z"/>
</g>

<g id="face_5_Layer1_0_MEMBER_13_FILL">
<path fill="#000000" stroke="none" d="
M 227.6 213.9
Q 218.05 205.2 204.85 205.2 191.9 205.2 182.15 213.9 172.6 222.75 172.6 234.65 172.7 246.9 182.3 255.35 191.75 263.65 204.85 263.65 217.75 263.65 226.35 255.5 234.9 247.55 236.1 234.9 237.25 222.85 227.6 213.9 Z"/>
</g>

<g id="face_5_Layer1_0_MEMBER_14_FILL">
<path fill="#FFFFFF" stroke="none" d="
M 223.3 213.85
Q 215.3 206 204.3 206 193.25 206 185.3 213.85 177.3 221.7 177.3 232.7 177.3 243.75 185.3 251.4 193.2 259.15 204.3 259.15 215.3 259.15 223.3 251.4 231.15 243.65 231.15 232.65 231.15 221.55 223.3 213.85 Z"/>
</g>

<g id="face_5_Layer1_0_MEMBER_15_FILL">
<path fill="#000000" stroke="none" d="
M 145.15 212.7
Q 136 204 122.9 204 109.95 204 100.55 212.7 91.4 221.4 91.4 233.7 91.4 246 100.55 254.7 109.95 263.4 122.9 263.4 136 263.4 145.15 254.7 154.35 246 154.35 233.7 154.35 221.4 145.15 212.7 Z"/>
</g>

<g id="face_5_Layer1_0_MEMBER_16_FILL">
<path fill="#FFFFFF" stroke="none" d="
M 141.65 213.9
Q 134 206.15 122.8 206.15 111.75 206.15 103.9 213.9 96.05 221.75 96.05 232.65 96.05 243.55 103.9 251.15 111.8 258.8 122.8 258.8 133.95 258.8 141.65 251.15 149.5 243.45 149.5 232.65 149.5 221.7 141.65 213.9 Z"/>
</g>

<g id="head_0_Layer1_1_FILL">
<path fill="#000000" stroke="none" d="
M 227.6 213.9
Q 218.15 205.2 205 205.2 191.85 205.2 182.3 213.9 172.6 222.8 172.6 234.5 172.6 246.9 182.3 255.4 191.7 263.65 205 263.65 217.65 263.65 226.5 255.5 235.05 247.5 236.1 234.9 237.35 223.05 227.6 213.9 Z"/>
</g>

<g id="head_0_Layer1_2_FILL">
<path fill="#FFFFFF" stroke="none" d="
M 223.35 213.7
Q 215.5 205.9 204.35 205.9 193.3 205.9 185.3 213.9 177.3 221.6 177.3 232.7 177.3 243.85 185.3 251.4 193.2 259.15 204.35 259.15 215.55 259.15 223.35 251.4 231.1 243.6 231.1 232.65 231.1 221.75 223.35 213.7 Z"/>
</g>

<g id="head_0_Layer1_3_FILL">
<path fill="#000000" stroke="none" d="
M 215.1 245.65
Q 219.5 241.55 219.5 235.4 219.5 229.6 215.1 225.2 210.75 221 204.6 221 198.5 221 194.3 225.2 189.85 229.6 189.85 235.4 189.85 241.6 194.3 245.65 198.35 249.7 204.6 249.7 211 249.7 215.1 245.65 Z"/>
</g>

<g id="head_0_Layer1_4_FILL">
<path fill="#000000" stroke="none" d="
M 145.15 212.65
Q 135.85 203.9 123 203.9 110.25 203.9 100.65 212.65 91.5 221.2 91.5 233.65 91.5 246.15 100.65 254.7 109.9 263.4 123 263.4 136.1 263.4 145.15 254.7 154.5 245.95 154.5 233.65 154.5 221.3 145.15 212.65 Z"/>
</g>

<g id="head_0_Layer1_5_FILL">
<path fill="#FFFFFF" stroke="none" d="
M 141.65 213.9
Q 134 206.15 122.9 206.15 111.7 206.15 104 213.9 96.15 221.45 96.15 232.65 96.15 243.7 104 251.15 111.75 258.75 122.9 258.75 134 258.75 141.65 251.15 149.5 243.7 149.5 232.65 149.5 221.45 141.65 213.9 Z"/>
</g>

<g id="head_0_Layer1_6_FILL">
<path fill="#000000" stroke="none" d="
M 132.5 245.5
Q 136.85 241.3 136.85 235.4 136.85 229.55 132.5 225.2 128.25 221.15 122.15 221.15 116.1 221.15 111.65 225.2 107.5 229.45 107.5 235.4 107.5 241.3 111.65 245.5 115.85 249.7 122.15 249.7 128.45 249.7 132.5 245.5 Z"/>
</g>

<g id="forward_eyes_3_Layer0_0_FILL">
<path fill="#000000" stroke="none" d="
M 227.85 213.85
Q 218.5 205.15 205.1 205.15 191.95 205.15 182.35 213.85 172.8 222.65 172.8 234.5 172.9 245.95 184.5 253.5 194.55 260.15 205.35 260.15 218.65 260.15 226.8 253.7 235.05 247.15 236.35 234.85 237.55 222.8 227.85 213.85 Z"/>
</g>

<g id="forward_eyes_3_Layer0_1_FILL">
<path fill="#FFFFFF" stroke="none" d="
M 223.5 213.7
Q 215.55 205.9 204.5 205.9 193.4 205.9 185.5 213.7 177.5 221.65 177.5 232.65 177.5 243.65 185.5 251.35 193.4 259 204.5 259 215.55 259 223.5 251.35 231.35 243.6 231.35 232.5 231.35 221.5 223.5 213.7 Z"/>
</g>

<g id="forward_eyes_3_Layer0_2_FILL">
<path fill="#000000" stroke="none" d="
M 215.35 245.5
Q 219.65 241.35 219.65 235.4 219.65 229.35 215.35 225.2 211 220.9 204.85 220.9 198.8 220.9 194.35 225.2 190.1 229.4 190.1 235.4 190.1 241.35 194.35 245.5 198.7 249.7 204.85 249.7 211.1 249.7 215.35 245.5 Z"/>
</g>

<g id="forward_eyes_3_Layer0_3_FILL">
<path fill="#000000" stroke="none" d="
M 236.3 220
Q 228.35 203.45 208 203.35 185.35 203.2 176.8 218.9 172.6 226.8 172.8 234.5
L 173.65 238.85
Q 175.05 243.9 177.8 248.35 186.35 262 204.85 262 224.05 262 233.85 249.35 238.85 243.05 240 236.65 240.15 228.4 236.3 220 Z"/>
</g>

<g id="forward_eyes_3_Layer0_4_FILL">
<path fill="#FFFFFF" stroke="none" d="
M 229.5 241.2
Q 234 236.3 235.5 231.4 234.75 225.4 231.1 219.35 223.65 207.3 208.15 206.9 190.3 206.55 181.8 218.4 177.5 224.5 177 230.4
L 177.8 233.5
Q 179.1 237.35 181.5 240.4 189.15 250.4 205.35 250.65 220.5 250.95 229.5 241.2 Z"/>
</g>

<g id="forward_eyes_3_Layer0_5_FILL">
<path fill="#000000" stroke="none" d="
M 145.35 212.65
Q 136.15 203.9 123.05 203.9 110.15 203.9 100.8 212.65 91.55 221.3 91.55 233.65 91.55 245.4 101.55 253.15 111 260.35 123.5 260.25 137.5 260.1 146 253 154.6 245.75 154.6 233.65 154.6 221.3 145.35 212.65 Z"/>
</g>

<g id="forward_eyes_3_Layer0_6_FILL">
<path fill="#FFFFFF" stroke="none" d="
M 141.85 213.85
Q 134 206 123 206 112.05 206 104.05 213.85 96.3 221.6 96.3 232.5 96.3 243 104.05 249 111.4 254.7 123 254.7 134.65 254.7 141.85 249 149.65 243.05 149.65 232.5 149.65 221.45 141.85 213.85 Z"/>
</g>

<g id="forward_eyes_3_Layer0_7_FILL">
<path fill="#000000" stroke="none" d="
M 122.3 245.65
Q 137 245.65 137 235.35 137 229.4 132.65 225.2 128.4 221.15 122.3 221.15 116.2 221.15 111.9 225.2 107.55 229.4 107.55 235.35 107.55 245.65 122.3 245.65 Z"/>
</g>

<g id="forward_eyes_3_Layer0_8_FILL">
<path fill="#000000" stroke="none" d="
M 153 219.9
Q 144.45 203.35 124.4 203.35 103.7 203.35 95.55 218.9 91.5 226.65 91.55 234.4
L 99.4 245.15
Q 109.75 255.95 122.55 256 137.1 256.15 148.8 246.35 154.65 241.35 157.5 236.5 157.3 228.2 153 219.9 Z"/>
</g>

<g id="forward_eyes_3_Layer0_9_FILL">
<path fill="#FFFFFF" stroke="none" d="
M 148.1 218.9
Q 140.1 206.95 125.3 206.85 109.1 206.7 100.9 218.2 96.75 223.95 96 229.65
L 96.9 232.65
Q 98.2 236.25 100.5 239.35 108 249 122.65 249.15 137.1 249.25 146.6 240.15 151.45 235.45 153.15 230.9 152.2 224.95 148.1 218.9 Z"/>
</g>

<g id="eyebrows_8_Layer0_0_FILL">
<path fill="#000000" stroke="none" d="
M 153.1 194.4
L 136.65 193.85
Q 117.55 194.6 103.5 202.15
L 103.05 204.85
Q 93.7 207.7 86.8 208.2
L 81.5 208.2 81.4 212 88.9 212
Q 98.1 211.55 108 208.65 121.35 204.65 139 205.7 148.3 206.4 153.8 207.65
L 153.1 194.4 Z"/>
</g>

<g id="eyebrows_8_Layer0_1_FILL">
<path fill="#000000" stroke="none" d="
M 190.15 185.65
L 176.8 189.35 176.6 203.15
Q 200.45 191.5 228.35 195.5 242.35 197.55 251.5 201.85
L 250.85 197.5
Q 242.35 193.75 233.8 191.2
L 226.3 189.2 225.6 186.15
Q 207.25 182.7 190.15 185.65 Z"/>
</g>

<g id="Layer1_0_FILL">
<path fill="#000000" stroke="none" d="
M 174.55 28
Q 174.25 26.9 173.65 26.55 172.65 25.85 171.4 26.85 170.3 28 169.7 28.55 169.2 29.05 168.7 29.05 168.35 29.05 167.7 28.5
L 160.1 21.75
Q 156.4 18.45 154.05 17.35 153.3 17 151.9 16.5 150.3 15.95 149.7 15.7 149.15 15.45 146.5 14.1 144.5 13.1 143.15 12.8 141.55 12.35 138.7 12.45 132.05 12.55 129.85 12.3 125.6 11.55 123.45 11.35 121.05 11.1 117.35 11.2 111.45 11.4 108.5 11.7 105.75 12 100.55 13 95.15 14 92.55 14.3 86.8 14.8 83.95 15.25 78.3 16.4 75.45 16.65 74.8 16.7 72 16.85 69.85 16.95 68.55 17.15 66.8 17.4 63.5 18.4
L 44.25 24.2
Q 42.95 24.65 42.65 24.95 41.8 25.7 42.1 26.55 42.4 27.3 43.4 27.4 43.95 27.45 45.05 27.15
L 62.35 21.8
Q 67.4 20.4 69.25 20.1 71.6 19.8 76.2 19.6 79 19.3 84.5 18.1 87.15 17.7 92.55 17.35 95.15 17.05 100.05 16.1 105.1 15.15 107.55 14.85 110.8 14.5 115.45 14.3 121.3 14.1 124.25 14.45 125.35 14.55 127.8 14.95 130.05 15.35 131.35 15.45 132.7 15.55 138.05 15.45 140.65 15.35 141.9 15.6 143.3 15.85 145.2 16.8
L 148.35 18.3
Q 149.75 18.9 152.6 20 155.15 21.25 159.45 25.05
L 166.55 31.45
Q 166.3 32.55 164.75 33.1 163.1 33.6 162.4 34.1 161.85 34.45 161.6 35.05 161.3 35.7 161.5 36.25 161.75 36.85 162.8 37.35 167.55 39.9 171.8 41.4 174.15 42.2 175.2 41.35 176 40.65 176.1 38.8 176.35 33.15 174.55 28
M 40 54.95
L 38.35 54.55
Q 36.85 54.4 35.4 54.7
L 35.15 54.7
Q 35.1 54.7 35 54.45
L 34.35 52.25
Q 35.65 52.15 37.65 52.55 40.65 53.15 40.9 53.2 41.45 53.2 41.55 53.1 41.7 53 41.75 52.75 41.75 52.55 41.6 52.4 41.5 52.3 41.1 52.2
L 34.3 51.15
Q 33.65 51.05 33.4 51.3 33.2 51.5 33.3 52.1 33.7 53.75 34.2 55.2 34.45 55.65 34.55 55.75 34.9 56 35.65 55.7 37.7 55.15 40.75 56.25 41.95 56.75 42.35 57.25 42.7 57.65 42.75 58.15 42.8 58.7 42.45 59.05
L 40.95 60.1
Q 40.5 60.35 38.75 60.35 38.05 60.45 38 60.8 38 61.15 38.35 61.3 38.5 61.4 38.95 61.4 40.4 61.4 41.05 61.15 41.6 61 42.8 60.1
L 43.3 59.65
Q 44.1 58.7 43.6 57.45 43.2 56.4 42.1 55.75 41.5 55.4 40 54.95
M 26.4 47.65
Q 26 47.8 25.9 48.25
L 25.35 50.8
Q 24.8 52.85 24.75 54.3 24.75 55.4 24.9 55.9 25.1 56.45 25.45 56.65 25.75 56.8 26.15 56.8 26.8 56.8 27.75 56.65
L 29.3 56.35
Q 29.966015625 56.243359375 30.75 56.2
L 31 60.35 31.1 60.65
Q 31.2 60.95 31.45 60.95 31.7 60.95 31.9 60.75 32 60.6 32 60.2
L 31.9 57.65 31.8 57.15
Q 31.7201171875 56.83046875 31.7 56.2 32.017578125 56.2314453125 32.35 56.25 32.75 56.25 32.9 56.15 33.15 56 33.1 55.7 33.1 55.4 32.85 55.3 32.75 55.2 32.4 55.2
L 31.7 55.2 31.75 54.4
Q 31.75 54 31.65 53.85 31.55 53.5 31.25 53.6
L 31.1 53.65
Q 30.85 53.75 30.75 54
L 30.7 54.55 30.7 55.25 28.55 55.4
Q 27.7 55.6 27.25 55.65 26.45 55.8 25.9 55.75 25.6 54.65 26 52.4
L 26.9 48.65
Q 27.1 48.1 27.05 47.95 26.9 47.55 26.4 47.65
M 53.25 34.3
Q 53.05 33.95 52.5 33.65 51.5 33.1 49.15 33.2 48 33.2 47.45 33.3 46.6 33.45 43.95 34.6
L 43.65 34.9
Q 43.5 35.1 43.7 35.35 43.9 35.6 44.15 35.6 44.55 35.6 45.15 35.2 46.85 34.2 50.1 34.2 51.2 34.2 51.95 34.45 52.15 34.5 52.3 34.75 52.4 34.95 52.3 35.2 52.05 36.5 50.1 38.45 48.45 40.1 47.65 41 47.3 41.45 47.35 41.7 47.5 42 48.25 42 50.75 41.8 53.25 42.65 53.75 42.85 53.9 43 54.05 43.15 54.15 43.9 54.25 45.35 53.9 46.1 53.45 47.15 51.65 47.85 49.85 48.55 47 49.05
L 42.2 49.8
Q 41.7 49.95 41.65 50.2 41.5 50.5 41.95 50.75 42.3 50.8 42.65 50.75
L 45.75 50.25
Q 49.9 49.65 52.05 48.8 54.05 47.95 54.7 46.75 55.05 46.1 55.15 45 55.2 44.25 55.05 43.35 54.95 42.65 54.7 42.35 54.4 42.05 54 41.9 52.5 41.2 49.15 40.9
L 51.55 38.35
Q 53 36.8 53.3 35.4 53.45 34.8 53.25 34.3
M 43.8 41.7
Q 43.65 41.6 43.2 41.6
L 35.95 41.6
Q 37.85 39.95 38.3 38.3 38.8 36.7 38 34.45 37.75 33.65 37.35 33.15 36.45 31.95 34.7 31.55 34.3 31.45 31.65 30.9
L 30.9 30.85
Q 30.35 30.95 30.45 31.35 30.5 31.65 31.2 31.9
L 32.85 32.15
Q 35.45 32.55 36.4 33.65 36.8 34.15 37.05 34.75 38 37.1 36.95 38.95 36.6 39.55 35.75 40.4 34.7 41.4 34.4 41.75 34 42.25 34.15 42.55 34.35 42.85 35.1 42.75 36 42.6 37.9 42.6
L 43.25 42.65
Q 43.65 42.65 43.8 42.55 44.15 42.45 44.15 42.15 44.15 41.8 43.8 41.7
M 19.85 33.45
Q 19.75 33.7 19.95 33.9 20.15 34.15 20.4 34.1 20.55 34.1 20.95 33.8 23.05 31.95 25.2 30.5 25.15 34.05 25.4 39
L 25.45 40.15
Q 25.45 40.55 25.55 40.7 25.65 41 25.95 41 26.2 41 26.4 40.7
L 26.45 40.1
Q 26.3 36.75 26.25 35.05 26.1 32 26.2 29.95 26.3 29.65 26.2 29.35 26.05 29 25.75 28.95 25.5 28.95 25.2 29.15 23 30.8 20.25 33 19.85 33.4 19.85 33.45 Z"/>

<path fill="#66CC66" stroke="none" d="
M 172 54.55
Q 165.1 61.45 165.1 71.25 165.1 81.05 172 87.95 178.9 94.85 188.7 94.85 198.5 94.85 205.4 87.95 212.3 81.05 212.3 71.25 212.3 61.45 205.4 54.55 198.5 47.65 188.7 47.65 178.9 47.65 172 54.55
M 192.65 53.4
L 192.65 58.85
Q 193.6 59.2 194.55 59.7
L 198.25 56 203.95 61.65 200.1 65.5
Q 200.35 66.05 200.55 66.55
L 205.35 66.55 205.35 74.55 200.75 74.55
Q 200.75 74.65 200.7 74.75 200.45 75.6 200.05 76.4
L 203.6 79.95 197.95 85.6 194.6 82.25
Q 193.65 82.75 192.65 83.1
L 192.65 87.9 184.65 87.9 184.65 83.2
Q 183.85 82.9 183.1 82.5
L 179.55 86.05 173.85 80.4 177.35 76.9
Q 176.85 75.8 176.55 74.55
L 170.85 74.55 170.85 66.55 176.8 66.55
Q 177.05 65.8 177.45 65.1
L 173.55 61.2 179.2 55.55 183.1 59.45
Q 183.8 59.05 184.6 58.8
L 184.65 58.8 184.65 53.4 192.65 53.4
M 186.95 69.25
Q 186.85 69.35 186.8 69.4 186.05 70.4 186.3 71.55
L 186.5 72.15
Q 186.6 72.35 186.75 72.5 186.95 72.7 187.2 72.85
L 187.75 73.1
Q 188.35 73.3 189.05 73.15
L 189.4 73.05 189.5 73
Q 190.65 72.45 190.95 71.25 190.95 71.1 190.95 71.05 190.85 70 190.1 69.25 189.15 68.5 187.9 68.75
L 187.35 69
Q 187.1 69.1 186.95 69.25 Z"/>

<path fill="#FFFFFF" stroke="none" d="
M 192.65 58.85
L 192.65 53.4 184.65 53.4 184.65 58.8 184.6 58.8
Q 183.8 59.05 183.1 59.45
L 179.2 55.55 173.55 61.2 177.45 65.1
Q 177.05 65.8 176.8 66.55
L 170.85 66.55 170.85 74.55 176.55 74.55
Q 176.85 75.8 177.35 76.9
L 173.85 80.4 179.55 86.05 183.1 82.5
Q 183.85 82.9 184.65 83.2
L 184.65 87.9 192.65 87.9 192.65 83.1
Q 193.65 82.75 194.6 82.25
L 197.95 85.6 203.6 79.95 200.05 76.4
Q 200.45 75.6 200.7 74.75 200.75 74.65 200.75 74.55
L 205.35 74.55 205.35 66.55 200.55 66.55
Q 200.35 66.05 200.1 65.5
L 203.95 61.65 198.25 56 194.55 59.7
Q 193.6 59.2 192.65 58.85
M 186.8 69.4
Q 186.85 69.35 186.95 69.25 187.1 69.1 187.35 69
L 187.9 68.75
Q 189.15 68.5 190.1 69.25 190.85 70 190.95 71.05 190.95 71.1 190.95 71.25 190.65 72.45 189.5 73
L 189.4 73.05 189.05 73.15
Q 188.35 73.3 187.75 73.1
L 187.2 72.85
Q 186.95 72.7 186.75 72.5 186.6 72.35 186.5 72.15
L 186.3 71.55
Q 186.05 70.4 186.8 69.4 Z"/>
</g>
</defs>

<g transform="matrix( 1, 0, 0, 1, 0,0) ">
<use xlink:href="#Layer2_0_FILL"/>
</g>

<g transform="matrix( 0.25823974609375, 0.1027679443359375, -0.1027679443359375, 0.25823974609375, 102.2,67.7) ">
<g transform="matrix( 1, 0, 0, 1, 0,0) ">
<g transform="matrix( 1, 0, 0, 1, 0,0) ">
<g transform="matrix( 1, 0, 0, 1, -159.15,-224.3) ">
<use xlink:href="#face_5_Layer1_0_MEMBER_0_FILL"/>
</g>

<g transform="matrix( 1, 0, 0, 1, -159.15,-224.3) ">
<use xlink:href="#face_5_Layer1_0_MEMBER_1_FILL"/>
</g>

<g transform="matrix( 1, 0, 0, 1, -159.15,-224.3) ">
<use xlink:href="#face_5_Layer1_0_MEMBER_2_FILL"/>
</g>

<g transform="matrix( 1, 0, 0, 1, -159.15,-224.3) ">
<use xlink:href="#face_5_Layer1_0_MEMBER_3_FILL"/>
</g>

<g transform="matrix( 1, 0, 0, 1, -159.15,-224.3) ">
<use xlink:href="#face_5_Layer1_0_MEMBER_4_FILL"/>
</g>

<g transform="matrix( 1, 0, 0, 1, -159.15,-224.3) ">
<use xlink:href="#face_5_Layer1_0_MEMBER_5_FILL"/>
</g>

<g transform="matrix( 1, 0, 0, 1, -159.15,-224.3) ">
<use xlink:href="#face_5_Layer1_0_MEMBER_6_FILL"/>
</g>

<g transform="matrix( 1, 0, 0, 1, -159.15,-224.3) ">
<use xlink:href="#face_5_Layer1_0_MEMBER_7_FILL"/>
</g>

<g transform="matrix( 1, 0, 0, 1, -159.15,-224.3) ">
<use xlink:href="#face_5_Layer1_0_MEMBER_8_FILL"/>
</g>

<g transform="matrix( 1, 0, 0, 1, -159.15,-224.3) ">
<use xlink:href="#face_5_Layer1_0_MEMBER_9_FILL"/>
</g>

<g transform="matrix( 1, 0, 0, 1, -159.15,-224.3) ">
<use xlink:href="#face_5_Layer1_0_MEMBER_10_FILL"/>
</g>

<g transform="matrix( 1, 0, 0, 1, -159.15,-224.3) ">
<use xlink:href="#face_5_Layer1_0_MEMBER_11_FILL"/>
</g>

<g transform="matrix( 1, 0, 0, 1, -159.15,-224.3) ">
<use xlink:href="#face_5_Layer1_0_MEMBER_12_FILL"/>
</g>

<g transform="matrix( 1, 0, 0, 1, -159.15,-224.3) ">
<use xlink:href="#face_5_Layer1_0_MEMBER_13_FILL"/>
</g>

<g transform="matrix( 1, 0, 0, 1, -159.15,-224.3) ">
<use xlink:href="#face_5_Layer1_0_MEMBER_14_FILL"/>
</g>

<g transform="matrix( 1, 0, 0, 1, -159.15,-224.3) ">
<use xlink:href="#face_5_Layer1_0_MEMBER_15_FILL"/>
</g>

<g transform="matrix( 1, 0, 0, 1, -159.15,-224.3) ">
<use xlink:href="#face_5_Layer1_0_MEMBER_16_FILL"/>
</g>
</g>

<g transform="matrix( 1, 0, 0, 1, -159.3,-224.1) ">
<use xlink:href="#head_0_Layer1_1_FILL"/>
</g>

<g transform="matrix( 1, 0, 0, 1, -159.3,-224.1) ">
<use xlink:href="#head_0_Layer1_2_FILL"/>
</g>

<g transform="matrix( 1, 0, 0, 1, -159.3,-224.1) ">
<use xlink:href="#head_0_Layer1_3_FILL"/>
</g>

<g transform="matrix( 1, 0, 0, 1, -159.3,-224.1) ">
<use xlink:href="#head_0_Layer1_4_FILL"/>
</g>

<g transform="matrix( 1, 0, 0, 1, -159.3,-224.1) ">
<use xlink:href="#head_0_Layer1_5_FILL"/>
</g>

<g transform="matrix( 1, 0, 0, 1, -159.3,-224.1) ">
<use xlink:href="#head_0_Layer1_6_FILL"/>
</g>

<g transform="matrix( 1, 0, 0, 1, 6.35,-4.05) ">
<g transform="matrix( 1, 0, 0, 1, -165.65,-220.1) ">
<use xlink:href="#forward_eyes_3_Layer0_0_FILL"/>
</g>

<g transform="matrix( 1, 0, 0, 1, -165.65,-220.1) ">
<use xlink:href="#forward_eyes_3_Layer0_1_FILL"/>
</g>

<g transform="matrix( 1, 0, 0, 1, -165.65,-220.1) ">
<use xlink:href="#forward_eyes_3_Layer0_2_FILL"/>
</g>

<g transform="matrix( 1, 0, 0, 1, -165.65,-220.1) ">
<use xlink:href="#forward_eyes_3_Layer0_3_FILL"/>
</g>

<g transform="matrix( 1, 0, 0, 1, -165.65,-220.1) ">
<use xlink:href="#forward_eyes_3_Layer0_4_FILL"/>
</g>

<g transform="matrix( 1, 0, 0, 1, -165.65,-220.1) ">
<use xlink:href="#forward_eyes_3_Layer0_5_FILL"/>
</g>

<g transform="matrix( 1, 0, 0, 1, -165.65,-220.1) ">
<use xlink:href="#forward_eyes_3_Layer0_6_FILL"/>
</g>

<g transform="matrix( 1, 0, 0, 1, -165.65,-220.1) ">
<use xlink:href="#forward_eyes_3_Layer0_7_FILL"/>
</g>

<g transform="matrix( 1, 0, 0, 1, -165.65,-220.1) ">
<use xlink:href="#forward_eyes_3_Layer0_8_FILL"/>
</g>

<g transform="matrix( 1, 0, 0, 1, -165.65,-220.1) ">
<use xlink:href="#forward_eyes_3_Layer0_9_FILL"/>
</g>
</g>

<g transform="matrix( 1, 0, 0, 1, 7.15,-25.95) ">
<g transform="matrix( 0.9969329833984375, -0.0782470703125, 0.0782470703125, 0.9969329833984375, -180.9,-194.85) ">
<use xlink:href="#eyebrows_8_Layer0_0_FILL"/>
</g>

<g transform="matrix( 0.99200439453125, 0.1259765625, -0.1259765625, 0.99200439453125, -137.1,-224.6) ">
<use xlink:href="#eyebrows_8_Layer0_1_FILL"/>
</g>
</g>
</g>
</g>

<g transform="matrix( 1, 0, 0, 1, 0,0) ">
<use xlink:href="#Layer1_0_FILL"/>
</g>
</svg>
