
<svg xmlns="http://www.w3.org/2000/svg" version="1.1" xmlns:xlink="http://www.w3.org/1999/xlink" preserveAspectRatio="none" x="0px" y="0px" width="217px" height="165px" viewBox="0 0 217 165">
<defs>
<filter id="Filter_1" x="-20%" y="-20%" width="140%" height="140%" color-interpolation-filters="sRGB">
<feFlood flood-color="#FFFFFF" flood-opacity="1" in="SourceGraphic" result="result1"/>

<feGaussianBlur in="SourceGraphic" stdDeviation="1,1" result="result2"/>

<feComposite in2="result2" in="result1" operator="in" result="result3"/>

<feComposite in2="result3" in="SourceGraphic" operator="over" result="result4"/>
</filter>

<filter id="Filter_2" x="-20%" y="-20%" width="140%" height="140%" color-interpolation-filters="sRGB">
<feFlood flood-color="#FFFFFF" flood-opacity="1" in="SourceGraphic" result="result1"/>

<feGaussianBlur in="SourceGraphic" stdDeviation="1,1" result="result2"/>

<feComposite in2="result2" in="result1" operator="in" result="result3"/>

<feComposite in2="result3" in="SourceGraphic" operator="over" result="result4"/>
</filter>

<filter id="Filter_3" x="-26.487771215689364%" y="-27.96125462171399%" width="152.97554243137873%" height="155.92250924342798%" color-interpolation-filters="sRGB">
<feFlood flood-color="#FFFFFF" flood-opacity="1" in="SourceGraphic" result="result1"/>

<feGaussianBlur in="SourceGraphic" stdDeviation="1,1" result="result2"/>

<feComposite in2="result2" in="result1" operator="in" result="result3"/>

<feComposite in2="result3" in="SourceGraphic" operator="over" result="result4"/>
</filter>

<g id="Symbol_2_0_Layer0_0_FILL">
<path fill="#000000" stroke="none" d="
M 18.25 -17.5
Q 17.95 -17.35 17.95 -17.1 14 -17.5 12 -17.95 7.4 -18.85 4.25 -20.85 4.1 -20.95 3.95 -21.05 3.9 -21.15 3.85 -21.25 3.7 -21.45 3.2 -21.75 2.9 -21.95 2.5 -22.5 2.05 -23.1 1.8 -23.3 1.65 -23.45 0.45 -24.1
L -2.85 -25.55
Q -4.4 -25.65 -5.15 -25.9
L -6.05 -26.2
Q -6.25 -26.25 -7.8 -26.25 -8.2 -26.3 -8.6 -26.35 -9.15 -26.45 -9.9 -26.6 -11.4 -26.95 -12 -27 -12.95 -27 -13.4 -27.1 -13.7 -27.15 -14.75 -27.55 -15.05 -27.7 -15.35 -27.8
L -15.6 -27.9
Q -19.3 -29.4 -21.55 -29.9
L -22.25 -29.9
Q -22.55 -29.8 -22.6 -29.55 -25.1 -29.95 -26.55 -30.2 -34.7 -31.65 -42.05 -34.85 -44.15 -35.75 -44.95 -35.9 -46.15 -36.05 -46.75 -36.15 -47.8 -36.35 -48.4 -36.75 -49.25 -37.25 -50.15 -38.75
L -52.2 -42.3
Q -54 -45.65 -54.5 -47.3 -54.85 -48.75 -55.05 -49.5 -55.45 -50.75 -55.95 -51.5 -56.45 -52.2 -56.6 -52.55
L -56.85 -53.05
Q -57.05 -53.2 -57.25 -53.1 -57.55 -53.35 -57.85 -53.45 -57.4 -53.95 -56.6 -55.4
L -55.8 -56.75
Q -53.65 -60.45 -53.2 -62.5 -53 -63.9 -53.2 -64.55 -53.35 -65.1 -54.05 -66 -54.9 -67.05 -55.75 -67.55 -56.9 -68.15 -57.95 -67.9 -58.25 -67.8 -59.1 -67.4 -59.7 -67.1 -61 -66.55 -61.2 -66.45 -62.65 -65.4
L -66.8 -62.85
Q -67.15 -63.45 -67.7 -63.9
L -68.4 -64.55
Q -68.6 -64.7 -68.95 -65.3 -69.35 -65.85 -69.75 -66.2
L -71.8 -68.4
Q -72.2 -68.9 -72.6 -69.05 -73.05 -69.25 -73.85 -69.15 -74.85 -69 -75.15 -69.05 -75.5 -69.1 -76 -69.3 -76.6 -69.6 -76.85 -69.65 -77.55 -69.8 -78.55 -69.6
L -80.55 -69.3
Q -82 -69.1 -82.55 -68.6 -82.8 -68.35 -83.2 -67.65 -83.5 -67.2 -84.25 -66.4 -84.8 -65.6 -85.3 -63.95 -85.45 -64 -85.6 -64.05 -86.6 -64.25 -87.1 -64.25 -87.85 -64.2 -89.25 -63.8 -92.75 -62.7 -94.15 -61.45 -94.75 -60.9 -94.9 -60.4 -94.95 -59.95 -94.7 -59.4 -94.6 -59.1 -94.25 -58.45
L -93.85 -57.5
Q -93.4 -56.7 -92.35 -55.65
L -85.3 -48.05
Q -84.95 -47.55 -84.9 -47.35 -84.85 -47 -85.1 -46.55 -85.7 -45.4 -87.55 -44 -89.6 -42.45 -90.25 -41.6 -90.65 -41.1 -91.25 -39.9 -92 -38.3 -92.1 -37.9 -92.2 -37.7 -92.45 -36.35 -92.6 -35.3 -92.5 -34.6 -92.35 -33.5 -91.55 -32.6 -90.75 -31.75 -89.65 -31.4 -89.1 -31.2 -87.95 -30.95
L -87.05 -30.6
Q -85.75 -30.15 -84.3 -30.5 -83.65 -30.6 -83.4 -30.75 -82.55 -31.2 -82.15 -32.65 -81.95 -33.4 -81.8 -33.8 -81.6 -34.45 -81.35 -34.85 -80.55 -36.1 -78.6 -36.65 -78.25 -36.8 -78.05 -36.9 -78.05 -36.8 -77.95 -36.7 -77.75 -36.55 -77.25 -36.55 -76.95 -36.55 -76.45 -36.35
L -65.1 -32.9
Q -64 -32.65 -63.4 -32.2
L -62.75 -31.5
Q -62.4 -31.1 -61.55 -29.7 -60.85 -28.55 -60.25 -28 -58.9 -26.8 -58.85 -26.7 -58.7 -26.5 -58.45 -26.1
L -57.9 -25.75
Q -56.65 -25.1 -54.6 -23.15 -54.05 -22.7 -52.85 -21.9 -52.35 -21.55 -51.85 -21.15
L -51.85 -21.1
Q -51.7 -20.8 -51.4 -20.8 -50 -19.6 -48.8 -18.15 -48.55 -17.9 -47.3 -16.25
L -45.6 -13.85
Q -45.25 -13.3 -45 -12.55
L -42.95 -8.1
Q -42.05 -6 -41.7 -4.9 -41.25 -3.3 -40.95 0.05
L -40.8 3.45
Q -40.75 4.5 -40.3 6.55
L -40.2 8.4
Q -40.1 10.3 -40.25 11.9
L -40.45 13.15
Q -40.45 14.05 -40.8 15.2 -41.65 18.8 -42.75 20.75
L -43.8 22.55 -43.85 22.7
Q -48.85 24.25 -52 25.6 -56.85 27.7 -60.25 30.3 -64.2 33.35 -66.55 37.4 -69.1 41.85 -69.05 46.4 -69.05 48.55 -68.2 52.05 -67.1 56.6 -65.4 60.4 -68.25 60.55 -71.4 60.75 -71.85 60.75 -72 61 -72.1 61.25 -71.8 61.45 -71.55 61.6 -71.25 61.6 -69.65 61.65 -67.4 61.55 -66.5 61.5 -64.9 61.4 -62.8 65.85 -59.85 69.3 -59.3 69.85 -59 69.7 -58.7 69.55 -58.8 69.15 -58.9 68.8 -59.15 68.5 -61.8 65.5 -63.8 61.35 -63.7 61.3 -63.6 61.3 -57.7 60.9 -48.3 61.05 -35.85 61.25 -33 61.2 -32.85 61.2 -32.7 61.2 -32.5 61.4 -32.45 61.45 -32 61.75 -31.75 61.4 -31.7 61.3 -31.65 61.2 -27.2 61.05 -19.35 60.85 -19 61.8 -18.6 62.6 -18.4 63 -18.2 63.15 -17.85 63.4 -17.6 63.15 -17.35 62.9 -17.65 62.25 -18 61.6 -18.25 60.9
L -0.9 61.15
Q 10.75 61.35 16.55 62 21.4 62.65 23.45 62.5 25.1 62.45 28.4 62.05 29 62 31.7 62 32.35 62 32.95 62
L 33.15 62.2
Q 33.65 62.7 33.9 62.4 34.05 62.25 33.9 61.9 34.5 61.85 34.95 61.75 35.35 61.75 35.55 61.55 35.9 61.25 35.6 60.95 35.4 60.75 35.1 60.85 34.15 60.85 33.25 60.9 32.45 59.95 30.9 58.55 26.65 54.7 22.2 49.1 19.45 45.65 14.55 38.75 13.1 36.7 12.7 35.4 11.95 32.75 13.85 28.6 15.1 25.7 17.1 22.7 17.25 22.55 17.3 22.4
L 17.5 22.45 17.6 21.8
Q 17.65 21.2 18 20.3 17.95 19.6 17.85 18.9 17.35 15.55 17.3 14.85 17.3 13.25 17.2 12.45 17.1 11.55 16.7 9.75 16.5 8.6 16.4 6.6 16.3 4.1 16.25 3.4 16 -0.4 14.25 -2.5 14.1 -2.7 14 -2.8
L 14.2 -2.9
Q 15.2 -3.35 16.7 -3.05 17.6 -2.9 19.3 -2.5 20.35 -2.35 22.4 -2.3 23.95 -2.15 27 -1.25 30.1 -0.6 35.9 -1.1 39.7 -1.4 41.1 -1.8 42.15 -2.05 44.3 -2.7 46 -3.1 48.9 -3.4 52.45 -3.7 53.55 -3.9 54.1 -4 57.05 -4.6 59.2 -5.1 60.6 -5.2 63 -5.4 66.35 -4.85 68.15 -4.55 68.85 -4.2 69.7 -3.8 71.4 -2.3 72.9 -0.9 74.2 -0.05 76.25 1.25 81.05 2.7 83.05 3.25 83.95 3 84.55 2.85 85.75 2.1 86.95 1.25 87.4 0.55 88.25 -1 86.95 -3.85 84.3 -9.15 79.6 -12.4 80.1 -12.4 81.1 -11.9 84.3 -10.5 87.75 -10.5 90.35 -10.5 91.9 -11.3 94.05 -12.3 94.75 -14.35 95.1 -15.5 94.9 -17.55 94.8 -19.95 94.05 -21.15 93.45 -22.05 92 -22.95 89.35 -24.6 84.3 -26.7 85.25 -28.35 86.1 -30.9 86.4 -31.95 86.3 -32.55 86.2 -33.7 84.6 -34.9 84.25 -35.2 83.9 -35.4 83.95 -35.55 83.9 -35.75 83.85 -35.95 83.55 -36.25 83.2 -36.6 81.95 -37.25 79.05 -38.6 77.5 -38.45 76.9 -38.4 75.4 -37.95 74.65 -37.65 74.5 -37.5 74.35 -37.4 73.85 -36.75 73.25 -35.85 72.35 -35.2 71.9 -35.15 71.5 -35.1 70.15 -34 68.5 -33.65 68.45 -33.85 68.15 -35.95 67.95 -37.35 67.4 -38.1 66.75 -39 65.4 -39.45 63.7 -40 61.9 -39.7 60.05 -39.35 58.65 -38.25 57.45 -37.25 57.05 -36.05 56.75 -35.25 56.65 -33.55 56.65 -31.65 56.75 -27.9 56.8 -24.6 56.25 -22.35 56.2 -21.95 56.2 -21.7 55.9 -21.05 55.6 -20.2
L 53.75 -19.6
Q 51.35 -18.75 50.35 -18.55 47.7 -17.85 42.85 -17.65 38.75 -17.45 33 -17.55 32.1 -17.55 31.3 -17.5
L 31.25 -17.55
Q 31 -17.65 30.85 -17.5 27.1 -17.5 25.4 -17.25 23.55 -17 23.15 -17 22.4 -17 21 -17.3 19.55 -17.6 18.9 -17.6 18.45 -17.6 18.25 -17.5
M 1.25 -21.95
Q 1.6 -21.6 2.8 -20.7 -0.3 -19 -3.6 -18 -6.05 -17.15 -8.15 -17.15 -9.6 -17.15 -9.95 -16.95
L -10.45 -16.75
Q -10.5 -16.75 -11.15 -17 -11.45 -17.1 -12 -17.1 -11.95625 -17.14375 -11.9 -17.2 -11.9623046875 -17.1439453125 -12.05 -17.1 -12.4 -16.9 -12.85 -17.25 -13.4 -17.6 -14.8 -18.2 -16.05 -18.75 -16.7 -19.2 -17.95 -20.1 -19.65 -22.7
L -20.45 -24.1
Q -20.9 -25 -21.55 -27.2
L -21.9 -28.9
Q -19 -28.3 -15.75 -26.9 -14.7 -26.35 -13.95 -26.2 -13.3 -26.05 -12 -25.95 -11.8 -25.95 -9.45 -25.45 -7.95 -25.15 -6.95 -25.3 -6.85 -25.05 -6.6 -24.95
L -6.1 -24.9
Q -5.55 -24.9 -4.75 -24.65 -4.35 -24.5 -3.45 -24.2
L -1.85 -23.85
Q -0.85 -23.65 -0.3 -23.3 -0.15 -23.2 1.25 -21.95
M 31.65 -16.55
Q 33.75 -16.55 36.9 -16.5 41.05 -16.5 44 -16.7 44.55 -16.7 45.65 -16.8 48.05 -17 49.15 -17.2 50.85 -17.5 53.4 -18.4
L 55.5 -19.05
Q 56.1 -19.3 56.3 -19.45
L 56.75 -20.2 57.15 -21.15
Q 57.2 -21.25 57.25 -21.45 57.25 -21.5 57.3 -21.55
L 57.4 -22.1
Q 57.4 -22.15 57.4 -22.2 58 -26.95 57.7 -32.15 57.5 -34.45 57.9 -35.5 58.35 -36.65 59.35 -37.5 60.45 -38.35 61.85 -38.65 63.3 -39 64.65 -38.65 65.95 -38.3 66.55 -37.5 67 -36.85 67.2 -35.7 67.5 -34.4 67.3 -33.8 67.05 -32.8 67.3 -32.6 67.5 -32.4 67.95 -32.5 69.4 -32.7 70.65 -33.3 70.75 -33.3 70.85 -33.3 71.1 -33.3 71.5 -33.5 73.7 -34.55 75.15 -36.7 76.85 -37.35 77.5 -37.45 78.8 -37.55 81.2 -36.45 80.9 -36.45 80.55 -36.4 82.4 -35.45 84.1 -34.05 85.05 -33.25 85.25 -32.5 85.45 -31.85 85.05 -30.8 84.5 -29.2 83.6 -27.55 83.1 -26.8 83.3 -26.35 83.5 -26 83.95 -25.8 84.7 -25.4 87.75 -24 90.1 -22.95 91.45 -22.1 92.6 -21.4 93.15 -20.65 93.75 -19.75 93.95 -17.5 94.05 -15.4 93.6 -14.3 92.85 -12.7 91.1 -12.05 89.8 -11.5 87.7 -11.5 84.9 -11.6 82.35 -12.55 80.15 -13.45 79.2 -13.35 78.15 -13.25 78.2 -12.55 78.2 -12.15 78.8 -11.75 83.1 -8.65 85.75 -4.15 87.25 -1.45 86.4 0.15 86.1 0.75 85.3 1.25 84.3 1.95 83.3 2 82.5 2.05 81.1 1.65 78.5 0.9 77.15 0.4 75.05 -0.45 73.65 -1.6 73.3 -1.9 71.55 -3.5 70.3 -4.65 69.3 -5.15 68.15 -5.65 65.7 -5.95 62.7 -6.3 60.85 -6.2 59.2 -6.15 56.65 -5.6 53.25 -4.9 52.4 -4.8 51.7 -4.7 48.1 -4.35 45.4 -4.05 43.75 -3.6 41.7 -2.95 40.65 -2.7 39.7 -2.5 37.8 -2.3 36.55 -2.15 35.5 -2.05 35.45 -2.1 35.4 -2.15
L 34.95 -2.45
Q 34.15 -3 33.7 -4.15 33.45 -4.9 33.25 -6.3 32.55 -11.9 31.65 -16.55
M 6.65 22.65
Q 7.65 22.65 9.35 22.5 11.3 22.35 12.05 22.35
L 16.15 22.35
Q 16.1 22.3515625 16.1 22.4 14.35 25.1 13 28 10.95 32.45 11.6 35.25 12 37 14.1 39.9
L 18.25 45.55
Q 21.65 50.05 22.35 50.9 24.9 54 31.4 60.5
L 31.85 60.95
Q 29.2 61.05 26.9 61.2 23.2 61.55 21.95 61.5 20.75 61.5 16.8 61.05 10.85 60.35 -1.1 60.15
L -18.25 59.9
Q -18.4 59.9 -18.6 59.9 -19.45 57.25 -19.6 53.65 -19.7 52.4 -19.7 49.85 -19.7 48.35 -19.9 47.65 -20.45 46.45 -20.6 45.8 -20.8 45.05 -20.8 43.5 -20.8 41.65 -20.65 40.75 -20 38.75 -19.85 37.55 -18.7 37.85 -17.35 37.9 -16.75 37.9 -16.6 37.55 -16.5 37.15 -16.9 36.95 -17.15 36.85 -17.65 36.85 -19.5 36.75 -21 36.2 -22.35 35.65 -22.8 35.5 -23.7 35.25 -25.35 35.2 -27.2 35.1 -27.95 34.95 -28.8 34.7 -29.25 34.65 -29.6 34.55 -30.2 34.55 -30.9 34.55 -31.2 34.5
L -31.95 34.45
Q -32.5 34.55 -32.4 34.95 -32.4 35.25 -32.05 35.4
L -31.5 35.5
Q -30.45 35.55 -28.75 35.8 -29.05 35.9 -29.65 36.1 -30.3 36.3 -30.7 36.55 -31.05 36.8 -31.95 37.8 -33.55 39.85 -33.95 40.85
L -34.45 42.6
Q -34.7 43.35 -35.25 44.9 -35.55 46 -35.65 47.7 -35.65 48.65 -35.75 50.55 -35.8 51.4 -36 53.15 -36.05 54.65 -35.75 55.7 -35.5 56.35 -34.95 57.25 -34.65 57.8 -34 58.8 -33.9 58.95 -33.3 60.15 -39.35 60.25 -43.3 60.15
L -49.2 60
Q -55.4 59.9 -64.25 60.35 -65.9 56.8 -67.05 52.45 -68 48.95 -68.05 46.8 -68.25 40.7 -63.95 35.3 -60.4 30.9 -54.15 27.75 -50.25 25.8 -42.5 23.35 -42.4 23.3 -42.3 23.3 -38.2 23.15 -35.5 22.75 -33.75 22.45 -33 22.4 -32.3 22.3 -30.8 22.3 -26.3 22.2 -24.1 22.55 -22.55 22.8 -19.4 23.45 -17.55 23.7 -14.6 23.5
L -6.95 23.2
Q -6.05 23.1 -4.05 22.75 -2.25 22.4 -1.2 22.3 0.35 22.2 2.75 22.4 5.85 22.65 6.65 22.65
M -89.15 -62.75
Q -87.75 -63.15 -87.5 -63.15 -86.1 -63.3 -83.8 -62.45 -82.9 -62.15 -82.45 -61.9 -81.9 -61.55 -81.2 -60.8 -80.3 -59.95 -79.95 -59.65 -79.35 -59.2 -79.05 -59.45 -78.75 -59.75 -79 -60.2
L -79.55 -60.7
Q -81.05 -62.25 -81.95 -62.8
L -83.1 -63.3
Q -83.65 -63.5 -84.25 -63.7 -83.75 -65.35 -83.35 -65.85
L -82.55 -66.75
Q -82.25 -67.15 -82.15 -67.4 -81.9 -67.75 -81.65 -67.9 -81.4 -68.1 -80.05 -68.35 -79.5 -68.4 -78.45 -68.6 -77.5 -68.75 -76.85 -68.55 -76.45 -68.4 -75.7 -68.1 -75.05 -67.9 -74.1 -68.1 -73.3 -68.2 -73.1 -68.15 -72.85 -68.05 -72.45 -67.65
L -69.75 -64.7
Q -69.6 -64.45 -69.3 -63.9 -69.1 -63.65 -68.6 -63.3 -68.1 -62.95 -67.9 -62.7
L -67.55 -62.05
Q -67.35 -61.65 -67 -61.6 -66.7 -61.55 -66.3 -61.85
L -61.65 -64.9
Q -60.25 -65.8 -59.45 -66.15
L -58.3 -66.6
Q -57.8 -66.9 -57.45 -66.95 -57 -67 -56.45 -66.75 -55.75 -66.4 -54.95 -65.5 -54.5 -64.95 -54.3 -64.5 -54 -63.75 -54.25 -62.6 -54.5 -61.5 -55.65 -59.15
L -57.7 -55.5
Q -58.15 -54.7 -58.6 -54.25 -59.3 -53.55 -59.15 -53.15 -59 -52.7 -58.05 -52.4 -57.85 -52.25 -57.55 -51.95 -57.45 -51.85 -57.35 -51.85 -57.2 -51.6 -57 -51.3 -56.45 -50.6 -56.1 -49.4 -55.9 -48.75 -55.6 -47.4 -55.15 -45.9 -54.2 -44.1 -52.6 -40.85 -51 -38.25 -50.2 -36.85 -49.6 -36.35 -48.65 -35.55 -46.75 -35.15
L -44.8 -34.85
Q -44.5 -34.8 -43.3 -34.3 -43.35 -34.2 -43.4 -34.1
L -43.85 -32.9
Q -44.2 -31.95 -44.55 -31.3 -44.9 -30.6 -45.85 -29.45 -46.85 -28.25 -47.2 -27.65
L -47.7 -26.7
Q -47.85 -26.5 -48.75 -25.3 -50.3 -23.4 -51.45 -22.1 -53.3 -23.35 -54.2 -24.1 -56.6 -26.1 -57.05 -26.4
L -57.75 -26.95 -58.4 -27.75 -59.3 -28.5
Q -59.95 -29.1 -61.1 -30.85 -62.1 -32.5 -63 -33.1 -63.65 -33.55 -65.25 -34.05
L -76.6 -37.5
Q -77.3 -37.7 -77.65 -37.6 -77.7 -37.6 -77.7 -37.55 -77.75 -37.65 -77.8 -37.7 -78.1 -38 -78.65 -37.75 -81 -36.95 -81.9 -35.9 -82.35 -35.3 -82.7 -34.3 -82.9 -33.75 -83.25 -32.6 -83.4 -32.05 -83.65 -31.85 -83.9 -31.6 -84.55 -31.5 -85.15 -31.35 -85.75 -31.35 -86.15 -31.4 -86.7 -31.6 -87.3 -31.85 -87.6 -31.95
L -89.7 -32.55
Q -90.55 -32.85 -91 -33.55 -91.3 -33.9 -91.5 -34.6 -91.6 -35.2 -91.5 -35.85 -91.25 -37.3 -91.15 -37.55 -91.05 -38 -90.45 -39.15 -89.75 -40.55 -89.25 -41.15 -88.75 -41.8 -87.8 -42.55 -86.7 -43.35 -86.2 -43.8 -85.3 -44.5 -84.8 -45.15 -83.85 -46.2 -83.85 -47.1 -83.9 -47.95 -85.05 -49.3
L -91.9 -56.7
Q -92.6 -57.4 -92.9 -58 -93.25 -58.9 -93.5 -59.3 -93.9 -59.95 -93.85 -60.1 -93.85 -60.3 -93.5 -60.65 -92.25 -61.75 -89.15 -62.75
M -23.85 -0.9
Q -23.75 -1.05 -23.6 -1.05 -23.35 -1.1 -22.85 -0.8
L -21.85 0.1
Q -21.45 0.35 -20.7 0.7
L -20.5 0.85 -19.1 1.55 -19.15 1.45
Q -19.5 -1.45 -19.5 -2.25
L -19.35 -4.45
Q -19.35 -4.9 -19.1 -5.05 -18.9 -5.15 -18.7 -5.05 -18.5 -4.95 -18.4 -4.75 -18.3 -4.5 -18.4 -3.9 -18.6 -2.35 -18.15 1.4
L -17.95 2.5 -17.55 3.35
Q -16.3 5.6 -13.9 6.55 -12.8 5.85 -12.45 5.1 -12.25 4.65 -12.15 3.6
L -12.1 2.4 -12.7 -1.5
Q -12.9 -2.9 -13.2 -3.55 -13.55 -4.25 -13.55 -4.4 -13.6 -4.65 -13.45 -4.85 -13.3 -5.1 -13.05 -5.05 -12.75 -5.05 -12.45 -4.45
L -12.1 -3.5
Q -11.85 -2.75 -11.75 -1.9
L -11.5 -0.5
Q -11.3 0.6 -11.2 1.5
L -9.7 0.55 -9.15 -0.1
Q -8.4 -1.05 -7.65 -2.3 -7.4 -2.65 -7.35 -2.7 -7.1 -2.85 -6.85 -2.7 -6.6 -2.55 -6.6 -2.25 -6.6 -2 -6.75 -1.8
L -7.15 -1.1 -7.35 -0.85 -7.45 -0.65 -7.8 -0.15
Q -8.75 1.2 -9.55 1.7
L -9.9 1.9
Q -8.2 1.85 -6.75 2 -5.9 2.2 -5.7 2.35 -5.3 2.65 -4.85 3.6 -4.35 4.7 -4.3 5.3 -4.25 6.4 -4.9 7.55 -6.4 10.2 -10.4 11.85 -11.9 12.5 -13.3 12.65 -15.1 12.6 -16.05 12.7 -17.8 13 -17.9 13
L -19.1 13.1
Q -19.9 13.1 -20.25 13 -20.95 12.85 -21.6 12.5 -23.3 11.7 -24.25 10.3 -25.4 8.7 -25.05 7 -24.7 5.2 -22.75 4.05 -21.55 3.3 -19.2 2.75 -19.15 2.75 -19.1 2.75 -19.15 2.7 -19.2 2.65
L -19.35 2.55 -20.3 2.05
Q -20.9 1.85 -21.1 1.65
L -21.25 1.55 -22.15 1.1
Q -22.75 0.8 -22.95 0.5 -23.2 0.35 -23.45 0.05 -23.8 -0.15 -23.95 -0.4 -24.05 -0.65 -23.85 -0.9
M -27.65 36.5
Q -27.15 36.3 -27.1 36.1 -26.25 36.15 -24.85 36.25 -23.4 36.4 -22.45 36.7
L -20.9 37.25
Q -20.85 37.25 -20.8 37.3 -21.8 40.55 -21.85 43.55 -21.85 45.3 -21.55 46.15 -21.35 46.8 -20.8 48.15 -20.7 48.6 -20.7 49.55 -20.65 54.15 -20.4 56.25 -20.15 58.25 -19.65 59.9 -23.1 59.95 -30.75 60.1 -31.4 60.1 -32.05 60.15
L -33.75 57.35
Q -34.6 56 -34.75 55.4 -35.1 54.3 -35 52.7 -34.75 50.85 -34.7 49.9
L -34.65 47.45
Q -34.55 46 -33.5 42.6 -32.85 40.7 -32.35 40.05
L -31.3 38.7
Q -30.7 37.8 -30.3 37.5 -29.8 37.1 -29.05 36.95
L -27.65 36.5
M -6.25 3.25
L -6.9 3.05
Q -8.75 2.75 -10.75 3 -10.95 3.05 -11.15 3.05 -11.15 4 -11.3 4.7 -11.5 5.6 -11.85 6.1 -12.25 6.75 -13.3 7.4 -13.65 7.65 -13.85 7.65 -14 7.7 -14.6 7.45 -17.4 5.95 -18.5 3.8 -18.55 3.75 -18.55 3.65 -18.7 3.7 -18.85 3.75 -21.45 4.4 -22.35 5 -24.25 6.35 -24.1 8.1 -24.05 9.15 -23.15 10.1 -22.45 10.85 -21.35 11.45
L -20.2 12
Q -19.4 12.2 -18.2 12 -17.55 11.9 -16.25 11.7 -15.3 11.6 -13.4 11.65 -12.25 11.55 -10.6 10.8 -7.05 9.25 -5.85 7.15 -5.35 6.3 -5.35 5.55 -5.35 4.95 -5.75 4.05 -5.95 3.5 -6.25 3.25 Z"/>

<path fill="#FFFFFF" stroke="none" d="
M -23.6 -1.05
Q -23.75 -1.05 -23.85 -0.9 -24.05 -0.65 -23.95 -0.4 -23.8 -0.15 -23.45 0.05 -23.2 0.35 -22.95 0.5 -22.75 0.8 -22.15 1.1
L -21.25 1.55 -21.1 1.65
Q -20.9 1.85 -20.3 2.05
L -19.35 2.55 -19.2 2.65
Q -19.15 2.7 -19.1 2.75 -19.15 2.75 -19.2 2.75 -21.55 3.3 -22.75 4.05 -24.7 5.2 -25.05 7 -25.4 8.7 -24.25 10.3 -23.3 11.7 -21.6 12.5 -20.95 12.85 -20.25 13 -19.9 13.1 -19.1 13.1
L -17.9 13
Q -17.8 13 -16.05 12.7 -15.1 12.6 -13.3 12.65 -11.9 12.5 -10.4 11.85 -6.4 10.2 -4.9 7.55 -4.25 6.4 -4.3 5.3 -4.35 4.7 -4.85 3.6 -5.3 2.65 -5.7 2.35 -5.9 2.2 -6.75 2 -8.2 1.85 -9.9 1.9
L -9.55 1.7
Q -8.75 1.2 -7.8 -0.15
L -7.45 -0.65 -7.35 -0.85 -7.15 -1.1 -6.75 -1.8
Q -6.6 -2 -6.6 -2.25 -6.6 -2.55 -6.85 -2.7 -7.1 -2.85 -7.35 -2.7 -7.4 -2.65 -7.65 -2.3 -8.4 -1.05 -9.15 -0.1
L -9.7 0.55 -11.2 1.5
Q -11.3 0.6 -11.5 -0.5
L -11.75 -1.9
Q -11.85 -2.75 -12.1 -3.5
L -12.45 -4.45
Q -12.75 -5.05 -13.05 -5.05 -13.3 -5.1 -13.45 -4.85 -13.6 -4.65 -13.55 -4.4 -13.55 -4.25 -13.2 -3.55 -12.9 -2.9 -12.7 -1.5
L -12.1 2.4 -12.15 3.6
Q -12.25 4.65 -12.45 5.1 -12.8 5.85 -13.9 6.55 -16.3 5.6 -17.55 3.35
L -17.95 2.5 -18.15 1.4
Q -18.6 -2.35 -18.4 -3.9 -18.3 -4.5 -18.4 -4.75 -18.5 -4.95 -18.7 -5.05 -18.9 -5.15 -19.1 -5.05 -19.35 -4.9 -19.35 -4.45
L -19.5 -2.25
Q -19.5 -1.45 -19.15 1.45
L -19.1 1.55 -20.5 0.85 -20.7 0.7
Q -21.45 0.35 -21.85 0.1
L -22.85 -0.8
Q -23.35 -1.1 -23.6 -1.05
M -6.9 3.05
L -6.25 3.25
Q -5.95 3.5 -5.75 4.05 -5.35 4.95 -5.35 5.55 -5.35 6.3 -5.85 7.15 -7.05 9.25 -10.6 10.8 -12.25 11.55 -13.4 11.65 -15.3 11.6 -16.25 11.7 -17.55 11.9 -18.2 12 -19.4 12.2 -20.2 12
L -21.35 11.45
Q -22.45 10.85 -23.15 10.1 -24.05 9.15 -24.1 8.1 -24.25 6.35 -22.35 5 -21.45 4.4 -18.85 3.75 -18.7 3.7 -18.55 3.65 -18.55 3.75 -18.5 3.8 -17.4 5.95 -14.6 7.45 -14 7.7 -13.85 7.65 -13.65 7.65 -13.3 7.4 -12.25 6.75 -11.85 6.1 -11.5 5.6 -11.3 4.7 -11.15 4 -11.15 3.05 -10.95 3.05 -10.75 3 -8.75 2.75 -6.9 3.05
M -87.5 -63.15
Q -87.75 -63.15 -89.15 -62.75 -92.25 -61.75 -93.5 -60.65 -93.85 -60.3 -93.85 -60.1 -93.9 -59.95 -93.5 -59.3 -93.25 -58.9 -92.9 -58 -92.6 -57.4 -91.9 -56.7
L -85.05 -49.3
Q -83.9 -47.95 -83.85 -47.1 -83.85 -46.2 -84.8 -45.15 -85.3 -44.5 -86.2 -43.8 -86.7 -43.35 -87.8 -42.55 -88.75 -41.8 -89.25 -41.15 -89.75 -40.55 -90.45 -39.15 -91.05 -38 -91.15 -37.55 -91.25 -37.3 -91.5 -35.85 -91.6 -35.2 -91.5 -34.6 -91.3 -33.9 -91 -33.55 -90.55 -32.85 -89.7 -32.55
L -87.6 -31.95
Q -87.3 -31.85 -86.7 -31.6 -86.15 -31.4 -85.75 -31.35 -85.15 -31.35 -84.55 -31.5 -83.9 -31.6 -83.65 -31.85 -83.4 -32.05 -83.25 -32.6 -82.9 -33.75 -82.7 -34.3 -82.35 -35.3 -81.9 -35.9 -81 -36.95 -78.65 -37.75 -78.1 -38 -77.8 -37.7 -77.75 -37.65 -77.7 -37.55 -77.7 -37.6 -77.65 -37.6 -77.3 -37.7 -76.6 -37.5
L -65.25 -34.05
Q -63.65 -33.55 -63 -33.1 -62.1 -32.5 -61.1 -30.85 -59.95 -29.1 -59.3 -28.5
L -58.4 -27.75 -57.75 -26.95 -57.05 -26.4
Q -56.6 -26.1 -54.2 -24.1 -53.3 -23.35 -51.45 -22.1 -50.3 -23.4 -48.75 -25.3 -47.85 -26.5 -47.7 -26.7
L -47.2 -27.65
Q -46.85 -28.25 -45.85 -29.45 -44.9 -30.6 -44.55 -31.3 -44.2 -31.95 -43.85 -32.9
L -43.4 -34.1
Q -43.35 -34.2 -43.3 -34.3 -44.5 -34.8 -44.8 -34.85
L -46.75 -35.15
Q -48.65 -35.55 -49.6 -36.35 -50.2 -36.85 -51 -38.25 -52.6 -40.85 -54.2 -44.1 -55.15 -45.9 -55.6 -47.4 -55.9 -48.75 -56.1 -49.4 -56.45 -50.6 -57 -51.3 -57.2 -51.6 -57.35 -51.85 -57.45 -51.85 -57.55 -51.95 -57.85 -52.25 -58.05 -52.4 -59 -52.7 -59.15 -53.15 -59.3 -53.55 -58.6 -54.25 -58.15 -54.7 -57.7 -55.5
L -55.65 -59.15
Q -54.5 -61.5 -54.25 -62.6 -54 -63.75 -54.3 -64.5 -54.5 -64.95 -54.95 -65.5 -55.75 -66.4 -56.45 -66.75 -57 -67 -57.45 -66.95 -57.8 -66.9 -58.3 -66.6
L -59.45 -66.15
Q -60.25 -65.8 -61.65 -64.9
L -66.3 -61.85
Q -66.7 -61.55 -67 -61.6 -67.35 -61.65 -67.55 -62.05
L -67.9 -62.7
Q -68.1 -62.95 -68.6 -63.3 -69.1 -63.65 -69.3 -63.9 -69.6 -64.45 -69.75 -64.7
L -72.45 -67.65
Q -72.85 -68.05 -73.1 -68.15 -73.3 -68.2 -74.1 -68.1 -75.05 -67.9 -75.7 -68.1 -76.45 -68.4 -76.85 -68.55 -77.5 -68.75 -78.45 -68.6 -79.5 -68.4 -80.05 -68.35 -81.4 -68.1 -81.65 -67.9 -81.9 -67.75 -82.15 -67.4 -82.25 -67.15 -82.55 -66.75
L -83.35 -65.85
Q -83.75 -65.35 -84.25 -63.7 -83.65 -63.5 -83.1 -63.3
L -81.95 -62.8
Q -81.05 -62.25 -79.55 -60.7
L -79 -60.2
Q -78.75 -59.75 -79.05 -59.45 -79.35 -59.2 -79.95 -59.65 -80.3 -59.95 -81.2 -60.8 -81.9 -61.55 -82.45 -61.9 -82.9 -62.15 -83.8 -62.45 -86.1 -63.3 -87.5 -63.15
M 9.35 22.5
Q 7.65 22.65 6.65 22.65 5.85 22.65 2.75 22.4 0.35 22.2 -1.2 22.3 -2.25 22.4 -4.05 22.75 -6.05 23.1 -6.95 23.2
L -14.6 23.5
Q -17.55 23.7 -19.4 23.45 -22.55 22.8 -24.1 22.55 -26.3 22.2 -30.8 22.3 -32.3 22.3 -33 22.4 -33.75 22.45 -35.5 22.75 -38.2 23.15 -42.3 23.3 -42.4 23.3 -42.5 23.35 -50.25 25.8 -54.15 27.75 -60.4 30.9 -63.95 35.3 -68.25 40.7 -68.05 46.8 -68 48.95 -67.05 52.45 -65.9 56.8 -64.25 60.35 -55.4 59.9 -49.2 60
L -43.3 60.15
Q -39.35 60.25 -33.3 60.15 -33.9 58.95 -34 58.8 -34.65 57.8 -34.95 57.25 -35.5 56.35 -35.75 55.7 -36.05 54.65 -36 53.15 -35.8 51.4 -35.75 50.55 -35.65 48.65 -35.65 47.7 -35.55 46 -35.25 44.9 -34.7 43.35 -34.45 42.6
L -33.95 40.85
Q -33.55 39.85 -31.95 37.8 -31.05 36.8 -30.7 36.55 -30.3 36.3 -29.65 36.1 -29.05 35.9 -28.75 35.8 -30.45 35.55 -31.5 35.5
L -32.05 35.4
Q -32.4 35.25 -32.4 34.95 -32.5 34.55 -31.95 34.45
L -31.2 34.5
Q -30.9 34.55 -30.2 34.55 -29.6 34.55 -29.25 34.65 -28.8 34.7 -27.95 34.95 -27.2 35.1 -25.35 35.2 -23.7 35.25 -22.8 35.5 -22.35 35.65 -21 36.2 -19.5 36.75 -17.65 36.85 -17.15 36.85 -16.9 36.95 -16.5 37.15 -16.6 37.55 -16.75 37.9 -17.35 37.9 -18.7 37.85 -19.85 37.55 -20 38.75 -20.65 40.75 -20.8 41.65 -20.8 43.5 -20.8 45.05 -20.6 45.8 -20.45 46.45 -19.9 47.65 -19.7 48.35 -19.7 49.85 -19.7 52.4 -19.6 53.65 -19.45 57.25 -18.6 59.9 -18.4 59.9 -18.25 59.9
L -1.1 60.15
Q 10.85 60.35 16.8 61.05 20.75 61.5 21.95 61.5 23.2 61.55 26.9 61.2 29.2 61.05 31.85 60.95
L 31.4 60.5
Q 24.9 54 22.35 50.9 21.65 50.05 18.25 45.55
L 14.1 39.9
Q 12 37 11.6 35.25 10.95 32.45 13 28 14.35 25.1 16.1 22.4 16.1 22.3515625 16.15 22.35
L 12.05 22.35
Q 11.3 22.35 9.35 22.5
M 36.9 -16.5
Q 33.75 -16.55 31.65 -16.55 32.55 -11.9 33.25 -6.3 33.45 -4.9 33.7 -4.15 34.15 -3 34.95 -2.45
L 35.4 -2.15
Q 35.45 -2.1 35.5 -2.05 36.55 -2.15 37.8 -2.3 39.7 -2.5 40.65 -2.7 41.7 -2.95 43.75 -3.6 45.4 -4.05 48.1 -4.35 51.7 -4.7 52.4 -4.8 53.25 -4.9 56.65 -5.6 59.2 -6.15 60.85 -6.2 62.7 -6.3 65.7 -5.95 68.15 -5.65 69.3 -5.15 70.3 -4.65 71.55 -3.5 73.3 -1.9 73.65 -1.6 75.05 -0.45 77.15 0.4 78.5 0.9 81.1 1.65 82.5 2.05 83.3 2 84.3 1.95 85.3 1.25 86.1 0.75 86.4 0.15 87.25 -1.45 85.75 -4.15 83.1 -8.65 78.8 -11.75 78.2 -12.15 78.2 -12.55 78.15 -13.25 79.2 -13.35 80.15 -13.45 82.35 -12.55 84.9 -11.6 87.7 -11.5 89.8 -11.5 91.1 -12.05 92.85 -12.7 93.6 -14.3 94.05 -15.4 93.95 -17.5 93.75 -19.75 93.15 -20.65 92.6 -21.4 91.45 -22.1 90.1 -22.95 87.75 -24 84.7 -25.4 83.95 -25.8 83.5 -26 83.3 -26.35 83.1 -26.8 83.6 -27.55 84.5 -29.2 85.05 -30.8 85.45 -31.85 85.25 -32.5 85.05 -33.25 84.1 -34.05 82.4 -35.45 80.55 -36.4 80.9 -36.45 81.2 -36.45 78.8 -37.55 77.5 -37.45 76.85 -37.35 75.15 -36.7 73.7 -34.55 71.5 -33.5 71.1 -33.3 70.85 -33.3 70.75 -33.3 70.65 -33.3 69.4 -32.7 67.95 -32.5 67.5 -32.4 67.3 -32.6 67.05 -32.8 67.3 -33.8 67.5 -34.4 67.2 -35.7 67 -36.85 66.55 -37.5 65.95 -38.3 64.65 -38.65 63.3 -39 61.85 -38.65 60.45 -38.35 59.35 -37.5 58.35 -36.65 57.9 -35.5 57.5 -34.45 57.7 -32.15 58 -26.95 57.4 -22.2 57.4 -22.15 57.4 -22.1
L 57.3 -21.55
Q 57.25 -21.5 57.25 -21.45 57.2 -21.25 57.15 -21.15
L 56.75 -20.2 56.3 -19.45
Q 56.1 -19.3 55.5 -19.05
L 53.4 -18.4
Q 50.85 -17.5 49.15 -17.2 48.05 -17 45.65 -16.8 44.55 -16.7 44 -16.7 41.05 -16.5 36.9 -16.5
M 2.8 -20.7
Q 1.6 -21.6 1.25 -21.95 -0.15 -23.2 -0.3 -23.3 -0.85 -23.65 -1.85 -23.85
L -3.45 -24.2
Q -4.35 -24.5 -4.75 -24.65 -5.55 -24.9 -6.1 -24.9
L -6.6 -24.95
Q -6.85 -25.05 -6.95 -25.3 -7.95 -25.15 -9.45 -25.45 -11.8 -25.95 -12 -25.95 -13.3 -26.05 -13.95 -26.2 -14.7 -26.35 -15.75 -26.9 -19 -28.3 -21.9 -28.9
L -21.55 -27.2
Q -20.9 -25 -20.45 -24.1
L -19.65 -22.7
Q -17.95 -20.1 -16.7 -19.2 -16.05 -18.75 -14.8 -18.2 -13.4 -17.6 -12.85 -17.25 -12.4 -16.9 -12.05 -17.1 -11.9623046875 -17.1439453125 -11.9 -17.2 -11.95625 -17.14375 -12 -17.1 -11.45 -17.1 -11.15 -17 -10.5 -16.75 -10.45 -16.75
L -9.95 -16.95
Q -9.6 -17.15 -8.15 -17.15 -6.05 -17.15 -3.6 -18 -0.3 -19 2.8 -20.7 Z"/>
</g>

<g id="face_5_Layer1_0_MEMBER_0_FILL">
<path fill="#000000" stroke="none" d="
M 192.1 56
L 175.65 53.95 155.1 55
Q 140.55 54.15 127.4 58.25 114.8 61.95 98.15 71.95 85.4 79.6 74.05 94.2 68.55 101.5 65.5 107.2 61.45 113.7 57.4 125.85 49.1 150.35 48.55 180.15 48.55 181.25 38.55 191.15 28.5 201.15 28.5 202.15
L 36.25 201.35 45.7 199
Q 44 230.95 29.35 251.5 22.35 261.55 16.85 265.25 29 265.35 37.7 261 42.05 258.95 44.05 256.75 41.5 264.5 28.25 274.8
L 17.25 283.3
Q 28.45 284.75 39 281.9 48.85 279.3 56.75 273.3 65.75 325.7 85.05 339.75 86.05 340.45 85.9 336.75
L 85.4 331.3 91.15 337.8
Q 97.7 344.5 106.5 348.25
L 114 355.65 122.9 366.25
Q 136.2 382 145.3 388.75 154.7 395.75 163.15 395.75 171 395.6 183.1 386.5
L 198.15 373.3 208.5 362.75 221.6 348.5
Q 229.9 344.75 236.1 336.75 240.15 329.9 240.3 330.65 240.7 332.25 239.85 336.5 238.8 341.6 238.8 343.8 246.85 338.45 252.5 329.8
L 256.6 322.3 257.85 327.25
Q 258.65 330.75 259.5 332.15 264.9 323.25 270.35 311.5 281.55 287.8 283.2 270.75 284.95 251.4 282.7 238.65 279.5 225.3 278.5 215.15 284.3 223.65 293.5 229.65 301.9 235.15 301.7 232.65
L 287.1 194.9
Q 281.85 179.45 280.35 161.7 276.6 136.55 274.35 128 271 114.95 262.85 100.35 257.3 90.1 250 82.6 240.4 72.85 226.85 66.6 211.45 59.5 192.1 56 Z"/>
</g>

<g id="face_5_Layer1_0_MEMBER_1_FILL">
<path fill="#FFFFFF" stroke="none" d="
M 170.3 161.85
Q 180.05 150.95 175.6 153.65 146.85 170.85 112.55 180.2 95 185.1 83.65 186.4 81.95 207.3 81.9 214.85 81.75 221.5 82.9 233.85 83.6 242.2 86.05 251
L 89.8 263.25
Q 92.75 273.7 93.5 293.5 94.25 314.4 96 322.4 99.2 337.45 113.05 350.9 120.05 357.6 131.85 367.15
L 144.5 380.75
Q 154.35 389.8 163.6 389.8 170.05 389.8 178.6 383.4
L 190.6 372.9
Q 205.45 362.15 213.5 355.3 227.8 343.1 231.6 328 233.5 320.35 234.15 296.8 234.65 276.4 240.35 260.9 244.8 248.95 246.3 240.2
L 246.85 233.7
Q 248.35 220.5 248.85 191
L 249.15 163.65
Q 249.15 141.3 241.15 145.4 209.35 162.1 180.5 170.9 155.7 178.4 158.15 175
L 170.3 161.85 Z"/>
</g>

<g id="face_5_Layer1_0_MEMBER_2_FILL">
<path fill="#FFFFFF" stroke="none" d="
M 75.05 221.7
Q 72.95 222.45 72.3 224 69.15 230.5 80.3 249.35
L 75.05 221.7 Z"/>
</g>

<g id="face_5_Layer1_0_MEMBER_3_FILL">
<path fill="#FFFFFF" stroke="none" d="
M 69.5 209.85
Q 65.4 207.4 65 220.5
L 66.65 230.7
Q 68.95 242.15 71 246.85 73.1 251.75 78.15 257.4
L 83 262.15 80.8 252
Q 76.45 245.1 73.8 238.7 69.3 228.15 71.4 223.65 72.35 221.55 74.9 220.7
L 73.5 214.7
Q 71.5 210.85 69.5 209.85 Z"/>
</g>

<g id="face_5_Layer1_0_MEMBER_4_FILL">
<path fill="#FFFFFF" stroke="none" d="
M 257 224
Q 256.2 222.4 254.15 221.7
L 249 249.35
Q 259.85 230.25 257 224 Z"/>
</g>

<g id="face_5_Layer1_0_MEMBER_5_FILL">
<path fill="#FFFFFF" stroke="none" d="
M 254.35 220.7
Q 257.85 221.85 258.35 225.4 259.2 230.45 254.85 240.15 251.6 247.5 248.35 252.2
L 246.3 262.15 251 257.4
Q 256.1 251.85 258.25 246.85 261.6 239.05 264.25 220.5 263.85 207.4 259.75 209.85
L 255.8 214.7 254.35 220.7 Z"/>
</g>

<g id="face_5_Layer1_0_MEMBER_6_FILL">
<path fill="#000000" stroke="none" d="
M 155.85 314.4
Q 146.05 309.9 141.1 309.15 139.05 309 121.15 321.65 102.65 334.75 96.15 336 99.65 347.45 101.4 350.5 104.5 356.1 113.3 364.3 121.2 371.85 136.8 374.15
L 189.3 375.8
Q 203.05 375 212 368.75 223.35 360.55 227.1 351 229 345.9 228.85 338.4 224.95 338.55 210.35 325.4 195.3 311.8 189.8 310.9 184.75 311.35 176.35 314.9 168.25 318.4 167.1 318.4 164.95 318.4 155.85 314.4 Z"/>
</g>

<g id="face_5_Layer1_0_MEMBER_7_FILL">
<path fill="#FFFFFF" stroke="none" d="
M 122.65 362.4
Q 130.1 366.55 143.8 367.5 148.75 367.9 165.3 367.65
L 184.15 368.5
Q 195.45 368.5 201.15 366.3 220.15 359.05 222.65 345.15 206.55 343.65 199.15 348.65 195.8 348.9 187.1 348.4
L 167.3 347.8 134.35 347.65
Q 130.65 345.05 125.9 344.3
L 104.65 342.9
Q 107.85 350.35 111.5 354.3 115.35 358.4 122.65 362.4 Z"/>
</g>

<g id="face_5_Layer1_0_MEMBER_8_FILL">
<path fill="#FFFFFF" stroke="none" d="
M 141.15 316.65
Q 137.4 318.2 126.05 325.65
L 106.55 337.3 117.5 337.9
Q 130.5 337.9 140.6 334.75
L 153.8 330.8
Q 160.8 329.1 166.85 329.25 174.25 329.35 179.6 331.25
L 188.6 335.25
Q 195.35 338.5 202 339.4
L 218.8 339.9
Q 213.55 336.45 204.8 328.3 196.1 320.4 193.1 318.25 189.05 315.6 183 318.3
L 174 323.4
Q 169 326.15 161.6 322.9 153.95 319.15 151 317.9 144.5 315.25 141.15 316.65 Z"/>
</g>

<g id="face_5_Layer1_0_MEMBER_9_FILL">
<path fill="#FFFFFF" stroke="none" d="
M 142.1 341.25
Q 139.1 341.75 144.8 341.65
L 165.65 341.65 185 342.75
Q 191.2 343.2 189.6 342.75 186.5 342.05 179 338.8 172.85 336.25 166.3 336.25 159.25 336.25 152.65 338.25
L 142.1 341.25 Z"/>
</g>

<g id="face_5_Layer1_0_MEMBER_10_FILL">
<path fill="#FFFFFF" stroke="none" d="
M 158.1 303.4
L 161.65 333.3 171.1 333.5 172.5 305.9 158.1 303.4 Z"/>
</g>

<g id="face_5_Layer1_0_MEMBER_11_FILL">
<path fill="#000000" stroke="none" d="
M 157.1 234.35
L 150.6 234.15 153.3 247.5
Q 156.1 263.5 156.15 276.15
L 156.1 295.15 152 296.8
Q 148 299.7 149.1 305.15 149.8 309.2 153.8 317.3 158.25 326.45 158.65 328.15
L 160.15 333.5 160.5 337.75 173.6 338
Q 174.2 321.55 176.65 317.25 179.6 312.1 179.5 305.15 179.35 297 174.15 295.5
L 177.85 244.7 178 233.4 172.6 234.65 172.85 251.9 170.3 316.4
Q 169.85 331.5 170.1 333.3
L 163.6 333
Q 161 309.8 161 306.8 160.7 264.95 159.1 254.2
L 157.1 234.35 Z"/>
</g>

<g id="face_5_Layer1_0_MEMBER_12_FILL">
<path fill="#FFFFFF" stroke="none" d="
M 157.5 314.9
L 156.3 300
Q 151.65 300 154 308.3 155 311.6 157.5 314.9 Z"/>
</g>

<g id="face_5_Layer1_0_MEMBER_13_FILL">
<path fill="#000000" stroke="none" d="
M 227.6 213.9
Q 218.05 205.2 204.85 205.2 191.9 205.2 182.15 213.9 172.6 222.75 172.6 234.65 172.7 246.9 182.3 255.35 191.75 263.65 204.85 263.65 217.75 263.65 226.35 255.5 234.9 247.55 236.1 234.9 237.25 222.85 227.6 213.9 Z"/>
</g>

<g id="face_5_Layer1_0_MEMBER_14_FILL">
<path fill="#FFFFFF" stroke="none" d="
M 223.3 213.85
Q 215.3 206 204.3 206 193.25 206 185.3 213.85 177.3 221.7 177.3 232.7 177.3 243.75 185.3 251.4 193.2 259.15 204.3 259.15 215.3 259.15 223.3 251.4 231.15 243.65 231.15 232.65 231.15 221.55 223.3 213.85 Z"/>
</g>

<g id="face_5_Layer1_0_MEMBER_15_FILL">
<path fill="#000000" stroke="none" d="
M 145.15 212.7
Q 136 204 122.9 204 109.95 204 100.55 212.7 91.4 221.4 91.4 233.7 91.4 246 100.55 254.7 109.95 263.4 122.9 263.4 136 263.4 145.15 254.7 154.35 246 154.35 233.7 154.35 221.4 145.15 212.7 Z"/>
</g>

<g id="face_5_Layer1_0_MEMBER_16_FILL">
<path fill="#FFFFFF" stroke="none" d="
M 141.65 213.9
Q 134 206.15 122.8 206.15 111.75 206.15 103.9 213.9 96.05 221.75 96.05 232.65 96.05 243.55 103.9 251.15 111.8 258.8 122.8 258.8 133.95 258.8 141.65 251.15 149.5 243.45 149.5 232.65 149.5 221.7 141.65 213.9 Z"/>
</g>

<g id="head_0_Layer1_1_FILL">
<path fill="#000000" stroke="none" d="
M 227.6 213.9
Q 218.15 205.2 205 205.2 191.85 205.2 182.3 213.9 172.6 222.8 172.6 234.5 172.6 246.9 182.3 255.4 191.7 263.65 205 263.65 217.65 263.65 226.5 255.5 235.05 247.5 236.1 234.9 237.35 223.05 227.6 213.9 Z"/>
</g>

<g id="head_0_Layer1_2_FILL">
<path fill="#FFFFFF" stroke="none" d="
M 223.35 213.7
Q 215.5 205.9 204.35 205.9 193.3 205.9 185.3 213.9 177.3 221.6 177.3 232.7 177.3 243.85 185.3 251.4 193.2 259.15 204.35 259.15 215.55 259.15 223.35 251.4 231.1 243.6 231.1 232.65 231.1 221.75 223.35 213.7 Z"/>
</g>

<g id="head_0_Layer1_3_FILL">
<path fill="#000000" stroke="none" d="
M 215.1 245.65
Q 219.5 241.55 219.5 235.4 219.5 229.6 215.1 225.2 210.75 221 204.6 221 198.5 221 194.3 225.2 189.85 229.6 189.85 235.4 189.85 241.6 194.3 245.65 198.35 249.7 204.6 249.7 211 249.7 215.1 245.65 Z"/>
</g>

<g id="head_0_Layer1_4_FILL">
<path fill="#000000" stroke="none" d="
M 145.15 212.65
Q 135.85 203.9 123 203.9 110.25 203.9 100.65 212.65 91.5 221.2 91.5 233.65 91.5 246.15 100.65 254.7 109.9 263.4 123 263.4 136.1 263.4 145.15 254.7 154.5 245.95 154.5 233.65 154.5 221.3 145.15 212.65 Z"/>
</g>

<g id="head_0_Layer1_5_FILL">
<path fill="#FFFFFF" stroke="none" d="
M 141.65 213.9
Q 134 206.15 122.9 206.15 111.7 206.15 104 213.9 96.15 221.45 96.15 232.65 96.15 243.7 104 251.15 111.75 258.75 122.9 258.75 134 258.75 141.65 251.15 149.5 243.7 149.5 232.65 149.5 221.45 141.65 213.9 Z"/>
</g>

<g id="head_0_Layer1_6_FILL">
<path fill="#000000" stroke="none" d="
M 132.5 245.5
Q 136.85 241.3 136.85 235.4 136.85 229.55 132.5 225.2 128.25 221.15 122.15 221.15 116.1 221.15 111.65 225.2 107.5 229.45 107.5 235.4 107.5 241.3 111.65 245.5 115.85 249.7 122.15 249.7 128.45 249.7 132.5 245.5 Z"/>
</g>

<g id="forward_eyes_3_Layer0_0_FILL">
<path fill="#000000" stroke="none" d="
M 227.85 213.85
Q 218.5 205.15 205.1 205.15 191.95 205.15 182.35 213.85 172.8 222.65 172.8 234.5 172.9 245.95 184.5 253.5 194.55 260.15 205.35 260.15 218.65 260.15 226.8 253.7 235.05 247.15 236.35 234.85 237.55 222.8 227.85 213.85 Z"/>
</g>

<g id="forward_eyes_3_Layer0_1_FILL">
<path fill="#FFFFFF" stroke="none" d="
M 223.5 213.7
Q 215.55 205.9 204.5 205.9 193.4 205.9 185.5 213.7 177.5 221.65 177.5 232.65 177.5 243.65 185.5 251.35 193.4 259 204.5 259 215.55 259 223.5 251.35 231.35 243.6 231.35 232.5 231.35 221.5 223.5 213.7 Z"/>
</g>

<g id="forward_eyes_3_Layer0_2_FILL">
<path fill="#000000" stroke="none" d="
M 215.35 245.5
Q 219.65 241.35 219.65 235.4 219.65 229.35 215.35 225.2 211 220.9 204.85 220.9 198.8 220.9 194.35 225.2 190.1 229.4 190.1 235.4 190.1 241.35 194.35 245.5 198.7 249.7 204.85 249.7 211.1 249.7 215.35 245.5 Z"/>
</g>

<g id="forward_eyes_3_Layer0_3_FILL">
<path fill="#000000" stroke="none" d="
M 236.3 220
Q 228.35 203.45 208 203.35 185.35 203.2 176.8 218.9 172.6 226.8 172.8 234.5
L 173.65 238.85
Q 175.05 243.9 177.8 248.35 186.35 262 204.85 262 224.05 262 233.85 249.35 238.85 243.05 240 236.65 240.15 228.4 236.3 220 Z"/>
</g>

<g id="forward_eyes_3_Layer0_4_FILL">
<path fill="#FFFFFF" stroke="none" d="
M 229.5 241.2
Q 234 236.3 235.5 231.4 234.75 225.4 231.1 219.35 223.65 207.3 208.15 206.9 190.3 206.55 181.8 218.4 177.5 224.5 177 230.4
L 177.8 233.5
Q 179.1 237.35 181.5 240.4 189.15 250.4 205.35 250.65 220.5 250.95 229.5 241.2 Z"/>
</g>

<g id="forward_eyes_3_Layer0_5_FILL">
<path fill="#000000" stroke="none" d="
M 145.35 212.65
Q 136.15 203.9 123.05 203.9 110.15 203.9 100.8 212.65 91.55 221.3 91.55 233.65 91.55 245.4 101.55 253.15 111 260.35 123.5 260.25 137.5 260.1 146 253 154.6 245.75 154.6 233.65 154.6 221.3 145.35 212.65 Z"/>
</g>

<g id="forward_eyes_3_Layer0_6_FILL">
<path fill="#FFFFFF" stroke="none" d="
M 141.85 213.85
Q 134 206 123 206 112.05 206 104.05 213.85 96.3 221.6 96.3 232.5 96.3 243 104.05 249 111.4 254.7 123 254.7 134.65 254.7 141.85 249 149.65 243.05 149.65 232.5 149.65 221.45 141.85 213.85 Z"/>
</g>

<g id="forward_eyes_3_Layer0_7_FILL">
<path fill="#000000" stroke="none" d="
M 122.3 245.65
Q 137 245.65 137 235.35 137 229.4 132.65 225.2 128.4 221.15 122.3 221.15 116.2 221.15 111.9 225.2 107.55 229.4 107.55 235.35 107.55 245.65 122.3 245.65 Z"/>
</g>

<g id="forward_eyes_3_Layer0_8_FILL">
<path fill="#000000" stroke="none" d="
M 153 219.9
Q 144.45 203.35 124.4 203.35 103.7 203.35 95.55 218.9 91.5 226.65 91.55 234.4
L 99.4 245.15
Q 109.75 255.95 122.55 256 137.1 256.15 148.8 246.35 154.65 241.35 157.5 236.5 157.3 228.2 153 219.9 Z"/>
</g>

<g id="forward_eyes_3_Layer0_9_FILL">
<path fill="#FFFFFF" stroke="none" d="
M 148.1 218.9
Q 140.1 206.95 125.3 206.85 109.1 206.7 100.9 218.2 96.75 223.95 96 229.65
L 96.9 232.65
Q 98.2 236.25 100.5 239.35 108 249 122.65 249.15 137.1 249.25 146.6 240.15 151.45 235.45 153.15 230.9 152.2 224.95 148.1 218.9 Z"/>
</g>

<g id="eyebrows_8_Layer0_0_FILL">
<path fill="#000000" stroke="none" d="
M 153.1 194.4
L 136.65 193.85
Q 117.55 194.6 103.5 202.15
L 103.05 204.85
Q 93.7 207.7 86.8 208.2
L 81.5 208.2 81.4 212 88.9 212
Q 98.1 211.55 108 208.65 121.35 204.65 139 205.7 148.3 206.4 153.8 207.65
L 153.1 194.4 Z"/>
</g>

<g id="eyebrows_8_Layer0_1_FILL">
<path fill="#000000" stroke="none" d="
M 190.15 185.65
L 176.8 189.35 176.6 203.15
Q 200.45 191.5 228.35 195.5 242.35 197.55 251.5 201.85
L 250.85 197.5
Q 242.35 193.75 233.8 191.2
L 226.3 189.2 225.6 186.15
Q 207.25 182.7 190.15 185.65 Z"/>
</g>

<g id="Layer1_0_FILL">
<path fill="#FFFFFF" stroke="none" d="
M 174.55 28
Q 174.25 26.9 173.65 26.55 172.65 25.85 171.4 26.85 170.3 28 169.7 28.55 169.2 29.05 168.7 29.05 168.35 29.05 167.7 28.5
L 160.1 21.75
Q 156.4 18.45 154.05 17.35 153.3 17 151.9 16.5 150.3 15.95 149.7 15.7 149.15 15.45 146.5 14.1 144.5 13.1 143.15 12.8 141.55 12.35 138.7 12.45 132.05 12.55 129.85 12.3 125.6 11.55 123.45 11.35 121.05 11.1 117.35 11.2 111.45 11.4 108.5 11.7 105.75 12 100.55 13 95.15 14 92.55 14.3 86.8 14.8 83.95 15.25 78.3 16.4 75.45 16.65 74.8 16.7 72 16.85 69.85 16.95 68.55 17.15 66.8 17.4 63.5 18.4
L 44.25 24.2
Q 42.95 24.65 42.65 24.95 41.8 25.7 42.1 26.55 42.4 27.3 43.4 27.4 43.95 27.45 45.05 27.15
L 62.35 21.8
Q 67.4 20.4 69.25 20.1 71.6 19.8 76.2 19.6 79 19.3 84.5 18.1 87.15 17.7 92.55 17.35 95.15 17.05 100.05 16.1 105.1 15.15 107.55 14.85 110.8 14.5 115.45 14.3 121.3 14.1 124.25 14.45 125.35 14.55 127.8 14.95 130.05 15.35 131.35 15.45 132.7 15.55 138.05 15.45 140.65 15.35 141.9 15.6 143.3 15.85 145.2 16.8
L 148.35 18.3
Q 149.75 18.9 152.6 20 155.15 21.25 159.45 25.05
L 166.55 31.45
Q 166.3 32.55 164.75 33.1 163.1 33.6 162.4 34.1 161.85 34.45 161.6 35.05 161.3 35.7 161.5 36.25 161.75 36.85 162.8 37.35 167.55 39.9 171.8 41.4 174.15 42.2 175.2 41.35 176 40.65 176.1 38.8 176.35 33.15 174.55 28
M 192.65 58.85
L 192.65 53.4 184.65 53.4 184.65 58.8 184.6 58.8
Q 183.8 59.05 183.1 59.45
L 179.2 55.55 173.55 61.2 177.45 65.1
Q 177.05 65.8 176.8 66.55
L 170.85 66.55 170.85 74.55 176.55 74.55
Q 176.85 75.8 177.35 76.9
L 173.85 80.4 179.55 86.05 183.1 82.5
Q 183.85 82.9 184.65 83.2
L 184.65 87.9 192.65 87.9 192.65 83.1
Q 193.65 82.75 194.6 82.25
L 197.95 85.6 203.6 79.95 200.05 76.4
Q 200.45 75.6 200.7 74.75 200.75 74.65 200.75 74.55
L 205.35 74.55 205.35 66.55 200.55 66.55
Q 200.35 66.05 200.1 65.5
L 203.95 61.65 198.25 56 194.55 59.7
Q 193.6 59.2 192.65 58.85
M 186.8 69.4
Q 186.85 69.35 186.95 69.25 187.1 69.1 187.35 69
L 187.9 68.75
Q 189.15 68.5 190.1 69.25 190.85 70 190.95 71.05 190.95 71.1 190.95 71.25 190.65 72.45 189.5 73
L 189.4 73.05 189.05 73.15
Q 188.35 73.3 187.75 73.1
L 187.2 72.85
Q 186.95 72.7 186.75 72.5 186.6 72.35 186.5 72.15
L 186.3 71.55
Q 186.05 70.4 186.8 69.4 Z"/>

<path fill="#66CC66" stroke="none" d="
M 172 54.55
Q 165.1 61.45 165.1 71.25 165.1 81.05 172 87.95 178.9 94.85 188.7 94.85 198.5 94.85 205.4 87.95 212.3 81.05 212.3 71.25 212.3 61.45 205.4 54.55 198.5 47.65 188.7 47.65 178.9 47.65 172 54.55
M 192.65 53.4
L 192.65 58.85
Q 193.6 59.2 194.55 59.7
L 198.25 56 203.95 61.65 200.1 65.5
Q 200.35 66.05 200.55 66.55
L 205.35 66.55 205.35 74.55 200.75 74.55
Q 200.75 74.65 200.7 74.75 200.45 75.6 200.05 76.4
L 203.6 79.95 197.95 85.6 194.6 82.25
Q 193.65 82.75 192.65 83.1
L 192.65 87.9 184.65 87.9 184.65 83.2
Q 183.85 82.9 183.1 82.5
L 179.55 86.05 173.85 80.4 177.35 76.9
Q 176.85 75.8 176.55 74.55
L 170.85 74.55 170.85 66.55 176.8 66.55
Q 177.05 65.8 177.45 65.1
L 173.55 61.2 179.2 55.55 183.1 59.45
Q 183.8 59.05 184.6 58.8
L 184.65 58.8 184.65 53.4 192.65 53.4
M 186.95 69.25
Q 186.85 69.35 186.8 69.4 186.05 70.4 186.3 71.55
L 186.5 72.15
Q 186.6 72.35 186.75 72.5 186.95 72.7 187.2 72.85
L 187.75 73.1
Q 188.35 73.3 189.05 73.15
L 189.4 73.05 189.5 73
Q 190.65 72.45 190.95 71.25 190.95 71.1 190.95 71.05 190.85 70 190.1 69.25 189.15 68.5 187.9 68.75
L 187.35 69
Q 187.1 69.1 186.95 69.25 Z"/>
</g>

<g id="Symbol_3_0_Layer0_0_FILL">
<path fill="#000000" stroke="none" d="
M -5.7 9.25
Q -5.7 8.85 -5.8 8.7 -5.9 8.35 -6.2 8.45
L -6.35 8.5
Q -6.6 8.6 -6.7 8.85
L -6.75 9.4 -6.7 10.15 -8.9 10.25
Q -9.75 10.45 -10.2 10.5 -11 10.65 -11.55 10.6 -11.85 9.5 -11.45 7.25
L -10.55 3.5
Q -10.35 2.95 -10.4 2.8 -10.55 2.4 -11.05 2.5 -11.45 2.65 -11.55 3.1
L -12.1 5.65
Q -12.65 7.7 -12.7 9.15 -12.7 10.25 -12.55 10.75 -12.35 11.3 -12 11.5 -11.7 11.65 -11.3 11.65 -10.65 11.65 -9.7 11.5
L -8.15 11.2
Q -7.5 11.1 -6.65 11.1
L -6.45 15.2 -6.35 15.5
Q -6.25 15.8 -6 15.8 -5.75 15.8 -5.55 15.6 -5.45 15.45 -5.45 15.05
L -5.55 12.5 -5.65 12
Q -5.75 11.7 -5.75 11.1 -5.45 11.1 -5.1 11.1 -4.7 11.1 -4.55 11 -4.3 10.85 -4.35 10.55 -4.35 10.25 -4.6 10.15 -4.7 10.05 -5.05 10.05
L -5.7 10.1 -5.7 9.25
M -11.7 -16.2
Q -11.95 -16.2 -12.25 -16 -14.45 -14.35 -17.2 -12.15 -17.6 -11.75 -17.6 -11.7 -17.7 -11.45 -17.5 -11.25 -17.3 -11 -17.05 -11.05 -16.9 -11.05 -16.5 -11.35 -14.4 -13.2 -12.25 -14.65 -12.3 -11.1 -12.05 -6.15
L -12 -5
Q -12 -4.6 -11.9 -4.45 -11.8 -4.15 -11.5 -4.15 -11.25 -4.15 -11.05 -4.45
L -11 -5.05
Q -11.15 -8.4 -11.2 -10.1 -11.35 -13.15 -11.25 -15.2 -11.15 -15.5 -11.25 -15.8 -11.4 -16.15 -11.7 -16.2
M 4.15 7.25
Q 4.05 7.15 3.65 7.05
L -3.15 6
Q -3.8 5.9 -4.05 6.15 -4.25 6.35 -4.15 6.95 -3.75 8.6 -3.25 10.05 -3 10.5 -2.9 10.6 -2.55 10.85 -1.8 10.55 0.25 10 3.3 11.1 4.5 11.6 4.9 12.1 5.25 12.5 5.3 13 5.35 13.55 5 13.9
L 3.5 14.95
Q 3.05 15.2 1.3 15.2 0.6 15.3 0.55 15.65 0.55 16 0.9 16.15 1.05 16.25 1.5 16.25 2.95 16.25 3.6 16 4.15 15.85 5.35 14.95
L 5.85 14.5
Q 6.65 13.55 6.15 12.3 5.75 11.25 4.65 10.6 4.05 10.25 2.55 9.8
L 0.9 9.4
Q -0.6 9.25 -2.05 9.55
L -2.3 9.55
Q -2.35 9.55 -2.45 9.3
L -3.1 7.1
Q -1.8 7 0.2 7.4 3.2 8 3.45 8.05 4 8.05 4.1 7.95 4.25 7.85 4.3 7.6 4.3 7.4 4.15 7.25
M 0.85 -6.85
Q 1.35 -8.45 0.55 -10.7 0.3 -11.5 -0.1 -12 -1 -13.2 -2.75 -13.6 -3.15 -13.7 -5.8 -14.25
L -6.55 -14.3
Q -7.1 -14.2 -7 -13.8 -6.95 -13.5 -6.25 -13.25
L -4.6 -13
Q -2 -12.6 -1.05 -11.5 -0.65 -11 -0.4 -10.4 0.55 -8.05 -0.5 -6.2 -0.85 -5.6 -1.7 -4.75 -2.75 -3.75 -3.05 -3.4 -3.45 -2.9 -3.3 -2.6 -3.1 -2.3 -2.35 -2.4 -1.45 -2.55 0.45 -2.55
L 5.8 -2.5
Q 6.2 -2.5 6.35 -2.6 6.7 -2.7 6.7 -3 6.7 -3.35 6.35 -3.45 6.2 -3.55 5.75 -3.55
L -1.5 -3.55
Q 0.4 -5.2 0.85 -6.85
M 10 -11.85
Q 9.15 -11.7 6.5 -10.55
L 6.2 -10.25
Q 6.05 -10.05 6.25 -9.8 6.45 -9.55 6.7 -9.55 7.1 -9.55 7.7 -9.95 9.4 -10.95 12.65 -10.95 13.75 -10.95 14.5 -10.7 14.7 -10.65 14.85 -10.4 14.95 -10.2 14.85 -9.95 14.6 -8.65 12.65 -6.7 11 -5.05 10.2 -4.15 9.85 -3.7 9.9 -3.45 10.05 -3.15 10.8 -3.15 13.3 -3.35 15.8 -2.5 16.3 -2.3 16.45 -2.15 16.6 -2 16.7 -1.25 16.8 0.2 16.45 0.95 16 2 14.2 2.7 12.4 3.4 9.55 3.9
L 4.75 4.65
Q 4.25 4.8 4.2 5.05 4.05 5.35 4.5 5.6 4.85 5.65 5.2 5.6
L 8.3 5.1
Q 12.45 4.5 14.6 3.65 16.6 2.8 17.25 1.6 17.6 0.95 17.7 -0.15 17.75 -0.9 17.6 -1.8 17.5 -2.5 17.25 -2.8 16.95 -3.1 16.55 -3.25 15.05 -3.95 11.7 -4.25
L 14.1 -6.8
Q 15.55 -8.35 15.85 -9.75 16 -10.35 15.8 -10.85 15.6 -11.2 15.05 -11.5 14.05 -12.05 11.7 -11.95 10.55 -11.95 10 -11.85 Z"/>
</g>
</defs>

<g filter="url(#Filter_1)" transform="matrix( 1, 0, 0, 1, 0,0) ">
<g transform="matrix( 1, 0, 0, 1, 109.45,105.75) ">
<g transform="matrix( 1, 0, 0, 1, 0,0) ">
<use xlink:href="#Symbol_2_0_Layer0_0_FILL"/>
</g>
</g>
</g>

<g filter="url(#Filter_2)" transform="matrix( 1, 0, 0, 1, 0,0) ">
<g transform="matrix( 1, 0, 0, 1, 102.15,67.85) ">
<g transform="matrix( 0.25823974609375, 0.1027679443359375, -0.1027679443359375, 0.25823974609375, 0.05,-0.15) ">
<g transform="matrix( 1, 0, 0, 1, 0,0) ">
<g transform="matrix( 1, 0, 0, 1, 0,0) ">
<g transform="matrix( 1, 0, 0, 1, -159.15,-224.3) ">
<use xlink:href="#face_5_Layer1_0_MEMBER_0_FILL"/>
</g>

<g transform="matrix( 1, 0, 0, 1, -159.15,-224.3) ">
<use xlink:href="#face_5_Layer1_0_MEMBER_1_FILL"/>
</g>

<g transform="matrix( 1, 0, 0, 1, -159.15,-224.3) ">
<use xlink:href="#face_5_Layer1_0_MEMBER_2_FILL"/>
</g>

<g transform="matrix( 1, 0, 0, 1, -159.15,-224.3) ">
<use xlink:href="#face_5_Layer1_0_MEMBER_3_FILL"/>
</g>

<g transform="matrix( 1, 0, 0, 1, -159.15,-224.3) ">
<use xlink:href="#face_5_Layer1_0_MEMBER_4_FILL"/>
</g>

<g transform="matrix( 1, 0, 0, 1, -159.15,-224.3) ">
<use xlink:href="#face_5_Layer1_0_MEMBER_5_FILL"/>
</g>

<g transform="matrix( 1, 0, 0, 1, -159.15,-224.3) ">
<use xlink:href="#face_5_Layer1_0_MEMBER_6_FILL"/>
</g>

<g transform="matrix( 1, 0, 0, 1, -159.15,-224.3) ">
<use xlink:href="#face_5_Layer1_0_MEMBER_7_FILL"/>
</g>

<g transform="matrix( 1, 0, 0, 1, -159.15,-224.3) ">
<use xlink:href="#face_5_Layer1_0_MEMBER_8_FILL"/>
</g>

<g transform="matrix( 1, 0, 0, 1, -159.15,-224.3) ">
<use xlink:href="#face_5_Layer1_0_MEMBER_9_FILL"/>
</g>

<g transform="matrix( 1, 0, 0, 1, -159.15,-224.3) ">
<use xlink:href="#face_5_Layer1_0_MEMBER_10_FILL"/>
</g>

<g transform="matrix( 1, 0, 0, 1, -159.15,-224.3) ">
<use xlink:href="#face_5_Layer1_0_MEMBER_11_FILL"/>
</g>

<g transform="matrix( 1, 0, 0, 1, -159.15,-224.3) ">
<use xlink:href="#face_5_Layer1_0_MEMBER_12_FILL"/>
</g>

<g transform="matrix( 1, 0, 0, 1, -159.15,-224.3) ">
<use xlink:href="#face_5_Layer1_0_MEMBER_13_FILL"/>
</g>

<g transform="matrix( 1, 0, 0, 1, -159.15,-224.3) ">
<use xlink:href="#face_5_Layer1_0_MEMBER_14_FILL"/>
</g>

<g transform="matrix( 1, 0, 0, 1, -159.15,-224.3) ">
<use xlink:href="#face_5_Layer1_0_MEMBER_15_FILL"/>
</g>

<g transform="matrix( 1, 0, 0, 1, -159.15,-224.3) ">
<use xlink:href="#face_5_Layer1_0_MEMBER_16_FILL"/>
</g>
</g>

<g transform="matrix( 1, 0, 0, 1, -159.3,-224.1) ">
<use xlink:href="#head_0_Layer1_1_FILL"/>
</g>

<g transform="matrix( 1, 0, 0, 1, -159.3,-224.1) ">
<use xlink:href="#head_0_Layer1_2_FILL"/>
</g>

<g transform="matrix( 1, 0, 0, 1, -159.3,-224.1) ">
<use xlink:href="#head_0_Layer1_3_FILL"/>
</g>

<g transform="matrix( 1, 0, 0, 1, -159.3,-224.1) ">
<use xlink:href="#head_0_Layer1_4_FILL"/>
</g>

<g transform="matrix( 1, 0, 0, 1, -159.3,-224.1) ">
<use xlink:href="#head_0_Layer1_5_FILL"/>
</g>

<g transform="matrix( 1, 0, 0, 1, -159.3,-224.1) ">
<use xlink:href="#head_0_Layer1_6_FILL"/>
</g>

<g transform="matrix( 1, 0, 0, 1, 6.35,-4.05) ">
<g transform="matrix( 1, 0, 0, 1, -165.65,-220.1) ">
<use xlink:href="#forward_eyes_3_Layer0_0_FILL"/>
</g>

<g transform="matrix( 1, 0, 0, 1, -165.65,-220.1) ">
<use xlink:href="#forward_eyes_3_Layer0_1_FILL"/>
</g>

<g transform="matrix( 1, 0, 0, 1, -165.65,-220.1) ">
<use xlink:href="#forward_eyes_3_Layer0_2_FILL"/>
</g>

<g transform="matrix( 1, 0, 0, 1, -165.65,-220.1) ">
<use xlink:href="#forward_eyes_3_Layer0_3_FILL"/>
</g>

<g transform="matrix( 1, 0, 0, 1, -165.65,-220.1) ">
<use xlink:href="#forward_eyes_3_Layer0_4_FILL"/>
</g>

<g transform="matrix( 1, 0, 0, 1, -165.65,-220.1) ">
<use xlink:href="#forward_eyes_3_Layer0_5_FILL"/>
</g>

<g transform="matrix( 1, 0, 0, 1, -165.65,-220.1) ">
<use xlink:href="#forward_eyes_3_Layer0_6_FILL"/>
</g>

<g transform="matrix( 1, 0, 0, 1, -165.65,-220.1) ">
<use xlink:href="#forward_eyes_3_Layer0_7_FILL"/>
</g>

<g transform="matrix( 1, 0, 0, 1, -165.65,-220.1) ">
<use xlink:href="#forward_eyes_3_Layer0_8_FILL"/>
</g>

<g transform="matrix( 1, 0, 0, 1, -165.65,-220.1) ">
<use xlink:href="#forward_eyes_3_Layer0_9_FILL"/>
</g>
</g>

<g transform="matrix( 1, 0, 0, 1, 7.15,-25.95) ">
<g transform="matrix( 0.9969329833984375, -0.0782470703125, 0.0782470703125, 0.9969329833984375, -180.9,-194.85) ">
<use xlink:href="#eyebrows_8_Layer0_0_FILL"/>
</g>

<g transform="matrix( 0.99200439453125, 0.1259765625, -0.1259765625, 0.99200439453125, -137.1,-224.6) ">
<use xlink:href="#eyebrows_8_Layer0_1_FILL"/>
</g>
</g>
</g>
</g>
</g>
</g>

<g transform="matrix( 1, 0, 0, 1, 0,0) ">
<use xlink:href="#Layer1_0_FILL"/>
</g>

<g filter="url(#Filter_3)" transform="matrix( 1, 0, 0, 1, 0,0) ">
<g transform="matrix( 1, 0, 0, 1, 37.45,45.15) ">
<g transform="matrix( 1, 0, 0, 1, 0,0) ">
<use xlink:href="#Symbol_3_0_Layer0_0_FILL"/>
</g>
</g>
</g>
</svg>
