
<svg xmlns="http://www.w3.org/2000/svg" version="1.1" xmlns:xlink="http://www.w3.org/1999/xlink" preserveAspectRatio="none" x="0px" y="0px" width="210px" height="630px" viewBox="0 0 210 630">
<defs>
<g id="Layer1_0_MEMBER_0_MEMBER_0_MEMBER_0_FILL">
<path fill="#FFFFFF" stroke="none" d="
M 21.35 459.15
Q 20.6 458.5 19.75 458.5 18.85 458.5 18.2 459.15 17.5 459.85 17.5 460.75 17.5 461.7 18.2 462.3 18.8 463 19.75 463 20.65 463 21.35 462.3 22 461.65 22 460.75 22 459.9 21.35 459.15 Z"/>
</g>

<g id="Layer1_1_MEMBER_0_MEMBER_0_MEMBER_0_FILL">
<path fill="#FFFFFF" stroke="none" d="
M 27.5 432.4
Q 26.9 431.75 26 431.75 25 431.75 24.35 432.4 23.75 433 23.75 433.9 23.75 434.9 24.35 435.5 25 436.15 26 436.15 26.9 436.15 27.5 435.5 28.2 434.9 28.2 433.9 28.2 433 27.5 432.4 Z"/>
</g>

<g id="Layer1_2_MEMBER_0_MEMBER_0_MEMBER_0_FILL">
<path fill="#FFFFFF" stroke="none" d="
M 33.65 470
L 35.25 472.15
Q 38.6 475.55 43.3 475.55 48.15 475.55 51.45 472.15 54.9 468.85 54.9 464 54.9 459.25 51.5 455.9
L 51.5 455.8
Q 50.8 455.05 49.65 454.3
L 25.5 439 32 451.3 14.1 439.3 33.65 470
M 38.5 468.9
Q 36.4 466.9 36.4 463.9 36.4 461.1 38.5 458.9 40.5 456.9 43.5 456.9 46.45 456.9 48.5 458.9 50.5 461.05 50.5 464 50.5 467 48.5 468.9 46.45 471 43.5 471 40.45 471 38.5 468.9 Z"/>
</g>

<g id="Layer1_3_MEMBER_0_MEMBER_0_MEMBER_0_FILL">
<path fill="#FFFFFF" stroke="none" d="
M 42.25 233.75
Q 42.6 233.35 42 233.1 39.05 232.5 38 231.15 36.55 229.3 37.75 226.4 34.45 225.95 31.5 226.45 25.25 227.65 20.95 232.4 16.6 237.2 16 243.45 15.4 251.9 21 258 26.7 264.05 35 264.05 42.55 264.05 47.95 259 53.4 253.9 53.9 246.6 50.15 247.4 48.5 245.9 47.3 244.65 47.15 242.9 47 241.75 47.5 240.45 47.5 240.25 47.3 240.1 47.25 239.95 47 239.95 43.5 240.85 42 238.95 40.25 236.4 42.25 233.75
M 30.35 240.4
Q 32.25 238.5 35 238.5 37.6 238.5 39.55 240.4 41.5 242.35 41.5 245 41.5 247.7 39.55 249.65 37.7 251.5 35 251.5 32.2 251.5 30.35 249.65 28.5 247.8 28.5 245 28.5 242.35 30.35 240.4 Z"/>
</g>

<g id="Layer1_4_MEMBER_0_MEMBER_0_MEMBER_0_FILL">
<path fill="#FFFFFF" stroke="none" d="
M 47.2 220.9
Q 46.4 220.35 45.9 220.25
L 45.9 220.2
Q 44 219.85 43.55 220.4
L 43.4 225
Q 43.4 225.5 44.75 226.15 45.35 226.35 45.55 226
L 47.7 221.65
Q 47.7 221.4 47.2 220.9 Z"/>
</g>

<g id="Layer1_5_MEMBER_0_MEMBER_0_MEMBER_0_FILL">
<path fill="#FFFFFF" stroke="none" d="
M 50.8 233.65
Q 52.05 233.35 52.25 232.9 53.2 226.2 51.2 226.65 48.45 227.35 47.9 229.4 47.5 230.45 47.75 231.85 48.15 233.4 49 233.65 49.7 233.95 50.8 233.65 Z"/>
</g>

<g id="Layer1_6_MEMBER_0_MEMBER_0_MEMBER_0_FILL">
<path fill="#FFFFFF" stroke="none" d="
M 194.4 171.7
Q 195 166.05 194 163.35 192.8 160.7 189.5 157.4
L 186.35 154.5 180.1 156.7 182.8 161.4 156.1 166
Q 155.7 166.2 155.6 166.4 155.45 166.65 155.5 166.9
L 155.85 169.4
Q 156.15 170.15 156.75 170
L 172.6 167.35 161.9 191.65
Q 161.65 192.35 161.85 192.95 162.15 193.6 162.85 193.9 163.5 194.3 164.15 193.95 164.8 193.75 165.1 193
L 174.9 170.7 184.85 193.2
Q 185.15 193.95 185.8 194.15 186.5 194.45 187.1 194.15 187.8 193.9 188.1 193.15 188.35 192.45 188.05 191.85
L 176.9 166.5 185.4 165.15 193.6 176.9
Q 194.2 174.25 194.4 171.7 Z"/>
</g>

<g id="Layer1_7_MEMBER_0_MEMBER_0_MEMBER_0_FILL">
<path fill="#FFFFFF" stroke="none" d="
M 191.8 307.65
L 166 307.65 154.35 329.4 196.65 329.4 187.1 311.75 191.65 311.65
Q 193.5 311.65 193.55 309.65 193.55 307.65 191.8 307.65 Z"/>
</g>

<g id="Layer1_8_MEMBER_0_MEMBER_0_MEMBER_0_FILL">
<path fill="#FFFFFF" stroke="none" d="
M 161.75 299.15
Q 159.95 299.15 159.85 301.15 159.85 303.15 161.6 303.15
L 182.1 303.15 178.5 294.4
Q 178.4 294.35 177.6 294.5 176.85 294.75 176.3 294.75
L 174.5 294.3
Q 172.65 294 172.1 294.4
L 171.25 296.25
Q 170.2 298.2 169.85 299.15
L 161.75 299.15 Z"/>
</g>

<g id="Layer1_9_MEMBER_0_MEMBER_0_MEMBER_0_FILL">
<path fill="#FFFFFF" stroke="none" d="
M 36.5 313.5
Q 35.9 312.8 35 312.8 34 312.8 33.4 313.5 32.75 314.1 32.75 315 32.75 316 33.4 316.65 34 317.25 35 317.25 35.9 317.25 36.5 316.65 37.2 315.95 37.2 315 37.2 314.1 36.5 313.5 Z"/>
</g>

<g id="Layer1_10_MEMBER_0_MEMBER_0_MEMBER_0_FILL">
<path fill="#FFFFFF" stroke="none" d="
M 55.2 315.15
Q 55.2 312 54 308.25 50.45 319.35 49.4 321.4
L 49.4 321.3
Q 48.35 323.3 45.7 326.25
L 43.25 328.5
Q 42.8 329 41.75 329 40.75 329 40 328.25 39.35 327.45 39.5 326.55 39.5 325.7 40.25 325 43.9 322 45.25 319.25 46.75 316.65 50.9 302.65 48.05 299.05 43.95 297 39.7 294.9 34.9 294.9 26.5 294.9 20.5 300.8 14.6 306.8 14.6 315.15 14.6 323.55 20.5 329.5 26.5 335.4 34.9 335.4 43.3 335.4 49.25 329.5 55.2 323.5 55.2 315.15
M 27.2 315
Q 27.2 311.8 29.5 309.55 31.8 307.25 35 307.25 38.15 307.25 40.45 309.55 42.75 311.85 42.75 315 42.75 318.2 40.45 320.5 38.25 322.8 35 322.8 31.75 322.8 29.5 320.5 27.2 318.3 27.2 315 Z"/>
</g>

<g id="Layer1_11_MEMBER_0_MEMBER_0_MEMBER_0_FILL">
<path fill="#FFFFFF" stroke="none" d="
M 123.15 312.5
Q 129.15 309.05 128.8 307.65 128.25 306.35 121.05 308 113.8 309.65 104.3 313.4 94.6 317.2 88.3 320.75 81.8 324.45 82.5 325.75 83 327.05 89.9 325.5 93.5 330.65 99.55 332.55 105.6 334.55 111.65 332.15 117.65 329.85 120.8 324.25 124 318.85 123.15 312.5 Z"/>
</g>

<g id="Layer1_12_MEMBER_0_MEMBER_0_MEMBER_0_FILL">
<path fill="#FFFFFF" stroke="none" d="
M 86.55 316.5
Q 93.6 312.7 102.55 309.15 111.8 305.5 119.3 303.65 115.55 298.95 109.8 297.3 103.9 295.65 98.15 297.9 92.4 300.1 89.3 305.3 86.1 310.55 86.55 316.5 Z"/>
</g>

<g id="Layer1_13_MEMBER_0_MEMBER_0_MEMBER_0_FILL">
<path fill="#FFFFFF" stroke="none" d="
M 190 246.5
L 187 237 163 237 160 246.5 190 246.5 Z"/>
</g>

<g id="Layer1_14_MEMBER_0_MEMBER_0_MEMBER_0_FILL">
<path fill="#FFFFFF" stroke="none" d="
M 157 251
L 154 261 196 261 193 251 157 251 Z"/>
</g>

<g id="Layer1_15_MEMBER_0_MEMBER_0_MEMBER_0_FILL">
<path fill="#FFFFFF" stroke="none" d="
M 183 232.5
L 183 223.5 167 223.5 167 232.5 171.6 232.5 171.6 228 178.1 228 178.1 232.5 183 232.5 Z"/>
</g>

<g id="Layer1_16_MEMBER_0_MEMBER_0_MEMBER_0_FILL">
<path fill="#FFFFFF" stroke="none" d="
M 35 159.15
Q 34.3 159.15 34.2 159.75
L 31.6 171.65 19.75 174.25
Q 19.1 174.4 19.1 175.1 19.1 175.7 19.75 175.9
L 31.6 178.45 34.2 190.4
Q 34.3 191.1 34.95 191.1 35.5 191.1 35.75 190.4
L 38.3 178.45 50.15 175.9
Q 50.8 175.7 50.8 175.1 50.8 174.4 50.15 174.25
L 38.3 171.65 35.75 159.75
Q 35.6 159.15 35 159.15 Z"/>
</g>

<g id="Layer1_17_MEMBER_0_MEMBER_0_MEMBER_0_FILL">
<path fill="#FFFFFF" stroke="none" d="
M 45.25 164.4
Q 44.55 163.7 43.7 163.7 42.7 163.7 42.15 164.4 41.5 165 41.5 165.9 41.5 166.95 42.15 167.45 42.7 168.15 43.7 168.15 44.55 168.15 45.25 167.45 45.9 166.9 45.9 165.9 45.9 165.05 45.25 164.4 Z"/>
</g>

<g id="Layer1_18_MEMBER_0_MEMBER_0_MEMBER_0_FILL">
<path fill="#FFFFFF" stroke="none" d="
M 51.95 158.4
Q 51.25 157.7 50.4 157.7 49.5 157.7 48.8 158.4 48.2 159 48.2 159.9 48.2 160.95 48.8 161.45 49.5 162.15 50.4 162.15 51.25 162.15 51.95 161.45 52.55 160.95 52.55 159.9 52.55 159 51.95 158.4 Z"/>
</g>

<g id="Layer1_19_MEMBER_0_MEMBER_0_MEMBER_0_FILL">
<path fill="#FFFFFF" stroke="none" d="
M 20.6 187.9
Q 20 187.2 19.1 187.2 18.1 187.2 17.5 187.9 16.85 188.5 16.85 189.4 16.85 190.45 17.5 190.95 18.1 191.65 19.1 191.65 20 191.65 20.6 190.95 21.25 190.45 21.25 189.4 21.25 188.5 20.6 187.9 Z"/>
</g>

<g id="Layer1_20_MEMBER_0_MEMBER_0_MEMBER_0_FILL">
<path fill="#FFFFFF" stroke="none" d="
M 27.35 181.9
Q 26.65 181.2 25.75 181.2 24.8 181.2 24.2 181.9 23.5 182.5 23.5 183.4 23.5 184.4 24.2 184.95 24.8 185.65 25.75 185.65 26.65 185.65 27.35 184.95 28 184.4 28 183.4 28 182.55 27.35 181.9 Z"/>
</g>

<g id="Layer1_21_MEMBER_0_MEMBER_0_MEMBER_0_FILL">
<path fill="#FFFFFF" stroke="none" d="
M 45.25 181.9
Q 44.55 181.2 43.7 181.2 42.7 181.2 42.15 181.9 41.5 182.5 41.5 183.4 41.5 184.45 42.15 184.95 42.7 185.65 43.7 185.65 44.55 185.65 45.25 184.95 45.9 184.4 45.9 183.4 45.9 182.55 45.25 181.9 Z"/>
</g>

<g id="Layer1_22_MEMBER_0_MEMBER_0_MEMBER_0_FILL">
<path fill="#FFFFFF" stroke="none" d="
M 51.95 187.9
Q 51.25 187.2 50.4 187.2 49.5 187.2 48.8 187.9 48.2 188.5 48.2 189.4 48.2 190.45 48.8 190.95 49.5 191.65 50.4 191.65 51.25 191.65 51.95 190.95 52.55 190.45 52.55 189.4 52.55 188.5 51.95 187.9 Z"/>
</g>

<g id="Layer1_23_MEMBER_0_MEMBER_0_MEMBER_0_FILL">
<path fill="#FFFFFF" stroke="none" d="
M 27.35 164.4
Q 26.65 163.7 25.75 163.7 24.8 163.7 24.2 164.4 23.5 165 23.5 165.9 23.5 166.9 24.2 167.45 24.8 168.15 25.75 168.15 26.65 168.15 27.35 167.45 28 166.9 28 165.9 28 165.05 27.35 164.4 Z"/>
</g>

<g id="Layer1_24_MEMBER_0_MEMBER_0_MEMBER_0_FILL">
<path fill="#FFFFFF" stroke="none" d="
M 20.6 158.4
Q 20 157.7 19.1 157.7 18.1 157.7 17.5 158.4 16.85 159 16.85 159.9 16.85 160.95 17.5 161.45 18.1 162.15 19.1 162.15 20 162.15 20.6 161.45 21.25 160.95 21.25 159.9 21.25 159 20.6 158.4 Z"/>
</g>

<g id="Layer1_25_MEMBER_0_MEMBER_0_MEMBER_0_FILL">
<path fill="#FFFFFF" stroke="none" d="
M 86 172.5
L 105 195.5 124 172.5 86 172.5 Z"/>
</g>

<g id="Layer1_26_MEMBER_0_MEMBER_0_MEMBER_0_FILL">
<path fill="#FFFFFF" stroke="none" d="
M 105 168
L 111.65 158 98.15 158 105 168 Z"/>
</g>

<g id="Layer1_27_MEMBER_0_MEMBER_0_MEMBER_0_FILL">
<path fill="#FFFFFF" stroke="none" d="
M 117.15 158
L 110.5 168 124 168 117.15 158 Z"/>
</g>

<g id="Layer1_28_MEMBER_0_MEMBER_0_MEMBER_0_FILL">
<path fill="#FFFFFF" stroke="none" d="
M 92.65 158
L 86 168 99.5 168 92.65 158 Z"/>
</g>

<g id="Layer1_29_MEMBER_0_MEMBER_0_MEMBER_0_FILL">
<path fill="#FFFFFF" stroke="none" d="
M 195.85 469.25
L 174.85 433.9 154.05 469.25 195.85 469.25
M 179.1 453.65
Q 179.1 455.4 177.9 456.55 176.75 457.8 175 457.8 173.2 457.8 172 456.55 170.8 455.4 170.8 453.65 170.8 451.8 172 450.65 173.25 449.4 175 449.4 176.65 449.4 177.9 450.65 179.1 451.8 179.1 453.65 Z"/>
</g>

<g id="Layer1_30_MEMBER_0_MEMBER_0_MEMBER_0_FILL">
<path fill="#FFFFFF" stroke="none" d="
M 84.65 258.65
Q 90.65 256.55 93.05 254.15
L 89.15 250.2
Q 86.65 252.7 84.65 258.65 Z"/>
</g>

<g id="Layer1_31_MEMBER_0_MEMBER_0_MEMBER_0_FILL">
<path fill="#FFFFFF" stroke="none" d="
M 91.5 265.4
Q 97.4 263.35 99.9 260.9
L 96 257
Q 94.45 258.5 92.8 262.15 91.85 264.2 91.5 265.4 Z"/>
</g>

<g id="Layer1_32_MEMBER_0_MEMBER_0_MEMBER_0_FILL">
<path fill="#FFFFFF" stroke="none" d="
M 122.75 236.35
Q 123.9 234.35 123.9 231.15 123.9 227.95 123.05 227.15 122.15 226.2 119.05 226.2 115.7 226.2 113.9 227.4
L 102.8 234.15 90.55 233.9 84.9 239.65 110.65 265.4 116.4 259.75 116.05 247.4 122.75 236.35
M 120.25 233.85
L 113.55 244.85 105.25 236.65 116.3 229.9 120.25 233.85 Z"/>
</g>

<g id="Layer1_33_MEMBER_0_MEMBER_0_MEMBER_0_FILL">
<path fill="#FFFFFF" stroke="none" d="
M 114.05 370.5
Q 114.6 368.5 114.5 367.65 114.45 367.45 113.9 367.05
L 113.4 366.75 112.8 366.55
Q 112.1 366.4 112 366.5 111.65 366.65 110.8 367.65 110.2 368.25 110 368.55 103.6 366.7 98.65 367.15 95.4 367.55 91.4 368.9
L 87.8 370.15 86.05 373.75
Q 87.25 375.2 92.25 378.5 94.1 375.95 94.75 375.5 95.6 374.7 96.75 375.25 97.85 376 95.3 380.4 97.35 381.75 102.3 384.25 104.8 379.5 106.65 380.4 108.5 381.25 106.15 386.15 112.45 389.05 113.4 389.4 115.4 384.7 116.65 385.15 117.75 385.6 117.75 386.9 117.75 388.1 116.8 390.65 122.1 392.7 124.4 392.75
L 126.25 389.15
Q 124.6 382.85 122.05 378.65 120.35 375.9 117.05 373
L 114.05 370.5 Z"/>
</g>

<g id="Layer1_34_MEMBER_0_MEMBER_0_MEMBER_0_FILL">
<path fill="#FFFFFF" stroke="none" d="
M 103.65 391.4
L 99.65 389.4 92.4 404.15 96.4 406.15 103.65 391.4 Z"/>
</g>

<g id="Layer1_35_MEMBER_0_MEMBER_0_MEMBER_0_FILL">
<path fill="#FFFFFF" stroke="none" d="
M 181.6 381
L 175.55 376.9 169.4 381 169.4 371.8 163.35 363.65 157.25 371.8 157.25 402.5 171.05 402.5 171.05 395.65
Q 171.05 393.85 172.35 392.4 173.85 391 175.6 391 177.45 391 178.85 392.4 180.25 393.8 180.25 395.65
L 180.25 402.5 194.05 402.5 194.05 381 187.8 376.9 181.6 381 Z"/>
</g>

<g id="Layer1_36_MEMBER_0_MEMBER_0_MEMBER_0_FILL">
<path fill="#FFFFFF" stroke="none" d="
M 20.6 375.3
Q 21.4 381.55 25.5 388.5 20 392.45 17.35 394.15 16 394.9 16.95 396
L 20.35 399.5
Q 20.6 399.9 23.85 402.9 24.15 403.25 24.7 403.25 25.25 403.25 25.75 402.5
L 31.35 394.3
Q 38.15 398.4 44.5 399.25 49 399.85 54.3 398.9 59.15 398.3 58.25 396.8 54.7 392.1 50.25 388.3 47.4 386 44.5 384.3
L 42.15 383.15 44.95 378
Q 45.7 376.75 46.15 375.5 46.65 373.95 46.3 373.5 45.8 373 41.8 374.9
L 36.75 377.75
Q 35.35 374.25 31.5 369.65 27.1 364.25 23 361.65 21.8 360.65 20.95 365.5 19.95 371.1 20.6 375.3 Z"/>
</g>

<g id="Layer1_37_MEMBER_0_MEMBER_0_MEMBER_0_FILL">
<path fill="#FFFFFF" stroke="none" d="
M 118.9 457.75
Q 114.65 452.55 108.3 449.9 101.95 447.35 95.25 448.25 89.65 449 82.3 452.4 85.2 459.95 88.8 464.4 93.05 469.6 99.5 472.15 105.7 474.75 112.5 473.9 117.9 473.2 125.5 469.65 122.5 462.2 118.9 457.75
M 110.4 463.65
Q 109.35 466.4 106.65 467.5 103.9 468.6 101.15 467.5 98.45 466.5 97.3 463.8 96.15 461.1 97.3 458.3 98.35 455.65 101.05 454.5 103.65 453.3 106.5 454.4 109.2 455.65 110.3 458.25 111.5 460.95 110.4 463.65 Z"/>
</g>

<g id="Layer1_38_MEMBER_0_MEMBER_0_MEMBER_0_FILL">
<path fill="#FFFFFF" stroke="none" d="
M 90 440.15
Q 89.25 440.9 89.8 441.3 90.35 441.8 92.55 441.4 97.75 440.7 100.8 440.9 105.2 441.1 109.8 442.8 114.3 444.55 117.55 447.25 120.3 449.7 123.65 454.5 124.25 455.35 124.8 455 125.5 454.75 125.8 454.5 126.2 454.1 126 453.3 120.6 441.5 110.8 436.65 102.6 432.65 94.15 434.3 91.25 434.95 89.4 436.15 87.65 437.3 88.55 437.9 89.1 438.3 90.8 437.9 92.35 437.55 92.5 438 92.55 438.55 91.65 439.15 90.15 439.95 90 440.15 Z"/>
</g>

<g id="Layer1_39_MEMBER_0_MEMBER_0_MEMBER_0_FILL">
<path fill="#FFFFFF" stroke="none" d="
M 49.5 31.65
Q 49.5 30.7 48.8 29.9 48.15 29.25 47.2 29.25
L 44.4 29.25 44.4 23.9
Q 44.4 20.45 41.7 17.75 38.8 14.85 34.9 14.75 31.1 14.75 28.1 17.65 25.35 20.55 25.35 23.9
L 25.35 29.25 22.75 29.25
Q 21.9 29.25 21.1 29.9 20.5 30.6 20.5 31.5
L 20.5 48.8
Q 20.5 49.85 21.1 50.5 21.85 51.1 22.75 51.1
L 47.2 51.1
Q 48.2 51.1 48.8 50.5 49.5 49.8 49.5 48.8
L 49.5 31.65
M 40.9 24
L 40.9 29.4 28.85 29.4 28.85 24
Q 28.85 22.05 30.5 20.3 32.2 18.4 34.9 18.4 37.55 18.4 39.25 20.3 40.9 22.05 40.9 24 Z"/>
</g>

<g id="Layer1_40_MEMBER_0_MEMBER_0_MEMBER_0_FILL">
<path fill="#FFFFFF" stroke="none" d="
M 53.2 536.55
Q 56.6 532 57.2 524.75
L 57 518.5
Q 56 518.7 53.8 519.35 50 520.75 46.9 522.85
L 47 525.05
Q 47 535.2 40.9 543.7 48.55 542.65 53.2 536.55 Z"/>
</g>

<g id="Layer1_41_MEMBER_0_MEMBER_0_MEMBER_0_FILL">
<path fill="#FFFFFF" stroke="none" d="
M 18.75 515.5
Q 21.2 516.35 23.85 518 24.35 515.9 25.5 513 23.75 511.4 21.7 510.05
L 20.1 509.15 19.5 510.9
Q 18.95 513.2 18.75 515.5 Z"/>
</g>

<g id="Layer1_42_MEMBER_0_MEMBER_0_MEMBER_0_FILL">
<path fill="#FFFFFF" stroke="none" d="
M 35 543.5
Q 36.75 541.9 38.7 538.7 42.4 532.35 42.4 525 42.4 517.75 38.7 511.4
L 35 506.5 31.25 511.4
Q 27.6 517.65 27.6 525 27.6 532.45 31.25 538.7 33.25 541.95 35 543.5 Z"/>
</g>

<g id="Layer1_43_MEMBER_0_MEMBER_0_MEMBER_0_FILL">
<path fill="#FFFFFF" stroke="none" d="
M 46 518
Q 48.7 516.4 51.15 515.5
L 51.2 515.5
Q 50.95 513 50.45 510.9
L 49.9 509.15 48.3 510.05
Q 46.45 511.25 44.5 513.05 45.85 517.05 46 518 Z"/>
</g>

<g id="Layer1_44_MEMBER_0_MEMBER_0_MEMBER_0_FILL">
<path fill="#FFFFFF" stroke="none" d="
M 16.2 519.35
L 13 518.5 12.9 518.5 12.75 524.75
Q 13.2 531.85 16.75 536.55 21.35 542.65 29.1 543.7 23 535.3 23 525.05
L 23.1 522.85
Q 20.05 520.75 16.2 519.35 Z"/>
</g>

<g id="Layer1_45_MEMBER_0_MEMBER_0_MEMBER_0_FILL">
<path fill="#FFFFFF" stroke="none" d="
M 123 544
L 123 518.5 124 514.5 86 514.5 87 518.5 87 544 98.3 544 98.3 525.25
Q 98.3 522.45 100.25 520.5 102.1 518.5 105 518.5 107.8 518.5 109.65 520.5 111.65 522.45 111.65 525.25
L 111.65 544 123 544 Z"/>
</g>

<g id="Layer1_46_MEMBER_0_MEMBER_0_MEMBER_0_FILL">
<path fill="#FFFFFF" stroke="none" d="
M 98.8 506
L 89 506 88 510 122 510 121 506 111.15 506 105 502 98.8 506 Z"/>
</g>

<g id="Layer1_47_MEMBER_0_MEMBER_0_MEMBER_0_FILL">
<path fill="#FFFFFF" stroke="none" d="
M 185.35 504.65
Q 184.75 504.6 184 505.5 182.55 507.2 181.1 509.8 180.65 510.65 179.9 510.5 179.3 510.3 179.35 509.4 179.8 506.55 181.5 502.4 181.95 501.25 181.35 501.15 180.75 501 180.1 501.65 178 503.85 175.35 508.9 174.9 509.85 174.1 509.65 173.35 509.45 173.5 508.5 173.7 506.95 175 503.65 175.85 501.1 176.35 500.15 176.7 499.4 176.1 499.15 175.45 498.9 174.6 499.75 173.65 500.6 172.25 502.65 170.1 505.75 168.65 508.9 162.1 507.6 157.65 510.4 153.1 513.35 152.75 519.2 152.25 524.65 155.65 528.35
L 159.5 532.75
Q 161.05 535.1 161.85 538.2 163.1 542.6 165.85 545.35 168.8 548.3 173 548.75 176.75 549.2 179.85 546.75 182.4 545 184.6 541.2 186.15 538.45 188.35 536.3 190.4 534.35 194.5 531.35 198.75 528.4 198.5 522.55 198.2 517 194 513.85
L 194 513.8
Q 190.65 511.45 184.1 511 185.2 507.05 185.5 506.3 186.1 504.65 185.35 504.65
M 186 516.5
Q 188.65 516.9 190.3 518.95 191.9 520.9 191.6 523.75 191.3 526.3 189.15 528 187.15 529.7 184.35 529.3 181.75 529.1 180.1 526.95 178.45 524.75 178.8 522.1 179.05 519.45 181.15 517.8 183.3 516.2 186 516.5
M 165.1 514.3
Q 167.6 514.6 169.25 516.7 170.8 518.6 170.5 521.25 170.2 523.8 168.25 525.35 166.2 526.9 163.6 526.6 161.05 526.3 159.4 524.3 157.85 522.3 158.15 519.75 158.5 517.15 160.55 515.55 162.5 514 165.1 514.3
M 173.65 527.1
Q 174.35 527.3 175.25 529.95 176 532.55 175.8 533.6 175.35 535.25 172 534.6 169 534.1 169.6 532.1 169.8 531.2 171.35 529.1 173.05 526.95 173.65 527.1 Z"/>
</g>

<g id="Layer1_48_MEMBER_0_MEMBER_0_MEMBER_0_FILL">
<path fill="#FFFFFF" stroke="none" d="
M 22 582.8
L 16.75 588 16.75 612.5 30.25 612.5 30.25 588 25 582.8 24.75 573.8
Q 24.75 573.3 24.35 573 24.05 572.7 23.5 572.5 22.95 572.5 22.5 572.95 22.2 573.25 22.2 573.8
L 22 582.8 Z"/>
</g>

<g id="Layer1_49_MEMBER_0_MEMBER_0_MEMBER_0_FILL">
<path fill="#FFFFFF" stroke="none" d="
M 54.2 591
L 48.25 585.1 48.4 572.5 34.7 572.5 34.7 612.5 54.2 612.5 54.2 591
M 38.2 582.6
L 38.2 575.8 45 575.8 45 582.6 38.2 582.6 Z"/>
</g>

<g id="Layer1_50_MEMBER_0_MEMBER_0_MEMBER_0_FILL">
<path fill="#FFFFFF" stroke="none" d="
M 84.5 581.7
Q 83.75 580.95 83.15 581.1 82.4 581.3 82.65 582.25
L 86.75 598.75
Q 82.7 599.65 81.3 602.25 83.95 604 87.8 603
L 88.75 606.5 96.8 605.5 95.15 612.5
Q 95.3 613.2 95.75 613.2
L 106.65 610.75
Q 107.4 610.6 107.55 609.8
L 110.5 603.5 113.65 602.75
Q 117.25 601.75 120.9 600.5 126.15 598.55 129.35 596.1
L 131.6 594 130.85 591
Q 128.2 590.45 125.55 590.2 119.1 589.55 113.4 590.5
L 95.65 593.35 84.5 581.7 Z"/>
</g>

<g id="Layer1_51_MEMBER_0_MEMBER_0_MEMBER_0_FILL">
<path fill="#FFFFFF" stroke="none" d="
M 112.4 586.1
Q 111.35 584.15 109.3 582.95 107.2 581.6 104.9 581.6 101.9 581.6 99.65 583.7 97.5 585.7 97 588.6
L 112.4 586.1 Z"/>
</g>

<g id="Layer1_52_MEMBER_0_MEMBER_0_MEMBER_0_FILL">
<path fill="#FFFFFF" stroke="none" d="
M 152 607.3
L 186.6 607.3 174.35 573.75 152 607.3 Z"/>
</g>

<g id="Layer1_53_MEMBER_0_MEMBER_0_MEMBER_0_FILL">
<path fill="#FFFFFF" stroke="none" d="
M 191.5 607.35
L 199 607.35 181.3 579.5 191.5 607.35 Z"/>
</g>

<g id="Layer1_54_MEMBER_0_MEMBER_0_MEMBER_0_FILL">
<path fill="#FFFFFF" stroke="none" d="
M 38.25 84.5
L 32.3 84.5 32.3 90.1
Q 31.3 90.25 29.75 90.85 28.25 91.4 27.1 92.2
L 23.2 88.2 19 92.45 22.85 96.35 22.35 97.1 21.95 97.95
Q 21.05 99.5 20.75 101.45
L 15.1 101.45 15.1 107.35 20.6 107.35 21 108.7
Q 21.55 110.85 22.75 112.6
L 18.75 116.6 22.95 120.75 26.85 116.85
Q 29.15 118.35 31.5 118.85
L 32 118.95 32 124.6 37.9 124.6 37.9 119
Q 39.3 118.85 40.4 118.35 41.9 117.75 43.05 116.95
L 47.05 120.95 51.25 116.75 47.3 112.85
Q 47.75 112.25 48.45 110.95 49.2 109.4 49.5 107.7
L 55.2 107.7 55.2 101.75 49.55 101.75 49.25 100.45
Q 49.1 99.7 48.8 99.2
L 48.45 98.2 47.5 96.6 51.5 92.6 47.3 88.45 43.4 92.35 42.7 91.95 42.45 91.75
Q 40.45 90.65 38.25 90.2
L 38.25 84.5
M 34.8 97.7
L 35.15 97.7 36.25 97.85
Q 38.3 98.15 40 99.75 40.65 100.5 41 101.1 41.95 102.75 41.95 104.6 41.95 105.1 41.75 106.1 41.4 108 39.9 109.45
L 38.7 110.45
Q 37.05 111.35 35.05 111.35 33.1 111.35 31.5 110.45
L 30.7 109.85 30.25 109.35
Q 28.25 107.45 28.25 104.5 28.25 103.75 28.5 102.85 28.95 101.1 30.35 99.7 31.15 98.9 32.05 98.45 33.35 97.85 34.8 97.7 Z"/>
</g>

<g id="Layer0_0_FILL">
<path fill="#FFFFFF" stroke="none" d="
M 188.4 83.7
L 162.25 83.7 162.25 124.9 188.4 125.35 188.4 83.7
M 163.25 84.65
L 187.1 84.65 187.35 124.7 163.25 124.35 163.25 84.65
M 172.95 105.6
L 172.95 105.65 172.9 105.85 172.9 106.15
Q 172.9 106.25 172.9 106.4 172.9 106.5 172.85 106.8 172.8 107.15 172.8 107.8 172.8 108.5 172.75 108.8 172.75 109.2 172.6 110 172.6 110.25 172.55 111.2
L 172.45 113.4
Q 172.45 113.75 172.4 113.95 172.3 114.2 172.15 114.35 171.95 114.55 171.65 114.55 171.35 114.5 171.2 114.3 170.95 114 171.05 113.35 171.1 112.1 171.15 110.8 171.2 109.95 171.2 109.7 171.3 109.05 171.35 108.75 171.4 108.4 171.4 107.6 171.4 106.85 171.5 106.45
L 171.5 106.4
Q 171.5 106.35 171.5 106.3 171.5 105.95 171.5 105.8
L 171.55 105.6 170.15 105.6
Q 170.3 106.95 170.35 107.65 170.45 109.05 170.45 110.2 170.45 110.65 170.35 110.85 170.15 111.15 169.8 111.2 169.45 111.2 169.25 110.95 169.1 110.8 169.05 110.5 169.05 110.35 169.05 110 169.1 108.95 168.95 107.55 168.8 106.35 168.75 105.6
L 168.2 105.6
Q 168.2 105.65 168.2 105.8 168.2 106.05 168.15 106.25 168.05 106.5 167.8 106.6 167.5 106.7 167.25 106.6 166.95 106.5 166.85 106.2 166.8 106.1 166.8 105.95 166.8 105.75 166.8 105.6
L 166.05 105.6
Q 166.05 105.75 166.05 105.95
L 166 108
Q 166 108.45 165.9 108.65 165.8 108.85 165.65 108.95 165.45 109.05 165.25 109 165.2 109 165.15 109
L 165.15 122.65 165.4 122.65
Q 165.4 122.55 165.4 122.4
L 165.45 116.95
Q 165.45 116.4 165.55 116.2 165.75 115.95 166.1 115.9 166.4 115.85 166.65 116.1 166.8 116.3 166.85 116.6 166.85 116.8 166.85 117.1 166.75 119.65 166.85 122.4 166.85 122.6 166.85 122.7
L 167.65 122.7
Q 167.55 122.5 167.55 122.2 167.6 121.85 167.75 121.2 167.95 120.55 167.95 120.25 168 119.8 168 119.6 168.05 119.25 168.25 119.05 168.35 118.9 168.55 118.85 168.75 118.8 168.95 118.85 169.15 118.9 169.3 119.05 169.45 119.2 169.45 119.35 169.5 119.5 169.4 119.85 169.4 120 169.35 120.5 169.3 120.9 169.25 121.15 169.2 121.35 169.1 121.7 169 122 169 122.25 169 122.3 169 122.45 169 122.6 169 122.7 168.95 122.7 168.95 122.75
L 170.45 122.75
Q 170.4 122.65 170.4 122.5 170.4 122.4 170.5 122.05 170.5 121.95 170.55 121.65
L 170.65 120.6
Q 170.7 120.1 170.7 119.85 170.7 119.5 170.65 119.35 170.65 118.85 170.65 118.6 170.65 118.35 170.65 118.2 170.65 118 170.75 117.85 170.85 117.7 171 117.6 171.15 117.5 171.3 117.5 171.5 117.5 171.65 117.55 171.8 117.65 171.9 117.8 172.05 118 172.05 118.3 172.05 118.5 172.05 118.85 172.05 119.05 172.1 119.45 172.15 119.85 172.15 120.05 172.1 120.4 172 121.1 171.95 121.35 171.95 121.9 171.9 122.35 171.8 122.65 171.75 122.7 171.75 122.8
L 173.05 122.8 173.05 122.75
Q 173.05 122.55 173.05 122.25 173.15 119.85 172.95 117.4 172.9 117.05 172.95 116.85 173 116.65 173.15 116.55 173.25 116.4 173.45 116.4 173.6 116.35 173.8 116.4 173.95 116.45 174.1 116.6 174.25 116.75 174.3 117.15
L 174.3 111.45
Q 174.2875 111.85 174.2 112.55
L 173.9 114.9
Q 173.85 115.35 173.7 115.55 173.5 115.85 173.15 115.8 172.8 115.8 172.6 115.45 172.5 115.3 172.5 115.05 172.5 114.95 172.55 114.65
L 172.8 112.6
Q 172.9 111.5 172.9 110.9 172.9 110.25 172.95 110 173.05 109.75 173.15 109.6 173.3 109.4 173.5 109.3 173.8 109.25 174.05 109.4 174.25 109.5 174.3 109.65
L 174.3 109.2
Q 174.15 109.25 173.95 109.2 173.65 109.15 173.5 108.85 173.45 108.65 173.45 108.4
L 173.5 107.95
Q 173.55 107.6 173.55 106.75
L 173.5 105.6 172.95 105.6
M 166.45 107.7
Q 166.45 107.5 166.55 107.35 166.65 107.2 166.8 107.1 166.95 107 167.15 107 167.35 107 167.6 107.15 167.7 107.25 167.75 107.3 167.9 107.4 167.95 107.6 168 107.8 167.95 107.95 167.9 108.15 167.75 108.25 167.65 108.4 167.45 108.45 167.3 108.5 167.1 108.45 166.7 108.35 166.55 108.05 166.45 107.85 166.45 107.7
M 166.4 109.95
Q 166.6 109.5 166.85 109.4 167.05 109.3 167.25 109.3 167.45 109.3 167.6 109.4 167.75 109.55 167.85 109.7 167.9 109.9 167.85 110.1 167.85 110.2 167.7 110.5 167.55 110.85 167.5 111.6 167.35 112.65 167.35 113.25 167.35 113.5 167.35 113.55 167.3 113.7 167.25 113.85 167.2 114 167.05 114.1 166.95 114.2 166.8 114.25 166.6 114.25 166.45 114.2 166.3 114.2 166.15 114.05 165.95 113.85 165.95 113.55 165.9 113.4 165.95 113
L 166 112.25
Q 166.1 111.25 166.15 110.9 166.25 110.35 166.4 109.95
M 170.15 112
Q 170.3 112.25 170.25 112.8
L 169.85 116.75
Q 169.85 117.1 169.75 117.25 169.6 117.6 169.25 117.6 168.9 117.65 168.65 117.4 168.45 117.15 168.45 116.75 168.45 116.65 168.5 116.4 168.55 116.15 168.55 116.05 168.55 115.6 168.55 115.4 168.65 114.9 168.7 114.65 168.7 114.45 168.7 114 168.75 113.6 168.75 113.35 168.85 112.95 168.85 112.75 168.85 112.5 168.85 112.4 168.85 112.25 168.9 112.1 168.95 111.9 169.1 111.8 169.3 111.65 169.45 111.65 169.65 111.6 169.85 111.7 170.05 111.8 170.15 112
M 171.3 115.05
Q 171.65 115.05 171.85 115.3 172.05 115.55 172 115.85 172 115.9 172 115.95 172 116 172 116.05 172 116.3 171.9 116.45 171.8 116.75 171.55 116.85 171.25 116.95 170.95 116.85 170.7 116.7 170.6 116.4 170.6 116.3 170.6 116.15 170.55 115.8 170.65 115.6 170.65 115.45 170.75 115.35 170.95 115.05 171.3 115.05
M 185.1 105.65
Q 185.1484375 105.6015625 185.2 105.6
L 183.5 105.6
Q 183.5 105.65 183.5 105.75 183.55 106.65 183.45 108.55 183.3 110.4 183.35 111.35 183.4 111.65 183.35 111.75 183.35 112 183.25 112.15 183.15 112.3 183 112.4 182.85 112.5 182.7 112.5 182.5 112.5 182.35 112.45 182.2 112.35 182.1 112.2 182 112 181.95 111.55 181.9 110.6 182 108.8 182.1 106.95 182.1 106.05 182.05 105.75 182.1 105.6
L 178.65 105.6 178.65 105.65
Q 178.75 108.5 178.6 110.9 178.6 111.4 178.45 111.6 178.25 111.9 177.85 111.9 177.7 111.9 177.55 111.85 177.4 111.75 177.3 111.6 177.2 111.45 177.2 111.15 177.15 111 177.2 110.7 177.3 109.85 177.3 108.1 177.3 106.5 177.25 105.8
L 177.25 105.75
Q 177.2 105.65 177.2 105.6
L 176.45 105.6 176.45 112.55
Q 176.5 112.5 176.55 112.5 176.75 112.5 176.95 112.65 177.15 112.75 177.25 112.95 177.3 113.1 177.3 113.55 177.3 113.8 177.25 113.95 177.15 114.25 176.85 114.4 176.65 114.5 176.45 114.45
L 176.45 116.4
Q 176.5 116.35 176.55 116.35 176.75 116.35 176.9 116.4 177.1 116.5 177.2 116.6 177.35 116.85 177.35 117.3 177.4 117.85 177.25 118.8 177.15 119.85 177.15 120.3 177.15 120.7 177.25 121.3 177.3 122.15 177.3 122.3 177.35 122.65 177.3 122.9
L 179.55 122.9 179.8 119
Q 179.95 116.95 179.95 115.9 180.05 114.2 180.05 112.85 180.05 112.4 180.15 112.2 180.2 112 180.35 111.9 180.55 111.85 180.7 111.8 180.9 111.8 181.05 111.9 181.2 112 181.3 112.15 181.45 112.35 181.45 112.85 181.45 114.9 181.25 118.05 181.05 121.8 180.95 122.95
L 181.7 122.95
Q 181.7 122.85 181.7 122.7 181.75 121.75 181.7 120.8 181.7 120.5 181.7 120.35 181.7 120.1 181.8 119.95 181.9 119.8 182.1 119.7 182.25 119.6 182.4 119.65 182.6 119.65 182.75 119.75 182.9 119.85 183 120 183.1 120.15 183.1 120.6 183.15 121.25 183.1 122.95
L 183.1 123 183.9 123
Q 183.85 122.9984375 183.85 122.95 183.75 121.15 183.75 120.25 183.75 119.6 183.75 119.3 183.75 118.75 183.65 118.35 183.6 118 183.6 117.95 183.55 117.7 183.6 117.55 183.65 117.4 183.8 117.25 183.95 117.15 184.1 117.1 184.25 117.05 184.45 117.1 184.6 117.15 184.75 117.25 184.95 117.5 185 117.9 185.15 118.5 185.15 119.25 185.15 119.7 185.15 120.6 185.15 121.55 185.25 122.7 185.3 122.85 185.3 123
L 185.45 123 185.4 114.3
Q 185.35 114.4 185.2 114.45 185.05 114.55 184.9 114.55 184.7 114.55 184.55 114.45 184.4 114.4 184.3 114.2 184.15 114 184.15 113.55 184.2 112.2 184.2 111.7 184.3 110.95 184.45 109.95 184.7 108.8 184.8 108.2 185 107.15 185 106.65
L 185 106.15
Q 185 105.85 185.1 105.65
M 183.4 115.2
Q 183.4 115.3 183.4 115.5 183.25 116.3 183.1 117.2 183.05 117.45 182.95 117.55 182.85 117.8 182.65 117.85 182.45 118 182.2 117.9 182 117.85 181.85 117.7 181.7 117.5 181.65 117.3 181.65 117.15 181.7 116.9 181.9 116.1 182 115.4 182.05 115 182.15 114.9 182.25 114.7 182.45 114.6 182.7 114.5 182.9 114.6 183.1 114.65 183.25 114.8 183.4 115 183.4 115.2
M 180.5 106.9
Q 180.65 107 180.7 107.2 180.8 107.35 180.8 107.75 180.8 108.1 180.85 108.9 180.9 109.7 180.9 109.8 180.95 110.1 180.95 110.25 180.9 110.4 180.8 110.6 180.7 110.75 180.5 110.8 180.35 110.9 180.15 110.85 179.95 110.8 179.8 110.7 179.65 110.55 179.55 110.25 179.5 110.05 179.5 109.75
L 179.4 107.8
Q 179.4 107.35 179.45 107.15 179.55 107 179.7 106.85 179.9 106.75 180.1 106.75 180.3 106.75 180.5 106.9
M 177.85 114.25
Q 177.9 113.85 178.05 113.7 178.15 113.55 178.35 113.45 178.5 113.4 178.7 113.4 178.85 113.4 179 113.55 179.15 113.65 179.2 113.8 179.3 114 179.3 114.25 179.3 114.35 179.2 114.7 179.05 115.4 179.05 116.3 179 116.85 179 117.95 179 118.2 179 118.3 178.95 118.55 178.85 118.65 178.75 118.85 178.6 118.95 178.4 119 178.2 119 178 118.95 177.85 118.85 177.7 118.7 177.65 118.55 177.6 118.4 177.6 118.05 177.6 116.8 177.65 116.15 177.7 115.1 177.85 114.25
M 177.7 120.3
Q 177.75 120.05 177.9 119.9 178.1 119.75 178.3 119.7 178.5 119.7 178.7 119.8 178.9 119.9 179 120.05 179.15 120.3 179.1 120.65 179.1 120.85 179.05 121.25 179 121.45 179.05 121.8 179.05 122 179.05 122.1 179 122.35 178.8 122.5 178.65 122.65 178.4 122.7 178.2 122.75 178 122.6 177.8 122.5 177.7 122.3 177.65 122.15 177.6 121.95 177.6 121.7 177.6 121.55 177.6 121.05 177.65 120.95 177.7 120.75 177.7 120.6 177.7 120.4 177.7 120.3
M 173.05 86.6
Q 173.05 86.5 173.05 86.35
L 171.9 86.35
Q 171.9 86.65 171.95 86.9 172.05 87.5 172.05 87.65 172.05 87.9 171.95 88.1 171.85 88.25 171.65 88.35 171.45 88.45 171.25 88.45 171.05 88.45 170.9 88.3 170.75 88.15 170.65 87.95 170.65 87.85 170.65 87.55 170.6 87.45 170.55 87.15 170.5 86.85 170.5 86.45
L 170.45 86.35 169.8 86.35
Q 169.8 86.9 169.85 87.85 169.9 89.75 169.9 90.55 169.95 92.05 169.9 93.2 169.9 93.65 169.8 93.85 169.7 94 169.55 94.1 169.35 94.2 169.2 94.2 169 94.2 168.85 94.1 168.7 94 168.6 93.85 168.5 93.6 168.5 93.1 168.5 92.4 168.5 91.65 168.55 90.65 168.45 88 168.45 87.05 168.4 86.35
L 167.45 86.35
Q 167.45 87.15 167.45 87.85 167.45 88.25 167.45 88.4 167.5 88.55 167.6 88.8 167.7 89.2 167.65 89.55 167.65 89.85 167.5 90 167.35 90.2 167.1 90.25 166.85 90.3 166.6 90.15 166.35 90 166.3 89.8 166.25 89.7 166.25 89.55 166.25 89.35 166.25 89.25 166.25 89.15 166.2 89 166.1 88.8 166.1 88.75 166.05 88.55 166.05 88.25 166.05 88.15 166.05 87.7 166.05 87.1 166.05 86.5 166.05 86.45 166.05 86.35
L 165.15 86.35 165.15 101.3 165.2 101.25
Q 165.4 101.2 165.6 101.2 165.8 101.25 165.95 101.4 166.1 101.5 166.15 101.7 166.2 101.9 166.15 102.3 166.1 102.75 166.1 103.3 166.1 103.65 166.1 104.25
L 166.9 104.25
Q 166.9 104.1 166.9 103.8 167.05 102.55 167 101.5 167 101.2 166.85 99.55 166.75 98.35 166.8 97.55 166.85 97.15 166.95 96.95 167.05 96.8 167.25 96.7 167.4 96.6 167.6 96.65 167.75 96.65 167.95 96.75 168.1 96.9 168.15 97.05 168.25 97.2 168.25 97.45 168.25 97.55 168.2 97.8 168.15 98.55 168.25 99.75 168.45 101.2 168.45 101.7 168.45 102.15 168.4 102.85 168.35 103.2 168.3 103.95 168.3 104.1 168.3 104.25
L 168.95 104.25
Q 169 104.2 169.05 104.15 169.05 104 169.05 103.8
L 169.05 101.05
Q 169.05 99.8 169.1 99.2 169.2 98.1 169.25 97.55 169.3 96.6 169.25 95.9 169.25 95.55 169.25 95.4 169.25 95.15 169.35 94.95 169.55 94.7 169.9 94.7 170.2 94.65 170.45 94.9 170.65 95.15 170.65 95.85 170.7 96.95 170.6 98
L 170.5 99.1
Q 170.45 99.65 170.45 100.8
L 170.45 103.8
Q 170.45 104.05 170.4 104.25
L 171.6 104.25
Q 171.55 103.1 171.55 102.5 171.5 101.8 171.5 100.3 171.5 96.15 171.45 93.5
L 171.45 91.5
Q 171.4 90.9 171.65 90.65 171.85 90.4 172.2 90.45 172.5 90.45 172.65 90.75 172.85 91 172.85 91.55 172.85 92.35 172.9 94 172.95 98.15 172.9 100.25 172.9 101.55 172.95 102.5 172.95 103.05 173 104.15 173 104.2 173.05 104.25
L 173.5 104.25
Q 173.45 103.6 173.4 103.25 173.3 102.9 173.3 102.8 173.3 102.5 173.35 102.3 173.5 102 173.85 101.95 173.95 101.9 174.15 101.95 174.25 101.95 174.3 102
L 174.3 97.25 174.25 97.25
Q 173.95 97.25 173.75 97 173.65 96.85 173.6 96.6 173.55 96.45 173.55 96.15 173.5 93.05 173.65 91.45 173.75 90.4 173.75 90.15 173.75 89.4 173.6 88.85 173.55 88.7 173.5 88.45 173.35 88.1 173.35 88 173.1 87.35 173.05 86.6
M 167.2 92.1
Q 167.25 92.25 167.25 92.5 167.2 93.35 167.25 94.1 167.25 94.35 167.25 94.4 167.2 94.6 167.05 94.75 166.9 94.9 166.7 94.95 166.55 95 166.35 94.95 166.1 94.85 166 94.7 165.9 94.55 165.85 94.3 165.8 94.15 165.8 93.85
L 165.8 92.65
Q 165.8 92.15 165.95 91.9 166.05 91.75 166.25 91.65 166.45 91.55 166.65 91.6 166.85 91.6 167 91.75 167.15 91.9 167.2 92.1
M 181.1 86.35
L 176.45 86.35 176.45 94.25
Q 176.5 93.95 176.5 93.65 176.65 92.5 176.7 92 176.85 90.05 176.85 88.35 176.85 88.05 176.85 87.9 176.9 87.65 177.05 87.45 177.25 87.2 177.6 87.25 177.95 87.25 178.15 87.55 178.25 87.8 178.25 88.25 178.2 91.5 177.75 94.8 177.7 95.25 177.6 95.4 177.45 95.55 177.25 95.65 177.1 95.7 176.9 95.7 176.7 95.65 176.55 95.5 176.5 95.45 176.45 95.4
L 176.45 96.8
Q 176.5 96.75 176.6 96.75 176.75 96.7 176.9 96.8 177.1 96.85 177.2 97 177.3 97.2 177.35 97.5 177.35 97.55 177.3 98 177.25 98.4 177.25 99.25
L 177.25 100.3
Q 177.25 100.65 177.15 100.85 177.05 101.05 176.85 101.15 176.7 101.25 176.5 101.2
L 176.45 101.2 176.45 104.25 177.4 104.25
Q 177.45 104 177.45 103.65 177.45 103 177.5 102.65 177.5 102.3 177.6 101.6 177.75 100.45 177.95 98.65 177.95 98.35 178 98.2 178.05 98 178.15 97.85 178.4 97.55 178.75 97.6 178.95 97.6 179.1 97.7 179.25 97.8 179.3 97.95 179.45 98.2 179.35 98.7
L 179.1 100.95
Q 178.9 102.4 178.9 103.2 178.9 103.4 178.85 103.85 178.85 104.05 178.85 104.25
L 182.05 104.25 182 102.8
Q 182 102.5 182.05 102.35 182.1 102.2 182.25 102.05 182.4 101.9 182.55 101.85 182.75 101.85 182.9 101.9 183.1 101.95 183.2 102.1 183.35 102.25 183.4 102.5 183.45 102.65 183.45 102.95
L 183.45 104.05
Q 183.45 104.15 183.5 104.25
L 184.5 104.25 184.55 103.5
Q 184.55 103.15 184.6 103 184.7 102.8 184.85 102.7 185.05 102.55 185.25 102.55 185.3 102.55 185.35 102.55
L 185.25 86.35 184.7 86.35
Q 184.7 86.5 184.75 86.65 184.75 87.25 184.85 88.15 184.95 89.3 185 89.65 185.05 90.15 184.9 90.4 184.8 90.55 184.65 90.65 184.5 90.75 184.3 90.75 184.15 90.75 184 90.65 183.85 90.6 183.75 90.45 183.6 90.25 183.6 89.75 183.6 89.5 183.5 88.65
L 183.35 86.95
Q 183.3 86.6 183.35 86.35
L 182.5 86.35
Q 182.5 86.5 182.5 86.75 182.5 87 182.55 87.8
L 182.7 89.05
Q 182.7 89.35 182.7 89.5 182.7 89.75 182.55 89.95 182.45 90.1 182.25 90.2 182.1 90.25 181.9 90.25 181.7 90.2 181.55 90.1 181.4 89.95 181.35 89.75 181.3 89.6 181.3 89.25 181.3 88.9 181.2 88.3 181.15 87.6 181.15 87.3 181.1 86.75 181.1 86.5 181.1 86.45 181.1 86.35
M 180.6 89.1
Q 180.95 89.2 181.05 89.45 181.15 89.65 181.15 90.15 181.1 90.6 181.1 91.4 181.1 92.4 181.05 92.7 181.05 93.4 180.95 94.8 180.85 96 180.75 96.55 180.75 97 180.6 97.2 180.5 97.35 180.3 97.45 180.15 97.5 180 97.5 179.85 97.5 179.7 97.4 179.55 97.3 179.45 97.15 179.3 96.9 179.4 96.3 179.5 95.2 179.6 94.15 179.5 94.35 179.35 94.5 179.15 94.6 178.95 94.6 178.75 94.6 178.55 94.5 178.35 94.35 178.3 94.15 178.25 94.1 178.25 93.95 178.25 93.75 178.35 93.6 178.45 93.4 178.6 93.35 178.55 93.3 178.5 93.25 178.35 93.15 178.35 93 178.25 92.85 178.3 92.65 178.3 92.5 178.4 92.35 178.5 92.2 178.65 92.15 178.85 92.05 179 92.05 179.2 92.1 179.35 92.15 179.5 92.25 179.55 92.4 179.65 92.5 179.65 92.65 179.7 92.85 179.6 93.05 179.5 93.25 179.35 93.35
L 179.4 93.4
Q 179.55 93.55 179.6 93.75 179.75 92 179.7 90.4 179.7 89.9 179.75 89.75 179.85 89.35 180.1 89.2 180.3 89.05 180.6 89.1
M 181.9 93.45
Q 181.95 93.05 182.05 92.9 182.2 92.65 182.5 92.55 182.8 92.5 183 92.7 183.25 92.9 183.3 93.35 183.3 93.6 183.2 94.05 182.9 95.8 182.95 97.55 182.95 97.9 182.95 98.05 182.9 98.3 182.8 98.45 182.7 98.6 182.55 98.7 182.4 98.75 182.25 98.75 182.05 98.75 181.9 98.65 181.75 98.55 181.7 98.45 181.55 98.2 181.55 97.75 181.55 96.75 181.55 96.1 181.6 95.55 181.7 94.8 181.8 93.9 181.9 93.45
M 180.35 98.5
Q 180.55 98.45 180.7 98.45 180.9 98.45 181.05 98.55 181.2 98.65 181.25 98.85 181.35 99 181.35 99.45 181.35 101.55 181.3 102.05 181.3 102.5 181.15 102.7 181.05 102.85 180.9 102.95 180.7 103 180.55 103 180.35 103 180.2 102.85 180.05 102.75 179.95 102.6 179.85 102.35 179.9 101.85 180 101.15 179.95 99.55 179.95 99 180.1 98.75 180.2 98.6 180.35 98.5
M 184.95 93.6
Q 185 93.75 185 93.95 184.95 94.05 184.95 94.3 184.8 95.1 184.8 96.3 184.8 97 184.85 98.3 184.85 99.55 184.65 100.8 184.6 101.3 184.4 101.5 184.3 101.65 184.15 101.7 183.95 101.75 183.8 101.7 183.65 101.7 183.5 101.6 183.35 101.45 183.3 101.3 183.2 101.05 183.3 100.6 183.4 99.8 183.4 99.1 183.45 98.5 183.45 96.6 183.45 95 183.55 94.05 183.6 93.6 183.75 93.4 183.9 93.25 184.05 93.15 184.25 93.1 184.45 93.15 184.6 93.2 184.75 93.3 184.9 93.45 184.95 93.6
M 125.5 98.75
L 84.9 98.75 84.9 122.95 125.5 122.95 125.5 98.75
M 121.7 101.4
Q 121.7984375 101.4984375 121.8 101.45 121.79921875 101.950390625 121.35 102.15 120.9 102.35 120.55 102 120.478125 102 120.4 102 120.337890625 102.0228515625 120.25 102.05 119.9 102.15 119.55 101.95 119.2 101.7 119.1 101.35 118 101.65 116.9 102.35 116.3 102.75 116 102.65 115.65 102.6 115.4 102.25
L 114.45 101.2
Q 113.8 101.5 112.5 101.3 111.05 101.1 110.5 101.2 109.9 101.35 109.35 101.75 108.9 102.1 108.6 102.05 108.55 102.05 107.9 101.8 107.45 101.6 106.5 102
L 105.3 102.5
Q 104.7 102.7 104.45 102.6 104.35 102.55 103.85 102.05 103.35 101.55 102.5 101.7 102.05 101.75 101.15 102.05 100.7 102.2 100.35 102.15 99.65 102.1 98.95 101.1 98.8 101.35 98.45 101.45 98.15 101.5 97.9 101.3 97.65 101.05 97.5 101 97.3 100.9 97 101.1 96.85 101.2 96.55 101.45 96.25 101.6 95.65 101.6 94.95 101.55 94.75 101.6 93.95 102.05 93.5 102.1 93.0869140625 102.1826171875 92.3 101.75
L 92 101.95 91.85 102 91.25 102.35
Q 90.95 102.45 90.8 102.4 90.6 102.4 90.5 102.2
L 89.85 101.6 89.7 101.5
Q 89.6 101.4 89.65 101.35
L 89.6 101.3 89.5 101
Q 89.4 100.85 89.5 100.75
L 89.55 100.75 89.5 100.6 89.65 100.45 89.95 100.3 90.3 100.45 90.4 100.6 90.55 100.9
Q 90.65 101.05 90.75 101.05
L 90.9 101.2 91 101.25
Q 91.15 101.3 91.35 101.15
L 91.5 101 91.55 100.95
Q 91.5853515625 100.6830078125 92 100.6 92.35 100.5 92.65 100.75 93.25 101.05 93.35 101.05 93.4 101.05 93.9 100.8 94.5 100.55 95.05 100.55 95.25 100.55 95.55 100.6 95.8 100.6 96 100.5 96.05 100.5 96.65 100.05 97.05 99.85 97.55 99.9 98 99.95 98.3 100.3 98.95 99.95 99.4 100.2 99.6 100.3 99.85 100.6 100.1 100.95 100.25 101 100.6 101.2 101.4 100.95 102.3 100.6 103 100.6 104 100.7 104.45 101.2
L 104.75 101.5
Q 104.9 101.55 105.2 101.45 105.65 101.3 106.5 100.9 107.3 100.6 107.85 100.75
L 108.55 100.9
Q 108.85 100.9 109.4 100.6 110.55 100.05 111.7 100.1 112 100.15 112.6 100.3 113.15 100.45 113.55 100.4 113.6 100.4 114.1 100.25 114.4 100.15 114.65 100.2 115 100.25 115.85 101.25 115.95 101.45 116.15 101.45 116.25 101.5 116.5 101.4
L 118.25 100.55
Q 118.9 100.2 119.3 100.25 120.1 100.35 119.95 101 120.15 100.8 120.45 100.9 120.519921875 100.9232421875 120.55 100.95
L 120.75 100.95
Q 121 100.9 121.4 101.1 121.7 101.3 121.7 101.4
M 114.4 103.8
Q 117.7 103.8 120 106.05 122.3 108.35 122.3 111.7 122.3 114.95 120 117.3 117.7 119.6 114.4 119.6 111.1 119.6 108.8 117.3 106.5 114.95 106.5 111.7 106.5 108.35 108.8 106.05 111.1 103.8 114.4 103.8
M 103.7 111.7
Q 103.7 114.95 101.45 117.3 99.1 119.6 95.8 119.6 92.5 119.6 90.2 117.3 87.9 114.95 87.9 111.7 87.9 108.35 90.2 106.05 92.5 103.8 95.8 103.8 99.1 103.8 101.45 106.05 103.7 108.35 103.7 111.7
M 109.45 97.75
L 111.45 84.85 97.85 84.85 100.45 97.75 109.45 97.75 Z"/>
</g>
</defs>

<g transform="matrix( 1, 0, 0, 1, 0,0) ">
<use xlink:href="#Layer1_0_MEMBER_0_MEMBER_0_MEMBER_0_FILL"/>
</g>

<g transform="matrix( 1, 0, 0, 1, 0,0) ">
<use xlink:href="#Layer1_1_MEMBER_0_MEMBER_0_MEMBER_0_FILL"/>
</g>

<g transform="matrix( 1, 0, 0, 1, 0,0) ">
<use xlink:href="#Layer1_2_MEMBER_0_MEMBER_0_MEMBER_0_FILL"/>
</g>

<g transform="matrix( 1, 0, 0, 1, 0,0) ">
<use xlink:href="#Layer1_3_MEMBER_0_MEMBER_0_MEMBER_0_FILL"/>
</g>

<g transform="matrix( 1, 0, 0, 1, 0,0) ">
<use xlink:href="#Layer1_4_MEMBER_0_MEMBER_0_MEMBER_0_FILL"/>
</g>

<g transform="matrix( 1, 0, 0, 1, 0,0) ">
<use xlink:href="#Layer1_5_MEMBER_0_MEMBER_0_MEMBER_0_FILL"/>
</g>

<g transform="matrix( 1, 0, 0, 1, 0,0) ">
<use xlink:href="#Layer1_6_MEMBER_0_MEMBER_0_MEMBER_0_FILL"/>
</g>

<g transform="matrix( 1, 0, 0, 1, 0,0) ">
<use xlink:href="#Layer1_7_MEMBER_0_MEMBER_0_MEMBER_0_FILL"/>
</g>

<g transform="matrix( 1, 0, 0, 1, 0,0) ">
<use xlink:href="#Layer1_8_MEMBER_0_MEMBER_0_MEMBER_0_FILL"/>
</g>

<g transform="matrix( 1, 0, 0, 1, 0,0) ">
<use xlink:href="#Layer1_9_MEMBER_0_MEMBER_0_MEMBER_0_FILL"/>
</g>

<g transform="matrix( 1, 0, 0, 1, 0,0) ">
<use xlink:href="#Layer1_10_MEMBER_0_MEMBER_0_MEMBER_0_FILL"/>
</g>

<g transform="matrix( 1, 0, 0, 1, 0,0) ">
<use xlink:href="#Layer1_11_MEMBER_0_MEMBER_0_MEMBER_0_FILL"/>
</g>

<g transform="matrix( 1, 0, 0, 1, 0,0) ">
<use xlink:href="#Layer1_12_MEMBER_0_MEMBER_0_MEMBER_0_FILL"/>
</g>

<g transform="matrix( 1, 0, 0, 1, 0,0) ">
<use xlink:href="#Layer1_13_MEMBER_0_MEMBER_0_MEMBER_0_FILL"/>
</g>

<g transform="matrix( 1, 0, 0, 1, 0,0) ">
<use xlink:href="#Layer1_14_MEMBER_0_MEMBER_0_MEMBER_0_FILL"/>
</g>

<g transform="matrix( 1, 0, 0, 1, 0,0) ">
<use xlink:href="#Layer1_15_MEMBER_0_MEMBER_0_MEMBER_0_FILL"/>
</g>

<g transform="matrix( 1, 0, 0, 1, 0,0) ">
<use xlink:href="#Layer1_16_MEMBER_0_MEMBER_0_MEMBER_0_FILL"/>
</g>

<g transform="matrix( 1, 0, 0, 1, 0,0) ">
<use xlink:href="#Layer1_17_MEMBER_0_MEMBER_0_MEMBER_0_FILL"/>
</g>

<g transform="matrix( 1, 0, 0, 1, 0,0) ">
<use xlink:href="#Layer1_18_MEMBER_0_MEMBER_0_MEMBER_0_FILL"/>
</g>

<g transform="matrix( 1, 0, 0, 1, 0,0) ">
<use xlink:href="#Layer1_19_MEMBER_0_MEMBER_0_MEMBER_0_FILL"/>
</g>

<g transform="matrix( 1, 0, 0, 1, 0,0) ">
<use xlink:href="#Layer1_20_MEMBER_0_MEMBER_0_MEMBER_0_FILL"/>
</g>

<g transform="matrix( 1, 0, 0, 1, 0,0) ">
<use xlink:href="#Layer1_21_MEMBER_0_MEMBER_0_MEMBER_0_FILL"/>
</g>

<g transform="matrix( 1, 0, 0, 1, 0,0) ">
<use xlink:href="#Layer1_22_MEMBER_0_MEMBER_0_MEMBER_0_FILL"/>
</g>

<g transform="matrix( 1, 0, 0, 1, 0,0) ">
<use xlink:href="#Layer1_23_MEMBER_0_MEMBER_0_MEMBER_0_FILL"/>
</g>

<g transform="matrix( 1, 0, 0, 1, 0,0) ">
<use xlink:href="#Layer1_24_MEMBER_0_MEMBER_0_MEMBER_0_FILL"/>
</g>

<g transform="matrix( 1, 0, 0, 1, 0,0) ">
<use xlink:href="#Layer1_25_MEMBER_0_MEMBER_0_MEMBER_0_FILL"/>
</g>

<g transform="matrix( 1, 0, 0, 1, 0,0) ">
<use xlink:href="#Layer1_26_MEMBER_0_MEMBER_0_MEMBER_0_FILL"/>
</g>

<g transform="matrix( 1, 0, 0, 1, 0,0) ">
<use xlink:href="#Layer1_27_MEMBER_0_MEMBER_0_MEMBER_0_FILL"/>
</g>

<g transform="matrix( 1, 0, 0, 1, 0,0) ">
<use xlink:href="#Layer1_28_MEMBER_0_MEMBER_0_MEMBER_0_FILL"/>
</g>

<g transform="matrix( 1, 0, 0, 1, 0,0) ">
<use xlink:href="#Layer1_29_MEMBER_0_MEMBER_0_MEMBER_0_FILL"/>
</g>

<g transform="matrix( 1, 0, 0, 1, 0,0) ">
<use xlink:href="#Layer1_30_MEMBER_0_MEMBER_0_MEMBER_0_FILL"/>
</g>

<g transform="matrix( 1, 0, 0, 1, 0,0) ">
<use xlink:href="#Layer1_31_MEMBER_0_MEMBER_0_MEMBER_0_FILL"/>
</g>

<g transform="matrix( 1, 0, 0, 1, 0,0) ">
<use xlink:href="#Layer1_32_MEMBER_0_MEMBER_0_MEMBER_0_FILL"/>
</g>

<g transform="matrix( 1, 0, 0, 1, 0,0) ">
<use xlink:href="#Layer1_33_MEMBER_0_MEMBER_0_MEMBER_0_FILL"/>
</g>

<g transform="matrix( 1, 0, 0, 1, 0,0) ">
<use xlink:href="#Layer1_34_MEMBER_0_MEMBER_0_MEMBER_0_FILL"/>
</g>

<g transform="matrix( 1, 0, 0, 1, 0,0) ">
<use xlink:href="#Layer1_35_MEMBER_0_MEMBER_0_MEMBER_0_FILL"/>
</g>

<g transform="matrix( 1, 0, 0, 1, 0,0) ">
<use xlink:href="#Layer1_36_MEMBER_0_MEMBER_0_MEMBER_0_FILL"/>
</g>

<g transform="matrix( 1, 0, 0, 1, 0,0) ">
<use xlink:href="#Layer1_37_MEMBER_0_MEMBER_0_MEMBER_0_FILL"/>
</g>

<g transform="matrix( 1, 0, 0, 1, 0,0) ">
<use xlink:href="#Layer1_38_MEMBER_0_MEMBER_0_MEMBER_0_FILL"/>
</g>

<g transform="matrix( 1, 0, 0, 1, 0,0) ">
<use xlink:href="#Layer1_39_MEMBER_0_MEMBER_0_MEMBER_0_FILL"/>
</g>

<g transform="matrix( 1, 0, 0, 1, 0,0) ">
<use xlink:href="#Layer1_40_MEMBER_0_MEMBER_0_MEMBER_0_FILL"/>
</g>

<g transform="matrix( 1, 0, 0, 1, 0,0) ">
<use xlink:href="#Layer1_41_MEMBER_0_MEMBER_0_MEMBER_0_FILL"/>
</g>

<g transform="matrix( 1, 0, 0, 1, 0,0) ">
<use xlink:href="#Layer1_42_MEMBER_0_MEMBER_0_MEMBER_0_FILL"/>
</g>

<g transform="matrix( 1, 0, 0, 1, 0,0) ">
<use xlink:href="#Layer1_43_MEMBER_0_MEMBER_0_MEMBER_0_FILL"/>
</g>

<g transform="matrix( 1, 0, 0, 1, 0,0) ">
<use xlink:href="#Layer1_44_MEMBER_0_MEMBER_0_MEMBER_0_FILL"/>
</g>

<g transform="matrix( 1, 0, 0, 1, 0,0) ">
<use xlink:href="#Layer1_45_MEMBER_0_MEMBER_0_MEMBER_0_FILL"/>
</g>

<g transform="matrix( 1, 0, 0, 1, 0,0) ">
<use xlink:href="#Layer1_46_MEMBER_0_MEMBER_0_MEMBER_0_FILL"/>
</g>

<g transform="matrix( 1, 0, 0, 1, 0,0) ">
<use xlink:href="#Layer1_47_MEMBER_0_MEMBER_0_MEMBER_0_FILL"/>
</g>

<g transform="matrix( 1, 0, 0, 1, 0,0) ">
<use xlink:href="#Layer1_48_MEMBER_0_MEMBER_0_MEMBER_0_FILL"/>
</g>

<g transform="matrix( 1, 0, 0, 1, 0,0) ">
<use xlink:href="#Layer1_49_MEMBER_0_MEMBER_0_MEMBER_0_FILL"/>
</g>

<g transform="matrix( 1, 0, 0, 1, 0,0) ">
<use xlink:href="#Layer1_50_MEMBER_0_MEMBER_0_MEMBER_0_FILL"/>
</g>

<g transform="matrix( 1, 0, 0, 1, 0,0) ">
<use xlink:href="#Layer1_51_MEMBER_0_MEMBER_0_MEMBER_0_FILL"/>
</g>

<g transform="matrix( 1, 0, 0, 1, 0,0) ">
<use xlink:href="#Layer1_52_MEMBER_0_MEMBER_0_MEMBER_0_FILL"/>
</g>

<g transform="matrix( 1, 0, 0, 1, 0,0) ">
<use xlink:href="#Layer1_53_MEMBER_0_MEMBER_0_MEMBER_0_FILL"/>
</g>

<g transform="matrix( 1, 0, 0, 1, 0,0) ">
<use xlink:href="#Layer1_54_MEMBER_0_MEMBER_0_MEMBER_0_FILL"/>
</g>

<g transform="matrix( 1, 0, 0, 1, 0,0) ">
<use xlink:href="#Layer0_0_FILL"/>
</g>
</svg>
