
<svg xmlns="http://www.w3.org/2000/svg" version="1.1" xmlns:xlink="http://www.w3.org/1999/xlink" preserveAspectRatio="none" x="0px" y="0px" width="126px" height="150px" viewBox="0 0 126 150">
<defs>
<g id="Layer2_0_FILL">
<path fill="#D2D2D2" stroke="none" d="
M 97.75 46.9
Q 96.95 43 94.7 44.2 81.25 51.2 69.2 54.9 58.8 58.1 59.8 56.65 62.8 53.4 64.9 51.05 68.95 46.55 67.15 47.65 49.3 58.2 28.45 61.5 27.75 70.1 27.7 73.4 27.7 76.3 28.15 81.4 28.45 84.85 29.75 88.3 31.15 92.2 31.3 93.15 31.95 96.95 32.15 104.2 32.35 111.5 32.8 114.35 33.2 120.85 35.95 125.9 37.3 128.4 38.6 129.6 40.95 131.85 41.5 132.45 42 133 45.05 136.6 50.7 143.25 54.45 146.05 58.45 149 62.05 149 65.3 149 70.4 145.15 71.15 144.55 76.8 139.6 78.3 138.25 80.9 135.45 84.2 131.95 86.2 129.8 86.95 129.15 87.95 126.85 89.85 122.3 90.9 114.3 91.5 107.95 91.9 104.35 92.6 97.8 94.4 92.75 96.3 87.7 96.9 84
L 97.1 81.3
Q 97.75 75.95 98 63.35
L 98.1 51.85
Q 97.9 47.85 97.75 46.9 Z"/>
</g>

<g id="Layer2_1_FILL">
<path fill="#000000" stroke="none" d="
M 3.5 91.85
Q 1.6 93.95 0.55 94.75 5.65 94.8 9.35 93 11.2 92.1 12 91.2 10.9 94.5 5.35 98.8 2.65 100.85 0.7 102.35 5.15 102.95 9.45 101.85 13.75 100.8 17.35 98.15 18.8 106.8 21.25 113.35 24.65 122.6 29.4 126.1 29.85 126.45 29.75 124.8 29.55 122.9 29.55 122.5 29.85 122.7 32.05 125.25 34.85 128.05 38.55 129.6 37.3 128.4 35.95 125.9 33.2 120.85 32.8 114.35 32.35 111.55 32.15 104.2 31.95 96.95 31.3 93.15 30.75 90.7 29.85 88.7
L 29.85 92.35
Q 29.85 94.2 28.3 96.1 26.6 98.15 24.5 98.15 22.05 98.1 20.3 96.4 18.5 94.75 18.25 92.35
L 18.25 92 16.75 92
Q 15.25 92 14.15 91 13.05 89.95 12.85 88.45
L 12.85 81.4 9.8 81.4
Q 7.5 87.55 3.5 91.85 Z"/>
</g>

<g id="Layer2_2_FILL">
<path fill="#000000" stroke="none" d="
M 98.4 96.1
Q 96.8 94.2 96.8 92.35
L 96.8 84.35
Q 96.05 88.2 94.4 92.85 92.6 97.9 91.85 104.45 91.45 108 90.85 114.35 89.8 122.35 87.9 126.9 86.9 129.2 86.15 129.85 89.7 128.25 92.45 124.85 94.35 121.95 94.4 122.25 94.6 122.9 94.25 124.7 93.8 126.85 93.8 127.8 98.85 124.35 101.35 118.8 101.6 119.35 101.9 120.85 102.2 122.25 102.55 122.9 104.8 119.3 107.15 114.25 111.85 104.2 112.55 97.1 112.95 92.85 112.95 90.45 111.75 92 109.75 92
L 108.4 92 108.4 92.35
Q 108.2 94.8 106.45 96.45 104.65 98.1 102.2 98.15 100.1 98.15 98.4 96.1 Z"/>
</g>

<g id="Layer2_3_FILL">
<path fill="#000000" stroke="none" d="
M 109.25 46.6
Q 108.85 43.3 107.95 39.7 103.05 25 92 17.05 85.1 12 76.15 9.7 69.9 8.05 63.25 7.9 56.65 8.05 50.4 9.7 41.5 12 34.6 17.05 23.5 25.1 18.6 39.7 17.7 43.3 17.3 46.6
L 16.15 65 18.25 65 18.25 64.7
Q 18.15 62.55 19.6 60.95 21 59.35 23.15 59.25
L 23.75 59.25
Q 26.7 59.25 28.45 61.55 49.2 58.3 67.15 47.65 69 46.55 64.9 51.1 62.8 53.45 59.8 56.65 58.7 58.05 69.2 54.85 81.35 51.2 94.7 44.2 98.1 42.4 98.1 51.85
L 98.05 51.85 98 61.75
Q 99.7 59.3 102.6 59.2 105.4 59.2 106.95 60.75 108.4 62.25 108.4 64.7
L 108.4 65 110.4 65 109.25 46.6 Z"/>
</g>

<g id="Layer1_0_FILL">
<path fill="#66CC33" stroke="none" d="
M 4.2 8.25
L 16.05 17.75
Q 2.3302734375 80.9693359375 16.05 136.3
L 23.65 123.5 27.85 138.95 41.5 132.45 46.7 149.3 60.1 136.1 74.85 149.35 83.55 132.6 96.75 146.8 102.1 128.25 116.6 141.6
Q 126.81484375 73.3978515625 116.6 8.25
L 4.2 8.25
M 93.8 127.8
L 31.85 127.8 26.35 31.9 100.4 31.9 93.8 127.8 Z"/>
</g>
</defs>

<g transform="matrix( 1, 0, 0, 1, 0,0) ">
<use xlink:href="#Layer2_0_FILL"/>
</g>

<g transform="matrix( 1, 0, 0, 1, 0,0) ">
<use xlink:href="#Layer2_1_FILL"/>
</g>

<g transform="matrix( 1, 0, 0, 1, 0,0) ">
<use xlink:href="#Layer2_2_FILL"/>
</g>

<g transform="matrix( 1, 0, 0, 1, 0,0) ">
<use xlink:href="#Layer2_3_FILL"/>
</g>

<g transform="matrix( 1, 0, 0, 1, 0,0) ">
<use xlink:href="#Layer1_0_FILL"/>
</g>
</svg>
