
<svg xmlns="http://www.w3.org/2000/svg" version="1.1" xmlns:xlink="http://www.w3.org/1999/xlink" preserveAspectRatio="none" x="0px" y="0px" width="347px" height="99px" viewBox="0 0 347 99">
<defs>
<g id="Layer1_0_FILL">
<path fill="#5A5A5A" stroke="none" d="
M 351.25 5.6
L 351.25 5.55 338.65 7.25
Q 338.35 7.25 338.45 7.5
L 338.35 16.3 337.7 16.25
Q 336.5 16.25 335.65 17.1 334.8 17.95 334.75 19.15 334.7 20.4 335.55 21.25 336.4 22.1 337.6 22.15
L 337.65 22.15
Q 338.85 22.1 339.7 21.3 340.55 20.45 340.6 19.25
L 340.65 11.05 349.2 9.95 349.2 14.6 348.5 14.55
Q 347.3 14.55 346.45 15.4 345.6 16.25 345.6 17.5 345.6 18.7 346.45 19.55 347.3 20.45 348.5 20.4 349.7 20.4 350.55 19.6 351.4 18.75 351.45 17.55
L 351.55 5.85
Q 351.55 5.6 351.3 5.6
L 351.25 5.6 Z"/>
</g>

<g id="Layer1_1_FILL">
<path fill="#AAAAAA" stroke="none" d="
M 367.5 0.6
L 367.5 0.5 367.3 0.45 358.8 1.6
Q 358.6 1.6 358.6 1.85
L 358.6 7.7 358.2 7.7
Q 357.35 7.7 356.75 8.3 356.15 8.9 356.15 9.75 356.15 10.6 356.75 11.25 357.35 11.85 358.2 11.85 359.05 11.85 359.65 11.25 360.25 10.65 360.25 9.8
L 360.25 4.3 365.85 3.6 365.85 6.6 365.5 6.6
Q 364.65 6.6 364 7.2 363.4 7.85 363.4 8.7 363.4 9.55 364 10.15 364.65 10.75 365.5 10.75 366.3 10.75 366.9 10.15 367.5 9.55 367.55 8.7
L 367.6 0.8 367.5 0.6 Z"/>
</g>

<g id="Layer0_0_FILL">
<path fill="#000000" stroke="none" d="
M 56.1 26.95
Q 53.95 26.95 53.35 29.1
L 36.15 96.15
Q 35.85 97.6 36.5 98.55 37.15 99.45 38.8 99.45
L 40.65 99.45
Q 43.1 99.45 43.75 97.2
L 48.7 77.5
Q 51.75 79.35 55.2 79.35 61.15 79.35 65 75.8 68.9 72.2 73 61.4 77.1 50.6 77.85 44.2 78.65 37.8 77.95 35.7 77.3 33.6 75.7 31.6 74.15 29.6 72.4 28.45 70.65 27.25 69.85 27.25
L 69.65 27.25
Q 67.9 27.25 65.1 29.8 62.35 32.35 60.2 35.95
L 58.8 38.3 61.1 29.2
Q 61.7 26.95 59.1 26.95
L 56.1 26.95
M 69.05 36.15
Q 70.75 37.05 70.9 38.9 71.05 40.75 70.05 46 69.1 51.2 65.7 60.55 62.3 69.85 58.75 72.25 55.2 74.65 50.2 71.8
L 50.5 70.8
Q 53.85 58.65 56.65 51.5 59.45 44.35 63.4 39.8 67.4 35.25 69.05 36.15
M 41.05 27.9
Q 42.8 27.4 42.8 24.85 42.8 14.55 40.05 9.15 39.25 7.55 38.15 6.45 35.45 3.7 30.95 3.7 26.2 3.7 22.05 6.45 20.6 7.4 19.2 8.7 13.9 13.7 11.2 20.55 8.5 27.4 8.5 33.75 8.5 37.3 10.6 39.65 12.7 42.05 15.55 42.9
L 19.85 44.25
Q 25.05 45.85 26.3 47.6 27.55 49.35 26.95 54.85 26.4 60.35 23.15 66.1 19.95 71.9 15.7 73.75 13.25 74.75 11.7 74.35 7.5 72.5 7.6 57.1 7.6 55.85 6.95 55.3 6.3 54.75 5.25 55.15
L 1.5 56.35
Q -0.2 56.9 0 61 0 80.7 12.05 80.7 21.2 80.6 28.3 71.25 35.4 61.95 35.5 50.85 35.6 45.6 33.7 42.9 31.85 40.2 25.9 38.05
L 21.75 36.55
Q 18.8 35.65 17.8 34.15 16.8 32.65 16.9 29.95 17.1 23.25 20.05 18 23 12.7 26.2 11.05 28.65 10.25 30.7 11.25 35.1 13.3 35.1 26.9 35.1 28.2 35.9 28.75 36.75 29.35 37.5 29.05
L 41.05 27.9
M 102.55 1.25
L 100.2 1.25
Q 97.75 1.25 97.15 3.5
L 78.4 75.65
Q 77.6 78.95 81.4 78.95
L 83.1 78.95
Q 85.6 78.95 86.2 76.7
L 104.85 3.5
Q 105.45 1.25 102.55 1.25
M 128.15 29
Q 125.05 27.15 121.65 27.15 115.55 27.05 111.5 31.25 107.45 35.45 103.6 46.1 99.75 56.75 98.95 62.7 98.1 68.6 98.85 70.85 99.55 73.1 101.2 75 102.85 76.9 104.55 78.1 106.2 79.25 107.05 79.25
L 107.25 79.25
Q 108.35 79.25 110.4 77.8 112.45 76.4 115.35 72.55
L 117.25 78.25
Q 117.7 79.55 119.1 79.35 123.95 78.25 127.5 75.5 131 72.75 135.2 67.8 136.3 66.35 134.7 65.25
L 132.2 63.6
Q 130.8 62.65 129.65 64.3 126.5 68.75 123.3 71.1
L 135.6 30.2
Q 136.6 26.6 132.85 26.5
L 130.5 26.6
Q 128.55 26.6 128.15 29
M 111.05 46.35
Q 114.3 37.35 117.75 34.4 121.15 31.45 126.6 34.4 122.8 47.95 119.95 55.3 117.05 62.65 113.25 66.85 109.4 71.1 107.75 70.25 106.1 69.4 105.95 67.55 105.8 65.7 106.8 60.55 107.75 55.4 111.05 46.35
M 168.9 26.6
Q 166.95 26.6 166.55 29 163.45 27.15 160.05 27.15 153.95 27.05 149.9 31.25 145.85 35.45 142 46.1 138.15 56.75 137.35 62.7 136.5 68.6 137.25 70.85 137.95 73.1 139.6 75 141.25 76.9 142.95 78.1 144.6 79.25 145.45 79.25
L 145.65 79.25
Q 146.75 79.25 148.8 77.8 150.85 76.4 153.75 72.55
L 155.65 78.25
Q 156.1 79.55 157.5 79.35 162.35 78.25 165.9 75.5 169.4 72.75 173.6 67.8 174.7 66.35 173.1 65.25
L 170.6 63.6
Q 169.2 62.65 168.05 64.3 164.9 68.75 161.7 71.1
L 174 30.2
Q 175 26.6 171.25 26.5
L 168.9 26.6
M 149.45 46.35
Q 152.7 37.35 156.15 34.4 159.55 31.45 165 34.4 161.2 47.95 158.35 55.3 155.45 62.65 151.65 66.85 147.8 71.1 146.15 70.25 144.5 69.4 144.35 67.55 144.2 65.7 145.2 60.55 146.15 55.4 149.45 46.35
M 200.2 11.15
Q 200.8 8.8 197.95 8.8
L 195.35 8.8
Q 192.9 8.8 192.3 11.05
L 188.2 26.95 184.1 26.95
Q 182.45 26.95 181.85 28.85
L 181.05 31.6
Q 180.3 34 182.35 34
L 186.45 34 175.8 75.65
Q 175.5 77.1 176.15 78.05 176.85 78.95 178.5 78.95
L 180.4 78.95
Q 182.9 78.95 183.5 76.7
L 194.35 34 199.65 34
Q 201.6 34 202.35 31.8
L 203.05 29.15
Q 203.75 26.95 201.5 26.95
L 196.2 26.95 200.2 11.15
M 220.2 1.25
Q 217.75 1.25 217.15 3.5
L 198.4 75.65
Q 197.8 78.95 201.35 78.95
L 203.1 78.95
Q 204.95 78.95 205.8 77.4 208.95 79.35 212.35 79.35 218.3 79.35 222.3 75.65 226.25 71.9 230.15 61.25 234.05 50.6 235 44.5 235.9 38.4 235.3 36.1 234.65 33.8 233 31.7 231.3 29.6 229.55 28.45 227.8 27.25 227 27.25
L 226.8 27.25
Q 225.05 27.25 222.3 29.8 219.5 32.35 217.35 35.95
L 215.85 38.5 224.8 3.6
Q 225.4 1.25 222.55 1.25
L 220.2 1.25
M 228.15 38.9
Q 228.3 40.75 227.3 46 226.3 51.2 222.9 60.45 219.45 69.65 215.8 72.2 212.2 74.75 207.2 71.8
L 207.5 70.75
Q 210.9 58.6 213.8 51.35 216.65 44.15 220.6 39.75 224.6 35.35 226.3 36.2 228 37.05 228.15 38.9
M 260.15 26.1
Q 250.25 25.9 243.85 38.15 237.4 50.4 236.95 64.1 236.65 72.9 240.85 76.9 243.65 79.65 246.95 79.75 256.15 80.1 261.6 70.65 269.55 57.75 269.95 42.6 270.35 34.6 268.2 31.25 265.35 26.4 260.15 26.1
M 254 35.45
Q 255.85 33.25 258.15 33.3 260.4 33.35 261.15 35.4 261.85 37.5 261.75 43.5 261.35 57.15 254.5 68.15 251.5 72.7 248.6 72.6 245.25 72.3 245.45 63.05 245.85 50.75 250.35 41.6 252.1 37.7 254 35.45
M 304.75 26.95
Q 302.7 26.95 302 28.25 295.15 40 290.65 46.55 288.8 38.85 286.05 29.35 285.3 26.95 283.15 26.95
L 280.4 26.95
Q 277.5 26.95 278.8 30.7 282.2 42.1 284.75 52.85 278.6 61.35 266.2 76.4 265.5 77.2 265.95 78.1 266.4 78.95 267.85 78.95
L 270.8 78.95
Q 271.85 78.95 272.4 78.55 272.8 78.35 273.1 78.25 273.35 78.15 273.7 77.7 274.05 77.25 274.15 77.15 274.3 77 274.7 76.5 275.1 76 277.3 73.2 279.55 70.45 286.7 61.5 288.4 69.1 289.4 76.1 289.85 78.25 290.35 78.85 290.8 79.45 292.1 79.25
L 295.15 78.95
Q 297.1 78.85 296.8 76.8 294.95 65.2 292.6 54.75 303.25 40.2 308.75 30.6 311 26.95 308.25 26.95
L 304.75 26.95 Z"/>
</g>
</defs>

<g transform="matrix( 1, 0, 0, 1, -20.85,0) ">
<use xlink:href="#Layer1_0_FILL"/>
</g>

<g transform="matrix( 1, 0, 0, 1, -20.85,0) ">
<use xlink:href="#Layer1_1_FILL"/>
</g>

<g transform="matrix( 1, 0, 0, 1, 0,0) ">
<use xlink:href="#Layer0_0_FILL"/>
</g>
</svg>
